<?xml version="1.0" encoding="iso-8859-1"?>
<!-- Generator: Adobe Illustrator 19.0.0, SVG Export Plug-In . SVG Version: 6.00 Build 0)  -->
<svg version="1.1" id="Layer_1" xmlns="http://www.w3.org/2000/svg" xmlns:xlink="http://www.w3.org/1999/xlink" x="0px" y="0px"
	 viewBox="0 0 511.998 511.998" style="enable-background:new 0 0 511.998 511.998;" xml:space="preserve">
<g>
	<g>
		<path d="M213.968,169.123c-2.949-13.238-10.732-26.695-21.931-37.889c-11.189-11.194-24.647-18.982-37.889-21.926
			c-14.773-3.285-27.736-0.308-36.433,8.408c-8.716,8.712-11.703,21.651-8.418,36.443c2.949,13.238,10.732,26.695,21.931,37.889
			c11.189,11.194,24.647,18.982,37.889,21.926c3.92,0.868,7.709,1.297,11.32,1.297c10.023,0,18.712-3.308,25.113-9.71
			C214.267,196.854,217.253,183.91,213.968,169.123z M192.037,192.048c-5.291,5.291-14.045,4.316-18.777,3.266
			c-9.594-2.133-19.99-8.245-28.52-16.78c-8.539-8.534-14.652-18.931-16.779-28.524c-1.055-4.741-2.035-13.481,3.266-18.781
			c3.173-3.177,7.587-4.097,11.637-4.097c2.706,0,5.245,0.411,7.139,0.831c9.594,2.132,19.99,8.25,28.52,16.784
			c8.539,8.535,14.652,18.931,16.78,28.524C196.358,178.007,197.338,186.752,192.037,192.048z"/>
	</g>
</g>
<g>
	<g>
		<path d="M509.197,342.774l-30.218-30.218c-3.052-3.056-7.755-3.686-11.497-1.54l-58.869,33.638l-67.65-109.925l128.451-128.45
			c3.733-3.733,3.733-9.78,0-13.513l-66.894-66.894c-3.294-3.294-8.455-3.733-12.272-1.05L237.458,132.671
			c-4.89-7.093-10.508-13.831-16.789-20.111c-40.988-40.992-98.587-50.082-128.394-20.274
			c-29.808,29.807-20.708,87.407,20.279,128.39c5.049,5.053,10.424,9.701,16.052,13.887L24.671,390.467
			c-2.529,3.789-2.025,8.838,1.195,12.057l66.894,66.894c3.733,3.733,9.78,3.733,13.513,0l133.051-133.051l105.53,71.882
			l-33.839,59.228c-2.137,3.742-1.512,8.45,1.54,11.497l30.218,30.223c1.792,1.792,4.218,2.799,6.757,2.799s4.965-1.008,6.757-2.799
			l152.91-152.91C512.93,352.555,512.93,346.507,509.197,342.774z M349.53,488.928l-18.301-18.305l34.604-60.558
			c2.473-4.33,1.204-9.832-2.921-12.641l-119.37-81.308c-3.78-2.576-8.875-2.095-12.132,1.143L99.516,449.149L44.922,394.55
			l104.802-157.208c1.428-2.137,1.932-4.755,1.4-7.265c-0.523-2.51-2.044-4.708-4.209-6.089
			c-7.401-4.732-14.419-10.392-20.849-16.826c-33.531-33.536-42.63-79.008-20.279-101.363
			c22.36-22.337,67.837-13.257,101.368,20.274c7.652,7.657,14.167,16.066,19.346,24.992c1.353,2.319,3.612,3.966,6.225,4.54
			c2.66,0.574,5.357,0.019,7.559-1.531L394.698,45.078l54.445,54.445L322.111,226.554c-3.126,3.126-3.705,7.998-1.381,11.764
			l76.451,124.232c2.697,4.386,8.38,5.851,12.879,3.29l60.567-34.609l18.301,18.301L349.53,488.928z"/>
	</g>
</g>
<g>
	<g>
		<rect x="-5.936" y="104.308" transform="matrix(0.7071 -0.7071 0.7071 0.7071 -69.5588 59.7969)" width="86.675" height="19.11"/>
	</g>
</g>
<g>
	<g>
		<rect x="70.512" y="27.846" transform="matrix(0.7071 -0.7071 0.7071 0.7071 6.8994 91.4579)" width="86.675" height="19.11"/>
	</g>
</g>
<g>
</g>
<g>
</g>
<g>
</g>
<g>
</g>
<g>
</g>
<g>
</g>
<g>
</g>
<g>
</g>
<g>
</g>
<g>
</g>
<g>
</g>
<g>
</g>
<g>
</g>
<g>
</g>
<g>
</g>
</svg>
