<?xml version="1.0" encoding="iso-8859-1"?>
<!-- Generator: Adobe Illustrator 19.0.0, SVG Export Plug-In . SVG Version: 6.00 Build 0)  -->
<svg version="1.1" id="Layer_1" xmlns="http://www.w3.org/2000/svg" xmlns:xlink="http://www.w3.org/1999/xlink" x="0px" y="0px"
	 viewBox="0 0 512 512" style="enable-background:new 0 0 512 512;" xml:space="preserve">
<g>
	<g>
		<path d="M496.079,15.928C485.804,5.652,472.131,0,457.581,0c-0.005,0-0.005,0-0.005,0c-14.561,0-28.244,5.658-38.524,15.942
			l-77.59,77.582L88.678,30.329c-3.701-0.909-7.636,0.16-10.344,2.866L39.832,71.697c-2.51,2.505-3.637,6.079-3.031,9.573
			c0.612,3.494,2.882,6.472,6.095,7.982l205.926,96.911l-91.848,91.848L34.354,295.869c-2.324,0.34-4.473,1.42-6.132,3.079
			L3.19,323.975c-2.712,2.712-3.797,6.653-2.856,10.37c0.941,3.723,3.771,6.674,7.445,7.77l107.063,31.903l20.778,20.772
			l34.312,109.573c1.138,3.637,4.095,6.414,7.791,7.323c0.862,0.213,1.734,0.314,2.601,0.314c2.856,0,5.637-1.122,7.701-3.191
			l25.027-25.032c1.659-1.659,2.739-3.808,3.079-6.132l17.858-122.618l91.226-91.231l89.769,197.475
			c1.479,3.255,4.456,5.573,7.972,6.212c3.489,0.633,7.121-0.489,9.642-3.016l38.508-38.508c2.654-2.654,3.755-6.488,2.914-10.152
			l-56.403-244.407l78.447-78.449C517.303,71.71,517.313,37.156,496.079,15.928z M480.661,77.547l-82.717,82.717
			c-2.654,2.654-3.755,6.488-2.914,10.152l56.403,244.407l-23.123,23.128l-89.769-197.475c-1.479-3.255-4.456-5.573-7.972-6.212
			c-3.499-0.638-7.121,0.489-9.642,3.015L216.029,342.178c-1.659,1.659-2.739,3.808-3.079,6.132l-17.858,122.618l-9.748,9.759
			l-29.739-94.959c-0.521-1.675-1.446-3.201-2.691-4.446l-24.617-24.617c-1.276-1.282-2.856-2.223-4.589-2.739l-92.194-27.468
			l9.551-9.551l122.624-17.858c2.324-0.34,4.473-1.42,6.132-3.079l105.361-105.361c2.51-2.505,3.638-6.078,3.031-9.572
			c-0.612-3.494-2.888-6.472-6.095-7.982L66.193,76.143l23.182-23.187l252.783,63.195c3.723,0.931,7.637-0.154,10.344-2.866
			l81.951-81.946c6.169-6.169,14.38-9.567,23.123-9.567c8.738,0,16.943,3.393,23.101,9.551
			C493.414,44.064,493.409,64.799,480.661,77.547z"/>
	</g>
</g>
<g>
</g>
<g>
</g>
<g>
</g>
<g>
</g>
<g>
</g>
<g>
</g>
<g>
</g>
<g>
</g>
<g>
</g>
<g>
</g>
<g>
</g>
<g>
</g>
<g>
</g>
<g>
</g>
<g>
</g>
</svg>
