<?xml version="1.0" encoding="iso-8859-1"?>
<!-- Generator: Adobe Illustrator 19.0.0, SVG Export Plug-In . SVG Version: 6.00 Build 0)  -->
<svg version="1.1" id="Layer_1" xmlns="http://www.w3.org/2000/svg" xmlns:xlink="http://www.w3.org/1999/xlink" x="0px" y="0px"
	 viewBox="0 0 512 512" style="enable-background:new 0 0 512 512;" xml:space="preserve">
<g>
	<g>
		<path d="M483.714,299.365c-4.474-1.709-9.479-0.229-12.323,3.568c-0.307,0.406-30.496,40.74-101.72,71.266
			c-53.29,22.832-88.512,16.837-101.845,12.983V202.762h94.763c5.891,0,11.904-4.871,11.904-10.762v-42.667
			c0-5.891-6.013-10.572-11.904-10.572h-94.763v-33.171c24-4.956,42.048-26.504,42.048-52.258C309.874,23.927,285.638,0,256.231,0
			c-29.405,0-52.869,23.927-52.869,53.333c0,25.754,16.463,47.302,43.13,52.258v33.171h-97.237c-5.891,0-9.43,4.681-9.43,10.572V192
			c0,5.89,3.539,10.762,9.43,10.762h97.237v184.654c-88,30.983-205.211-84.423-206.41-85.629c-3.167-3.151-8.273-4-12.341-2.125
			c-4.057,1.88-6.666,6.099-6.296,10.557l10.59,128c0.37,4.411,3.388,8.141,7.643,9.365c4.245,1.229,8.805-0.302,11.461-3.849
			l18.844-25.135C96.171,470.833,200.891,512,255.927,512c55.036,0,159.758-41.167,185.945-93.401l18.852,25.135
			c2.656,3.547,7.25,5.078,11.479,3.849c4.255-1.224,7.313-4.953,7.682-9.365l10.667-128
			C490.948,305.479,488.156,301.052,483.714,299.365z M223.922,53.333c0-17.646,14.354-32,32-32s32,14.354,32,32
			c0,17.646-14.354,32-32,32S223.922,70.979,223.922,53.333z M161.159,181.428v-21.333h84.096h21.333h86.57v21.333H161.159z
			 M460.953,408.489l-15.167-20.224c-2.755-3.667-7.557-5.172-11.906-3.719c-4.354,1.453-7.292,5.526-7.292,10.12
			c0,42.37-105.818,96-170.667,96c-64.849,0-170.667-53.63-170.667-96c0-4.594-2.937-8.667-7.291-10.12
			c-1.11-0.37-2.25-0.547-3.375-0.547c-3.291,0-6.479,1.531-8.531,4.266l-15.167,20.224l-6.089-73.036
			c40.474,34.443,133.172,101.562,211.203,70.745c13.865,4.943,56.609,15.391,121.453-12.396
			c42.495-18.208,71.625-39.745,89.354-55.589L460.953,408.489z"/>
	</g>
</g>
<g>
</g>
<g>
</g>
<g>
</g>
<g>
</g>
<g>
</g>
<g>
</g>
<g>
</g>
<g>
</g>
<g>
</g>
<g>
</g>
<g>
</g>
<g>
</g>
<g>
</g>
<g>
</g>
<g>
</g>
</svg>
