<?xml version="1.0" encoding="iso-8859-1"?>
<!-- Generator: Adobe Illustrator 19.0.0, SVG Export Plug-In . SVG Version: 6.00 Build 0)  -->
<svg version="1.1" id="Layer_1" xmlns="http://www.w3.org/2000/svg" xmlns:xlink="http://www.w3.org/1999/xlink" x="0px" y="0px"
	 viewBox="0 0 512 512" style="enable-background:new 0 0 512 512;" xml:space="preserve">
<g>
	<g>
		<path d="M471.474,113.231H38.243c-5.442,0-8.704,4.321-8.704,9.759v315.077c0,5.437,3.262,9.934,8.704,9.934h433.231
			c5.442,0,10.988-4.497,10.988-9.934V122.989C482.462,117.552,476.916,113.231,471.474,113.231z M462.769,428.308H49.231V132.923
			h413.538V428.308z"/>
	</g>
</g>
<g>
	<g>
		<polygon points="403.692,83.692 403.692,64 354.462,64 354.462,83.692 157.538,83.692 157.538,64 108.308,64 108.308,83.692 
			0,83.692 0,103.385 512,103.385 512,83.692 		"/>
	</g>
</g>
<g>
	<g>
		<polygon points="167.385,270.769 167.385,221.538 147.692,221.538 147.692,270.769 98.462,270.769 98.462,290.462 
			147.692,290.462 147.692,339.692 167.385,339.692 167.385,290.462 216.615,290.462 216.615,270.769 		"/>
	</g>
</g>
<g>
	<g>
		<rect x="295.385" y="270.769" width="118.154" height="19.692"/>
	</g>
</g>
<g>
</g>
<g>
</g>
<g>
</g>
<g>
</g>
<g>
</g>
<g>
</g>
<g>
</g>
<g>
</g>
<g>
</g>
<g>
</g>
<g>
</g>
<g>
</g>
<g>
</g>
<g>
</g>
<g>
</g>
</svg>
