<?xml version="1.0" encoding="iso-8859-1"?>
<!-- Generator: Adobe Illustrator 19.0.0, SVG Export Plug-In . SVG Version: 6.00 Build 0)  -->
<svg version="1.1" id="Layer_1" xmlns="http://www.w3.org/2000/svg" xmlns:xlink="http://www.w3.org/1999/xlink" x="0px" y="0px"
	 viewBox="0 0 512 512" style="enable-background:new 0 0 512 512;" xml:space="preserve">
<g>
	<g>
		<path d="M413.193,197.587c-15.347,0-29.888,3.518-42.86,9.789l-20.089-28.46c-0.267-3.363-2.349-6.207-5.299-7.508l-16.66-23.602
			l34.351-13.737c4.605-1.847,6.846-7.07,5.004-11.68c-1.847-4.596-7.048-6.829-11.68-5.004l-44.912,17.965
			c-2.553,1.022-4.496,3.158-5.276,5.794c-0.781,2.636-0.311,5.523,1.276,7.769l15.365,21.807H194.184l-15.482-30.965
			c-1.522-3.044-4.632-4.965-8.035-4.965h-35.93c-4.961,0-8.982,4.022-8.982,8.982s4.022,8.982,8.982,8.982h30.377l62.877,125.754
			h-32.044c-8.476-44.912-48.795-80.882-97.14-80.882C44.325,197.628,0,241.932,0,296.415c0,54.482,44.325,98.836,98.807,98.836
			c54.483,0,98.807-44.881,98.807-98.776h44.912c3.114,0,6.005-1.653,7.641-4.298c1.636-2.65,1.785-5.936,0.395-8.721l-47.395-94.77
			h131.928l19.815,28.031c-24.546,17.995-40.523,47-40.523,79.7c0,54.482,44.325,98.796,98.807,98.796
			c54.483,0,98.807-44.329,98.807-98.811S467.676,197.587,413.193,197.587z M98.807,377.277c-44.575,0-80.842-36.288-80.842-80.862
			c0-44.575,36.268-80.814,80.842-80.814c38.399,0,70.61,26.978,78.805,62.908h-69.822c-4.961,0-8.982,4.022-8.982,8.982
			s4.022,8.982,8.982,8.982h71.86C179.649,341.387,143.382,377.277,98.807,377.277z M413.193,377.237
			c-44.575,0-80.842-36.268-80.842-80.842c0-26.646,12.966-50.315,32.912-65.051l49.575,70.23c1.75,2.478,4.526,3.803,7.346,3.803
			c1.789,0,3.597-0.535,5.171-1.645c4.053-2.86,5.017-8.465,2.158-12.518l-48.636-68.901c9.905-4.337,20.83-6.761,32.316-6.761
			c44.575,0,80.842,36.267,80.842,80.842C494.035,340.969,457.768,377.237,413.193,377.237z"/>
	</g>
</g>
<g>
</g>
<g>
</g>
<g>
</g>
<g>
</g>
<g>
</g>
<g>
</g>
<g>
</g>
<g>
</g>
<g>
</g>
<g>
</g>
<g>
</g>
<g>
</g>
<g>
</g>
<g>
</g>
<g>
</g>
</svg>
