<?xml version="1.0" encoding="iso-8859-1"?>
<!-- Generator: Adobe Illustrator 19.0.0, SVG Export Plug-In . SVG Version: 6.00 Build 0)  -->
<svg version="1.1" id="Layer_1" xmlns="http://www.w3.org/2000/svg" xmlns:xlink="http://www.w3.org/1999/xlink" x="0px" y="0px"
	 viewBox="0 0 512 512" style="enable-background:new 0 0 512 512;" xml:space="preserve">
<g>
	<g>
		<path d="M346.074,151.703c-91.491,0-165.926,74.435-165.926,165.926c0,91.491,74.435,165.926,165.926,165.926
			C437.565,483.555,512,409.12,512,317.629C512,226.138,437.565,151.703,346.074,151.703z M346.074,464.592
			c-81.037,0-146.963-65.926-146.963-146.963s65.926-146.963,146.963-146.963s146.963,65.926,146.963,146.963
			S427.111,464.592,346.074,464.592z"/>
	</g>
</g>
<g>
	<g>
		<path d="M346.074,265.481c-28.755,0-52.148,23.393-52.148,52.148c0,28.755,23.394,52.148,52.148,52.148
			c28.755,0,52.148-23.394,52.148-52.148C398.222,288.874,374.829,265.481,346.074,265.481z M346.074,350.814
			c-18.296,0-33.185-14.889-33.185-33.185c0-18.296,14.889-33.185,33.185-33.185c18.296,0,33.185,14.889,33.185,33.185
			C379.259,335.925,364.37,350.814,346.074,350.814z"/>
	</g>
</g>
<g>
	<g>
		<path d="M385.351,30.235c-2.477-1.792-5.933-2.264-8.817-1.306l-85.47,28.444c-4.968,1.658-7.722,7.028-6.065,11.995
			c1.657,4.963,7.53,7.671,12.511,5.995l73.368-24.287v52.264c-26.074-1.906-91.556-3.407-144.388,24.175
			c-0.102-0.153-0.446-0.275-0.558-0.424l-17.34-22.713h20.064V85.417h-75.852v18.963h32.087l24.758,32.968
			c-4.534,3.118-8.934,6.449-13.12,10.126c-29.745,26.116-44.824,62.624-44.824,108.536c0,42.245-4.685,71.957-11.399,92.89
			c-14.756-16.281-36.059-26.528-59.712-26.528C36.153,322.372,0,358.524,0,402.963c0,44.44,36.153,80.593,80.593,80.593
			c44.44,0,80.593-36.154,80.593-80.594c0-12.396-2.819-24.144-7.84-34.646c11.513-27.01,17.322-64.563,17.322-112.317
			c0-40.19,12.894-71.903,38.324-94.255c59.25-52.079,167.963-38.699,169.046-38.565c2.722,0.324,5.98-0.482,8.031-2.282
			c2.046-1.801,3.772-4.394,3.772-7.12V37.925C389.84,34.879,387.828,32.018,385.351,30.235z M80.593,464.592
			c-33.981,0-61.63-27.648-61.63-61.63c0-33.982,27.648-61.63,61.63-61.63c21.442,0,40.354,11.015,51.398,27.677
			c-5.327,10.027-11.126,16.677-16.583,21.05c-13.991,11.222-27.102,8.593-27.87,8.421c-5.023-1.185-10.134,1.88-11.403,6.922
			c-1.269,5.083,1.82,10.232,6.898,11.5c0.343,0.083,3.667,0.88,8.852,0.88c8.338,0,21.472-2.056,34.727-12.403
			c5.243-4.094,10.015-9.087,14.33-14.939c0.838,4.045,1.281,8.233,1.281,12.522C142.222,436.944,114.574,464.592,80.593,464.592z"
			/>
	</g>
</g>
<g>
</g>
<g>
</g>
<g>
</g>
<g>
</g>
<g>
</g>
<g>
</g>
<g>
</g>
<g>
</g>
<g>
</g>
<g>
</g>
<g>
</g>
<g>
</g>
<g>
</g>
<g>
</g>
<g>
</g>
</svg>
