<?xml version="1.0" encoding="iso-8859-1"?>
<!-- Generator: Adobe Illustrator 19.0.0, SVG Export Plug-In . SVG Version: 6.00 Build 0)  -->
<svg version="1.1" id="Layer_1" xmlns="http://www.w3.org/2000/svg" xmlns:xlink="http://www.w3.org/1999/xlink" x="0px" y="0px"
	 viewBox="0 0 512 512" style="enable-background:new 0 0 512 512;" xml:space="preserve">
<g>
	<g>
		<path d="M129.346,306.151c-33.216,0-60.235,27.02-60.235,60.235c0,33.216,27.02,60.235,60.235,60.235
			c33.216,0,60.235-27.02,60.235-60.235C189.581,333.171,162.561,306.151,129.346,306.151z M129.346,406.544
			c-22.147,0-40.157-18.015-40.157-40.157c0-22.142,18.01-40.157,40.157-40.157c22.147,0,40.157,18.015,40.157,40.157
			C169.502,388.529,151.493,406.544,129.346,406.544z"/>
	</g>
</g>
<g>
	<g>
		<path d="M370.287,306.151c-33.215,0-60.235,27.02-60.235,60.235c0,33.216,27.02,60.235,60.235,60.235
			c33.216,0,60.235-27.02,60.235-60.235C430.522,333.171,403.502,306.151,370.287,306.151z M370.287,406.544
			c-22.147,0-40.157-18.015-40.157-40.157c0-22.142,18.01-40.157,40.157-40.157c22.147,0,40.157,18.015,40.157,40.157
			C410.444,388.529,392.434,406.544,370.287,406.544z"/>
	</g>
</g>
<g>
	<g>
		<path d="M149.424,125.535H49.032c-5.549,0-8.875,4.406-8.875,9.95v90.353c0,5.544,3.326,10.129,8.875,10.129h100.392
			c5.549,0,11.203-4.585,11.203-10.129v-90.353C160.627,129.941,154.973,125.535,149.424,125.535z M140.549,215.888H60.235v-70.275
			h80.314V215.888z"/>
	</g>
</g>
<g>
	<g>
		<path d="M300.012,125.535H199.62c-5.549,0-8.875,4.406-8.875,9.95v90.353c0,5.544,3.326,10.129,8.875,10.129h100.392
			c5.549,0,11.203-4.585,11.203-10.129v-90.353C311.216,129.941,305.561,125.535,300.012,125.535z M291.137,215.888h-80.314v-70.275
			h80.314V215.888z"/>
	</g>
</g>
<g>
	<g>
		<path d="M450.6,125.535H350.208c-5.549,0-8.875,4.406-8.875,9.95v90.353c0,5.544,3.326,10.129,8.875,10.129H450.6
			c5.549,0,11.204-4.585,11.204-10.129v-90.353C461.804,129.941,456.15,125.535,450.6,125.535z M441.726,215.888h-80.314v-70.275
			h80.314V215.888z"/>
	</g>
</g>
<g>
	<g>
		<path d="M450.689,85.378H58.983C25.816,85.378,0,112.333,0,145.578v170.559c0,33.245,25.098,60.289,60.235,60.289v-20.078
			c-22.588,0-40.157-18.039-40.157-40.211V145.578c0-22.171,16.806-40.121,38.904-40.121h391.706
			c22.098,0,41.233,17.95,41.233,40.121v170.559c0,22.172-20.078,40.211-40.157,40.211v20.078c32.627,0,60.235-27.044,60.235-60.289
			V145.578C512,112.333,483.855,85.378,450.689,85.378z"/>
	</g>
</g>
<g>
	<g>
		<rect x="200.784" y="356.437" width="100.392" height="20.078"/>
	</g>
</g>
<g>
</g>
<g>
</g>
<g>
</g>
<g>
</g>
<g>
</g>
<g>
</g>
<g>
</g>
<g>
</g>
<g>
</g>
<g>
</g>
<g>
</g>
<g>
</g>
<g>
</g>
<g>
</g>
<g>
</g>
</svg>
