<?xml version="1.0" encoding="iso-8859-1"?>
<!-- Generator: Adobe Illustrator 19.0.0, SVG Export Plug-In . SVG Version: 6.00 Build 0)  -->
<svg version="1.1" id="Layer_1" xmlns="http://www.w3.org/2000/svg" xmlns:xlink="http://www.w3.org/1999/xlink" x="0px" y="0px"
	 viewBox="0 0 512 512" style="enable-background:new 0 0 512 512;" xml:space="preserve">
<g>
	<g>
		<path d="M174.116,359.298h-53.895c-14.86,0-25.906,11.999-25.906,26.85v18c0,14.851,11.046,27.01,25.906,27.01h53.895
			c14.86,0,27.989-12.159,27.989-27.01v-18C202.105,371.297,188.976,359.298,174.116,359.298z M139.228,413.193h-19.007
			c-4.956,0-7.941-4.102-7.941-9.045v-18c0-5.026,2.906-8.885,7.941-8.885h19.007V413.193z M184.14,404.148
			c0,5.026-4.989,9.045-10.024,9.045h-16.923v-35.93h16.923c4.956,0,10.024,3.942,10.024,8.885V404.148z"/>
	</g>
</g>
<g>
	<g>
		<path d="M389.695,359.298H335.8c-14.86,0-25.906,11.999-25.906,26.85v18c0,14.851,11.046,27.01,25.906,27.01h53.895
			c14.86,0,27.989-12.159,27.989-27.01v-18C417.684,371.297,404.555,359.298,389.695,359.298z M354.807,413.193H335.8
			c-4.956,0-7.941-4.102-7.941-9.045v-18c0-5.026,2.906-8.885,7.941-8.885h19.007V413.193z M399.719,404.148
			c0,5.026-4.989,9.045-10.024,9.045h-16.923v-35.93h16.923c4.956,0,10.024,3.942,10.024,8.885V404.148z"/>
	</g>
</g>
<g>
	<g>
		<path d="M203.055,114.701c-3.509-3.509-9.193-3.509-12.702,0l-76.482,76.482c-3.509,3.509-3.509,9.193,0,12.702
			c1.754,1.754,4.053,2.632,6.351,2.632c2.298,0,4.596-0.877,6.351-2.632l76.482-76.482
			C206.564,123.894,206.564,118.209,203.055,114.701z"/>
	</g>
</g>
<g>
	<g>
		<path d="M153.52,101.359c-3.509-3.509-9.193-3.509-12.702,0l-35.93,35.93c-3.509,3.509-3.509,9.193,0,12.702
			c1.755,1.754,4.053,2.632,6.351,2.632c2.298,0,4.597-0.877,6.351-2.632l35.93-35.93
			C157.029,110.552,157.029,104.867,153.52,101.359z"/>
	</g>
</g>
<g>
	<g>
		<path d="M470.555,71.86h-25.923V26.92c0-14.886-13.121-26.92-27.963-26.92H93.248C78.406,0,67.368,12.034,67.368,26.92v44.94
			H39.362c-14.851,0-25.888,12.034-25.888,26.92v89.719c0,14.886,11.037,27.08,25.888,27.08h28.007v125.674v89.75
			c0,14.899,11.037,27.102,25.879,27.102h1.068v26.885c0,14.851,11.064,27.01,25.95,27.01h8.895
			c14.886,0,28.033-12.159,28.033-27.01v-26.885h188.632v26.885c0,14.851,11.064,27.01,25.95,27.01h8.895
			c14.886,0,28.033-12.159,28.033-27.01v-26.885h7.967c14.842,0,27.963-12.203,27.963-27.102v-89.75V215.579h25.923
			c14.851,0,27.972-12.194,27.972-27.08V98.78C498.526,83.894,485.406,71.86,470.555,71.86z M67.368,197.614H39.362
			c-4.947,0-7.923-4.133-7.923-9.115V98.78c0-4.983,2.976-8.955,7.923-8.955h28.007V197.614z M85.333,80.842h161.684v251.509
			h-98.283c2.14-6.737,7.21-17.965,19.226-26.947h51.068c4.965,0,8.982-4.022,8.982-8.982c0-4.961-4.017-8.982-8.982-8.982h-53.82
			c-0.018,0-0.035,0-0.053,0h-44.934c-4.965,0-8.982,4.022-8.982,8.982c0,4.961,4.018,8.982,8.982,8.982h22.305
			c-7.54,8.982-10.812,20.211-12.23,26.947H85.333V80.842z M139.228,484.99c0,4.943-5.094,9.045-10.068,9.045h-8.895
			c-4.974,0-7.985-4.102-7.985-9.045v-26.885h26.947V484.99z M390.737,484.99c0,4.943-5.094,9.045-10.068,9.045h-8.895
			c-4.974,0-7.985-4.102-7.985-9.045v-26.885h26.947V484.99z M426.667,431.003c0,4.996-5.059,9.137-9.998,9.137h-17.991h-44.912
			H147.169h-44.912h-9.009c-4.939,0-7.914-4.141-7.914-9.137v-80.688h169.625h171.708V431.003z M426.667,332.351h-47.046
			c-1.421-6.737-4.691-17.965-12.23-26.947h22.305c4.965,0,8.982-4.022,8.982-8.982c0-4.961-4.017-8.982-8.982-8.982H344.75
			c-0.018,0-0.035,0-0.053,0h-53.809c-4.965,0-8.982,4.022-8.982,8.982c0,4.961,4.018,8.982,8.982,8.982h50.987
			c12.029,8.982,17.147,20.211,19.29,26.947h-96.182V80.842h161.684V332.351z M426.667,62.877H254.958H85.333V26.92
			c0-4.983,2.976-8.955,7.914-8.955h323.421c5.026,0,9.998,3.889,9.998,8.955V62.877z M480.561,188.499
			c0,4.983-5.059,9.115-10.007,9.115h-25.923V89.825h25.923c4.948,0,10.007,3.972,10.007,8.955V188.499z"/>
	</g>
</g>
<g>
</g>
<g>
</g>
<g>
</g>
<g>
</g>
<g>
</g>
<g>
</g>
<g>
</g>
<g>
</g>
<g>
</g>
<g>
</g>
<g>
</g>
<g>
</g>
<g>
</g>
<g>
</g>
<g>
</g>
</svg>
