<?xml version="1.0" encoding="iso-8859-1"?>
<!-- Generator: Adobe Illustrator 19.0.0, SVG Export Plug-In . SVG Version: 6.00 Build 0)  -->
<svg version="1.1" id="Layer_1" xmlns="http://www.w3.org/2000/svg" xmlns:xlink="http://www.w3.org/1999/xlink" x="0px" y="0px"
	 viewBox="0 0 512 512" style="enable-background:new 0 0 512 512;" xml:space="preserve">
<g>
	<g>
		<path d="M241.074,85.619c-4.356-3.264-10.529-2.37-13.784,1.966l-29.538,39.385c-2.24,2.986-2.601,6.976-0.933,10.312
			l19.692,39.385c1.726,3.452,5.202,5.447,8.817,5.443c1.476,0,2.981-0.332,4.394-1.039c4.865-2.433,6.836-8.346,4.404-13.212
			l-16.971-33.942l25.885-34.514C246.305,95.052,245.425,88.879,241.074,85.619z"/>
	</g>
</g>
<g>
	<g>
		<path d="M302.118,126.971l-29.538-39.385c-3.25-4.337-9.414-5.231-13.784-1.966c-4.351,3.26-5.231,9.433-1.966,13.784
			l25.885,34.514l-16.971,33.942c-2.433,4.865-0.462,10.779,4.404,13.212c1.413,0.707,2.918,1.039,4.394,1.039
			c3.615,0,7.091-1.99,8.817-5.443l19.692-39.385C304.719,133.946,304.358,129.956,302.118,126.971z"/>
	</g>
</g>
<g>
	<g>
		<rect x="216.615" y="34.505" width="68.923" height="19.692"/>
	</g>
</g>
<g>
	<g>
		<path d="M481.411,201.89H28.305C12.07,201.89,0,215.043,0,231.317v147.74c0,16.274,12.07,29.602,28.305,29.602h16.572
			c3.803,0,7.264-2.231,8.894-5.663c9.741-20.51,30.697-33.787,53.394-33.787c22.697,0,43.654,13.289,53.394,33.798
			c1.63,3.433,5.091,5.653,8.894,5.653h160.961c3.803,0,7.264-2.231,8.894-5.663c9.741-20.51,30.697-33.787,53.394-33.787
			c22.697,0,43.654,13.289,53.394,33.798c1.63,3.433,5.091,5.653,8.894,5.653h26.418c16.236,0,30.589-13.328,30.589-29.602v-147.74
			C512,215.043,497.647,201.89,481.411,201.89z M492.308,379.057c0,5.418-5.517,9.91-10.897,9.91H460.93
			c-13.971-24.615-40.096-39.385-68.226-39.385c-28.13,0-54.255,14.769-68.226,39.385H175.392
			c-13.971-24.615-40.096-39.385-68.226-39.385c-28.13,0-54.255,14.769-68.226,39.385H28.305c-5.38,0-8.613-4.492-8.613-9.91
			v-147.74c0-5.418,3.233-9.734,8.613-9.734h453.106c5.38,0,10.897,4.316,10.897,9.734V379.057z"/>
	</g>
</g>
<g>
	<g>
		<path d="M107.166,379.033c-27.144,0-49.231,22.086-49.231,49.231c0,27.144,22.087,49.231,49.231,49.231
			c27.144,0,49.231-22.087,49.231-49.231C156.397,401.12,134.31,379.033,107.166,379.033z M107.166,457.802
			c-16.288,0-29.538-13.25-29.538-29.539c0-16.288,13.25-29.538,29.538-29.538c16.289,0,29.538,13.25,29.538,29.538
			C136.704,444.552,123.454,457.802,107.166,457.802z"/>
	</g>
</g>
<g>
	<g>
		<path d="M392.704,379.033c-27.144,0-49.231,22.086-49.231,49.231c0,27.144,22.087,49.231,49.231,49.231
			c27.144,0,49.231-22.087,49.231-49.231C441.935,401.12,419.849,379.033,392.704,379.033z M392.704,457.802
			c-16.289,0-29.538-13.25-29.538-29.539c0-16.288,13.25-29.538,29.538-29.538c16.288,0,29.538,13.25,29.538,29.538
			C422.243,444.552,408.993,457.802,392.704,457.802z"/>
	</g>
</g>
<g>
	<g>
		<path d="M462.769,241.275H49.231c-5.438,0-9.846,4.409-9.846,9.846v49.231c0,5.438,4.409,9.846,9.846,9.846h413.538
			c5.438,0,9.846-4.409,9.846-9.846v-49.231C472.615,245.683,468.207,241.275,462.769,241.275z M452.923,290.505H59.077v-29.539
			h393.846V290.505z"/>
	</g>
</g>
<g>
</g>
<g>
</g>
<g>
</g>
<g>
</g>
<g>
</g>
<g>
</g>
<g>
</g>
<g>
</g>
<g>
</g>
<g>
</g>
<g>
</g>
<g>
</g>
<g>
</g>
<g>
</g>
<g>
</g>
</svg>
