<?xml version="1.0" encoding="iso-8859-1"?>
<!-- Generator: Adobe Illustrator 19.0.0, SVG Export Plug-In . SVG Version: 6.00 Build 0)  -->
<svg version="1.1" id="Layer_1" xmlns="http://www.w3.org/2000/svg" xmlns:xlink="http://www.w3.org/1999/xlink" x="0px" y="0px"
	 viewBox="0 0 512 512" style="enable-background:new 0 0 512 512;" xml:space="preserve">
<g>
	<g>
		<path d="M129.346,371.406c-33.216,0-60.235,27.02-60.235,60.235c0,33.216,27.02,60.235,60.235,60.235
			c33.216,0,60.235-27.02,60.235-60.235C189.581,398.426,162.561,371.406,129.346,371.406z M129.346,471.798
			c-22.147,0-40.157-18.015-40.157-40.157c0-22.142,18.01-40.157,40.157-40.157c22.147,0,40.157,18.015,40.157,40.157
			C169.502,453.784,151.493,471.798,129.346,471.798z"/>
	</g>
</g>
<g>
	<g>
		<path d="M370.287,371.406c-33.215,0-60.235,27.02-60.235,60.235c0,33.216,27.02,60.235,60.235,60.235
			c33.216,0,60.235-27.02,60.235-60.235C430.522,398.426,403.502,371.406,370.287,371.406z M370.287,471.798
			c-22.147,0-40.157-18.015-40.157-40.157c0-22.142,18.01-40.157,40.157-40.157c22.147,0,40.157,18.015,40.157,40.157
			C410.444,453.784,392.434,471.798,370.287,471.798z"/>
	</g>
</g>
<g>
	<g>
		<path d="M149.424,60.28H49.032c-5.549,0-8.875,4.406-8.875,9.95v90.353c0,5.544,3.326,10.129,8.875,10.129h100.392
			c5.549,0,11.203-4.585,11.203-10.129V70.23C160.627,64.686,154.973,60.28,149.424,60.28z M140.549,150.633H60.235V80.358h80.314
			V150.633z"/>
	</g>
</g>
<g>
	<g>
		<path d="M149.424,190.79H49.032c-5.549,0-8.875,4.406-8.875,9.95v90.353c0,5.544,3.326,10.129,8.875,10.129h100.392
			c5.549,0,11.203-4.585,11.203-10.129V200.74C160.627,195.195,154.973,190.79,149.424,190.79z M140.549,281.143H60.235v-70.274
			h80.314V281.143z"/>
	</g>
</g>
<g>
	<g>
		<path d="M300.012,60.28H199.62c-5.549,0-8.875,4.406-8.875,9.95v90.353c0,5.544,3.326,10.129,8.875,10.129h100.392
			c5.549,0,11.203-4.585,11.203-10.129V70.23C311.216,64.686,305.561,60.28,300.012,60.28z M291.137,150.633h-80.314V80.358h80.314
			V150.633z"/>
	</g>
</g>
<g>
	<g>
		<path d="M300.012,190.79H199.62c-5.549,0-8.875,4.406-8.875,9.95v90.353c0,5.544,3.326,10.129,8.875,10.129h100.392
			c5.549,0,11.203-4.585,11.203-10.129V200.74C311.216,195.195,305.561,190.79,300.012,190.79z M291.137,281.143h-80.314v-70.274
			h80.314V281.143z"/>
	</g>
</g>
<g>
	<g>
		<path d="M450.6,60.28H350.208c-5.549,0-8.875,4.406-8.875,9.95v90.353c0,5.544,3.326,10.129,8.875,10.129H450.6
			c5.549,0,11.204-4.585,11.204-10.129V70.23C461.804,64.686,456.15,60.28,450.6,60.28z M441.726,150.633h-80.314V80.358h80.314
			V150.633z"/>
	</g>
</g>
<g>
	<g>
		<path d="M450.6,190.79H350.208c-5.549,0-8.875,4.406-8.875,9.95v90.353c0,5.544,3.326,10.129,8.875,10.129H450.6
			c5.549,0,11.204-4.585,11.204-10.129V200.74C461.804,195.195,456.15,190.79,450.6,190.79z M441.726,281.143h-80.314v-70.274
			h80.314V281.143z"/>
	</g>
</g>
<g>
	<g>
		<path d="M450.689,20.123H58.983C25.816,20.123,0,47.078,0,80.323v301.069c0,33.245,25.098,60.289,60.235,60.289v-20.078
			c-22.588,0-40.157-18.039-40.157-40.211V80.323c0-22.171,16.806-40.121,38.904-40.121h391.706
			c22.098,0,41.233,17.95,41.233,40.121v301.069c0,22.172-20.078,40.211-40.157,40.211v20.078c32.627,0,60.235-27.044,60.235-60.289
			V80.323C512,47.078,483.855,20.123,450.689,20.123z"/>
	</g>
</g>
<g>
	<g>
		<rect x="200.784" y="421.692" width="100.392" height="20.078"/>
	</g>
</g>
<g>
</g>
<g>
</g>
<g>
</g>
<g>
</g>
<g>
</g>
<g>
</g>
<g>
</g>
<g>
</g>
<g>
</g>
<g>
</g>
<g>
</g>
<g>
</g>
<g>
</g>
<g>
</g>
<g>
</g>
</svg>
