<?xml version="1.0" encoding="iso-8859-1"?>
<!-- Generator: Adobe Illustrator 19.0.0, SVG Export Plug-In . SVG Version: 6.00 Build 0)  -->
<svg version="1.1" id="Layer_1" xmlns="http://www.w3.org/2000/svg" xmlns:xlink="http://www.w3.org/1999/xlink" x="0px" y="0px"
	 viewBox="0 0 512 512" style="enable-background:new 0 0 512 512;" xml:space="preserve">
<g>
	<g>
		<path d="M466.324,89.265h-12.448V44.182c0-19.592-16.465-36.289-36.052-37.22l-135.21-6.425c-15.081-0.716-39.789-0.716-54.923,0
			L93.197,6.962c-19.587,0.936-35.073,17.629-35.073,37.22v45.083H43.589c-17.356,0-30.437,14.044-30.437,31.409v62.943
			c0,17.365,13.081,31.569,30.437,31.569h14.535v215.719c0,21.732,13.492,39.916,35.977,44.121v9.911
			c0,14.879,11.052,27.063,25.922,27.063h18.024c14.871,0,28.009-12.184,28.009-27.063v-8.914h179.887v8.914
			c0,14.879,11.052,27.063,25.922,27.063h18.024c14.871,0,28.009-12.184,28.009-27.063v-9.911
			c20.237-4.205,35.977-22.389,35.977-44.121V215.186h12.448c17.356,0,32.523-14.204,32.523-31.569v-62.943
			C498.848,103.309,483.681,89.265,466.324,89.265z M58.124,197.197H43.589c-7.44,0-12.448-6.136-12.448-13.581v-62.943
			c0-7.444,5.009-13.42,12.448-13.42h14.535V197.197z M202.034,19.814l26.908-1.306c7.325-0.351,16.676-0.527,26.285-0.527
			c9.609,0,19.609,0.176,26.917,0.527l27.822,1.306v28.185c0,7.831-9.124,14.283-19.058,14.283h-71.902
			c-9.934,0-16.972-6.453-16.972-14.283V19.814z M148.068,484.937c0,4.958-5.066,9.074-10.02,9.074h-18.024
			c-5.033,0-7.934-4.033-7.934-9.074v-8.914h35.977V484.937z M399.91,484.937c0,4.958-5.066,9.074-10.02,9.074h-18.024
			c-5.033,0-7.934-4.033-7.934-9.074v-8.914h35.977V484.937z M435.887,430.905c0,14.914-13.182,27.129-28.096,27.129h-53.896
			H156.019h-53.896c-14.914,0-26.01-12.215-26.01-27.129v-176.09c26.983,9.711,103.209,32.246,179.365,32.246
			c2.661,0,5.059-0.032,7.714-0.085c0.336,0.038,0.538,0.085,0.881,0.085c0.503,0,1.471-0.058,1.983-0.145
			c72.453-1.909,140.601-22.837,169.832-32.101V430.905z M435.887,98.179v107.932v29.652c-17.989,6.22-75.097,24.667-138.222,31.098
			c6.149-8.098,8.92-17.947,10.351-24.693h72.862c4.972,0,8.994-4.027,8.994-8.994c0-4.967-4.023-8.994-8.994-8.994H272.946
			c-4.971,0-8.994,4.027-8.994,8.994c0,4.967,4.023,8.994,8.994,8.994h16.66c-2.332,8.994-8.786,21.879-26.55,26.851
			c-2.699,0.059-4.877,0.071-7.578,0.071c-78.503,0-159.127-25.741-179.365-33.328v-29.652V98.179V44.182
			c0-10.132,8.257-18.766,18.402-19.249l89.531-4.262v27.328c0,17.752,15.11,32.272,34.961,32.272h71.902
			c19.851,0,37.047-14.52,37.047-32.272V20.671l89.531,4.262c10.145,0.479,18.402,9.117,18.402,19.249V98.179z M480.859,183.617
			c0,7.444-7.095,13.581-14.535,13.581h-12.448v-89.944h12.448c7.44,0,14.535,5.976,14.535,13.42V183.617z"/>
	</g>
</g>
<g>
	<g>
		<path d="M180.367,109.809c-3.513-3.513-9.205-3.513-12.719,0l-44.972,44.972c-3.513,3.513-3.513,9.205,0,12.719
			c1.757,1.757,4.058,2.635,6.359,2.635c2.301,0,4.603-0.879,6.359-2.635l44.972-44.972
			C183.881,119.014,183.881,113.322,180.367,109.809z"/>
	</g>
</g>
<g>
	<g>
		<path d="M225.339,118.803c-3.513-3.513-9.205-3.513-12.719,0l-80.949,80.949c-3.513,3.513-3.513,9.205,0,12.719
			c1.757,1.757,4.058,2.635,6.359,2.635c2.301,0,4.603-0.879,6.359-2.635l80.949-80.949
			C228.852,128.008,228.852,122.316,225.339,118.803z"/>
	</g>
</g>
<g>
	<g>
		<path d="M380.895,341.107h-27.001h-9.012H165.031h-9.012h-27.001c-14.871,0-25.922,12.015-25.922,26.885v18.024
			c0,14.87,11.052,27.046,25.922,27.046h27.001h9.012h179.852h9.012h27.001c14.871,0,28.009-12.175,28.009-27.046v-18.024
			C408.904,353.122,395.766,341.107,380.895,341.107z M175.051,386.016c0,5.033-4.987,9.057-10.02,9.057h-9.012h-27.001
			c-4.954,0-7.934-4.108-7.934-9.057v-18.024c0-5.033,2.901-8.897,7.934-8.897h27.001h9.012c4.954,0,10.02,3.947,10.02,8.897
			V386.016z M318.961,367.992v18.024c0,3.151-0.472,6.808,0.525,9.057H190.426c0.999-2.249,2.613-5.906,2.613-9.057v-18.024
			c0-3.151-1.614-6.648-2.613-8.897h129.059C318.488,361.344,318.961,364.841,318.961,367.992z M390.915,386.016
			c0,5.033-4.987,9.057-10.02,9.057h-27.001h-9.012c-4.954,0-7.934-4.108-7.934-9.057v-18.024c0-5.033,2.901-8.897,7.934-8.897
			h9.012h27.001c4.954,0,10.02,3.947,10.02,8.897V386.016z"/>
	</g>
</g>
<g>
</g>
<g>
</g>
<g>
</g>
<g>
</g>
<g>
</g>
<g>
</g>
<g>
</g>
<g>
</g>
<g>
</g>
<g>
</g>
<g>
</g>
<g>
</g>
<g>
</g>
<g>
</g>
<g>
</g>
</svg>
