<?xml version="1.0" encoding="iso-8859-1"?>
<!-- Generator: Adobe Illustrator 19.0.0, SVG Export Plug-In . SVG Version: 6.00 Build 0)  -->
<svg version="1.1" id="Layer_1" xmlns="http://www.w3.org/2000/svg" xmlns:xlink="http://www.w3.org/1999/xlink" x="0px" y="0px"
	 viewBox="0 0 512 512" style="enable-background:new 0 0 512 512;" xml:space="preserve">
<g>
	<g>
		<path d="M141.119,270.104c-36.313,0-65.855,29.542-65.855,65.855c0,36.313,29.542,65.855,65.855,65.855
			c36.313,0,65.855-29.542,65.855-65.855C206.974,299.646,177.432,270.104,141.119,270.104z M141.119,382.999
			c-25.936,0-47.04-21.104-47.04-47.04c0-25.936,21.104-47.04,47.04-47.04c25.936,0,47.04,21.103,47.04,47.04
			C188.158,361.896,167.055,382.999,141.119,382.999z"/>
	</g>
</g>
<g>
	<g>
		<path d="M376.317,270.104c-36.313,0-65.855,29.542-65.855,65.855c0,36.313,29.542,65.855,65.855,65.855
			c36.313,0,65.855-29.542,65.855-65.855C442.172,299.646,412.63,270.104,376.317,270.104z M376.317,382.999
			c-25.936,0-47.04-21.104-47.04-47.04c0-25.936,21.104-47.04,47.04-47.04c25.936,0,47.04,21.103,47.04,47.04
			C423.356,361.896,402.253,382.999,376.317,382.999z"/>
	</g>
</g>
<g>
	<g>
		<circle cx="141.119" cy="335.952" r="18.816"/>
	</g>
</g>
<g>
	<g>
		<circle cx="376.317" cy="335.952" r="18.816"/>
	</g>
</g>
<g>
	<g>
		<path d="M490.953,236.53c-33.281-41.174-93.284-41.606-95.82-41.606H191.803l24.096-72.328c1.447-4.35-0.446-9.131-4.488-11.295
			c-4.047-2.164-9.05-1.108-11.866,2.512l-63.788,82.008C1.587,226.379,0,334.902,0,336.004c0,5.195,4.212,9.447,9.408,9.447h48.131
			v-18.816H19.758c3.849-25.872,23.387-91.727,122.367-112.895h36.568c0.02,0,0.038,0.005,0.057,0.005s0.039-0.005,0.059-0.005
			h216.31c0.533,0,53.723,0.56,81.272,34.742c15.306,18.995,20.162,45.225,14.47,78.153h-38.19v18.816h45.949
			c4.438,0,8.269-3.121,9.201-7.458C516.875,295.727,511.202,261.575,490.953,236.53z M171.968,194.924h-11.613l20.325-26.134
			L171.968,194.924z"/>
	</g>
</g>
<g>
	<g>
		<rect x="226.872" y="326.638" width="65.855" height="18.816"/>
	</g>
</g>
<g>
</g>
<g>
</g>
<g>
</g>
<g>
</g>
<g>
</g>
<g>
</g>
<g>
</g>
<g>
</g>
<g>
</g>
<g>
</g>
<g>
</g>
<g>
</g>
<g>
</g>
<g>
</g>
<g>
</g>
</svg>
