<?xml version="1.0" encoding="iso-8859-1"?>
<!-- Generator: Adobe Illustrator 19.0.0, SVG Export Plug-In . SVG Version: 6.00 Build 0)  -->
<svg version="1.1" id="Layer_1" xmlns="http://www.w3.org/2000/svg" xmlns:xlink="http://www.w3.org/1999/xlink" x="0px" y="0px"
	 viewBox="0 0 512 512" style="enable-background:new 0 0 512 512;" xml:space="preserve">
<g>
	<g>
		<path d="M408.31,339.575c-25.613,0-46.453,20.84-46.453,46.453c0,25.613,20.841,46.453,46.453,46.453
			c25.613,0,46.453-20.841,46.453-46.453C454.764,360.415,433.923,339.575,408.31,339.575z M408.31,413.9
			c-15.37,0-27.872-12.503-27.872-27.872c0-15.37,12.503-27.872,27.872-27.872s27.872,12.502,27.872,27.872
			C436.182,401.398,423.68,413.9,408.31,413.9z"/>
	</g>
</g>
<g>
	<g>
		<path d="M73.846,339.575c-25.613,0-46.453,20.84-46.453,46.453c0,25.613,20.841,46.453,46.453,46.453
			c25.613,0,46.453-20.841,46.453-46.453C120.299,360.415,99.459,339.575,73.846,339.575z M73.846,413.9
			c-15.37,0-27.872-12.503-27.872-27.872c0-15.37,12.503-27.872,27.872-27.872s27.872,12.502,27.872,27.872
			C101.718,401.398,89.215,413.9,73.846,413.9z"/>
	</g>
</g>
<g>
	<g>
		<path d="M510.435,291.969c-0.254-2.051-1.188-3.956-2.649-5.417l-63.379-63.379C423.539,156.478,325.098,84.33,320.87,81.256
			c-1.588-1.157-3.502-1.737-5.466-1.737H73.846c-3.221,0-6.21,1.628-7.902,4.364c-1.692,2.739-1.846,6.139-0.408,9.02l7.145,14.28
			L1.152,242.3c-0.717,1.346-0.555,2.843-0.555,4.368v92.857L0,350.072c-0.023,4.246,2.565,7.966,6.677,9.041
			c4.118,1.066,8.293-0.785,10.339-4.496c11.468-20.741,33.226-33.624,56.897-33.624c35.861,0,65.002,29.174,65.002,65.035
			c0,2.758-0.191,5.471-0.521,8.138c-0.331,2.645,0.766,5.345,2.531,7.341c1.765,2,4.583,3.185,7.246,3.185h186.39
			c2.663,0,5.203-1.184,6.963-3.185c1.765-1.996,2.586-4.676,2.255-7.321c-0.331-2.668-0.504-5.39-0.504-8.149
			c0-35.861,29.174-65.039,65.035-65.039c35.861,0,65.035,29.171,65.035,65.031c0,2.758-0.172,5.47-0.504,8.137
			c-0.331,2.645,0.776,5.302,2.541,7.299c1.765,2,4.591,3.143,7.254,3.143c2.463,0,4.827-0.98,6.569-2.722
			C519.939,371.157,510.839,295.19,510.435,291.969z M488.81,363.387c-9.894-35.144-42.234-60.933-80.5-60.933
			c-46.104,0-83.616,37.204-83.616,83.657H157.462c0-46.453-36.973-83.657-83.077-83.657c-20.877,0-41.269,7.752-55.206,21.252
			v-74.715l72.694-137.31c1.415-2.659,1.191-5.792-0.157-8.488L88.88,98.1h223.444c15.261,11.613,98.954,76.684,114.927,132.583
			c0.431,1.514,1.247,2.877,2.364,3.993l62.735,62.729C493.868,312.266,494.694,340.763,488.81,363.387z"/>
	</g>
</g>
<g>
	<g>
		<path d="M134.512,127.3c-4.342-2.722-10.076-1.402-12.802,2.958l-46.453,74.326c-2.718,4.351-1.397,10.08,2.958,12.802
			c1.529,0.957,3.23,1.411,4.913,1.411c3.098,0,6.124-1.547,7.889-4.369l46.453-74.325
			C140.187,135.751,138.867,130.022,134.512,127.3z"/>
	</g>
</g>
<g>
	<g>
		<path d="M396.634,221.892l-83.616-92.885c-1.76-1.961-4.269-3.035-6.905-3.035h-130.07c-3.52,0-6.737,1.945-8.311,5.093
			L130.57,205.37c-1.384,2.772-1.297,6.042,0.231,8.736c1.533,2.69,4.305,4.441,7.394,4.668l250.848,18.578
			c0.231,0.018,0.458,0.026,0.69,0.026c3.52,0,6.768-2.001,8.338-5.199C399.741,228.773,399.174,224.715,396.634,221.892z
			 M153.388,201.303l28.398-56.75h120.189l65.379,72.622L153.388,201.303z"/>
	</g>
</g>
<g>
</g>
<g>
</g>
<g>
</g>
<g>
</g>
<g>
</g>
<g>
</g>
<g>
</g>
<g>
</g>
<g>
</g>
<g>
</g>
<g>
</g>
<g>
</g>
<g>
</g>
<g>
</g>
<g>
</g>
</svg>
