<?xml version="1.0" encoding="iso-8859-1"?>
<!-- Generator: Adobe Illustrator 19.0.0, SVG Export Plug-In . SVG Version: 6.00 Build 0)  -->
<svg version="1.1" id="Layer_1" xmlns="http://www.w3.org/2000/svg" xmlns:xlink="http://www.w3.org/1999/xlink" x="0px" y="0px"
	 viewBox="0 0 512 512" style="enable-background:new 0 0 512 512;" xml:space="preserve">
<g>
	<g>
		<path d="M510.967,156.926c-8.795-32.825-93.806-81.695-171.69-60.826c-47.505,12.729-77.953,45.43-91.873,63.789
			c-20.842,27.479-31.203,56.818-26.398,74.732c4.8,17.919,28.441,38.143,60.23,51.523c14.905,6.275,40.401,14.598,70.706,14.598
			c12.862,0,26.599-1.503,40.753-5.295c47.203-12.647,77.719-45.898,91.708-64.591C504.829,203.561,515.502,173.851,510.967,156.926
			z M469.384,219.616c-12.537,16.751-39.801,46.525-81.544,57.711c-42.114,11.273-80.307-0.467-99.326-8.474
			c-28.491-11.992-46.708-29.091-49.388-39.086c-2.68-10,4.549-33.915,23.224-58.54c12.473-16.449,39.677-45.724,81.782-57.006
			c11.914-3.193,23.778-4.576,35.307-4.576c58.902,0,109.124,36.159,113.406,52.136C495.013,169.88,489.168,193.172,469.384,219.616
			z"/>
	</g>
</g>
<g>
	<g>
		<path d="M323.772,317.728c-28.45,0-51.596,23.146-51.596,51.596c0,28.45,23.146,51.596,51.596,51.596
			c28.45,0,51.596-23.146,51.596-51.596C375.368,340.874,352.222,317.728,323.772,317.728z M323.772,402.158
			c-18.102,0-32.834-14.731-32.834-32.834c0-18.103,14.731-32.834,32.834-32.834c18.103,0,32.834,14.731,32.834,32.834
			C356.605,387.426,341.874,402.158,323.772,402.158z"/>
	</g>
</g>
<g>
	<g>
		<path d="M108.007,317.728c-28.45,0-51.596,23.146-51.596,51.596c0,28.45,23.146,51.596,51.596,51.596
			c28.45,0,51.596-23.146,51.596-51.596C159.603,340.874,136.458,317.728,108.007,317.728z M108.007,402.158
			c-18.102,0-32.834-14.731-32.834-32.834c0-18.103,14.731-32.834,32.834-32.834c18.103,0,32.834,14.731,32.834,32.834
			C140.841,387.426,126.11,402.158,108.007,402.158z"/>
	</g>
</g>
<g>
	<g>
		<path d="M445.726,317.728c-28.45,0-51.596,23.146-51.596,51.596c0,28.45,23.146,51.596,51.596,51.596
			c28.45,0,51.596-23.146,51.596-51.596C497.321,340.874,474.176,317.728,445.726,317.728z M445.726,402.158
			c-18.102,0-32.834-14.731-32.834-32.834c0-18.103,14.731-32.834,32.834-32.834c18.103,0,32.834,14.731,32.834,32.834
			C478.559,387.426,463.828,402.158,445.726,402.158z"/>
	</g>
</g>
<g>
	<g>
		<path d="M205.615,374.098l-17.915-179.175c-0.481-4.796-4.517-8.447-9.335-8.447H56.412c-1.759,0-3.481,0.454-4.97,1.383
			C-28.568,237.866,8.219,379.858,9.822,385.877c1.095,4.104,4.814,6.983,9.065,6.983h29.231v-18.762H26.326
			c-6.019-28.143-23.805-131.335,32.861-168.859h110.69l17.915,179.175c0.481,4.796,4.516,8.447,9.335,8.447h57.374v-18.762H205.615
			z"/>
	</g>
</g>
<g>
	<g>
		<path d="M85.643,224.001v37.524H48.118v18.762h45.817c5.181,0,10.469-4.284,10.469-9.464v-46.822H85.643z"/>
	</g>
</g>
<g>
</g>
<g>
</g>
<g>
</g>
<g>
</g>
<g>
</g>
<g>
</g>
<g>
</g>
<g>
</g>
<g>
</g>
<g>
</g>
<g>
</g>
<g>
</g>
<g>
</g>
<g>
</g>
<g>
</g>
</svg>
