<?xml version="1.0" encoding="iso-8859-1"?>
<!-- Generator: Adobe Illustrator 19.0.0, SVG Export Plug-In . SVG Version: 6.00 Build 0)  -->
<svg version="1.1" id="Layer_1" xmlns="http://www.w3.org/2000/svg" xmlns:xlink="http://www.w3.org/1999/xlink" x="0px" y="0px"
	 viewBox="0 0 512 512" style="enable-background:new 0 0 512 512;" xml:space="preserve">
<g>
	<g>
		<path d="M215.116,36.461c-15.4-18.056-36.899-29.305-61.58-32.537c-1.338-0.618-2.831-0.914-4.401-0.914h-10.557
			c-1.544,0-3.011,0.286-4.334,0.883C77.262,10.975,25.801,57.698,15.363,114.305c-2.857,7.958-9.27,37.008-13.799,141.164
			C-2.791,355.602,2.917,387.2,6.932,397.164c8.276,56.968,58.862,103.951,116.865,110.899c1.297,0.566,2.733,0.927,4.241,0.927
			h10.557c1.565,0,3.047-0.383,4.38-0.991c25.133-3.253,47.153-14.805,63.047-33.294c18.936-22.009,26.796-51.121,22.132-81.962
			c-0.185-1.215-0.309-1.848-0.896-2.929c-0.376-0.896-9.141-23.206-4.349-133.449c4.885-112.276,12.584-134.391,12.785-134.968
			c0.35-0.803,0.597-1.657,0.731-2.522C241.408,87.664,233.842,58.408,215.116,36.461z M215.744,114.686
			c-2.223,6.907-9.362,36.503-13.897,140.77c-4.452,102.358,2.548,133.228,5.631,141.617c3.361,24.222-2.81,46.862-17.438,63.868
			c-13.856,16.11-33.858,25.489-56.742,26.731c-51.42-2.746-99.149-45.055-105.68-94.83c-0.175-1.318-0.592-2.581-1.23-3.734
			c-0.808-2.008-8.477-24.287-3.762-132.744c4.972-114.392,12.26-134.165,12.26-134.311c0.51-0.965,0.87-2.015,1.055-3.086
			c8.863-50.619,56.603-92.115,107.868-94.82c22.447,1.212,41.928,10.335,55.27,25.972
			C213.562,67.096,219.466,90.001,215.744,114.686z"/>
	</g>
</g>
<g>
	<g>
		<path d="M510.437,255.457c-4.529-104.154-10.943-133.215-13.799-141.175C486.194,57.677,434.733,10.985,377.755,3.892
			c-1.323-0.597-2.79-0.883-4.334-0.883h-10.562c-1.57,0-3.063,0.296-4.406,0.914c-24.675,3.232-46.17,14.492-61.57,32.537
			c-18.725,21.947-26.292,51.214-21.309,82.426c0.103,0.679,0.371,1.57,0.607,2.208c0.324,0.885,8.024,22.995,12.909,135.271
			c4.792,110.243-3.974,132.548-4.076,132.898c-0.592,1.081-0.983,2.254-1.169,3.469c-4.663,30.841,3.196,59.943,22.132,81.952
			c15.894,18.488,37.909,30.051,63.037,33.315c1.338,0.607,2.821,0.991,4.385,0.991h10.562c1.508,0,2.944-0.363,4.241-0.929
			c58.003-6.959,108.589-53.924,116.865-110.882C509.083,387.215,514.791,355.589,510.437,255.457z M485.612,389.109
			c-0.638,1.153-1.055,2.417-1.23,3.734c-6.532,49.775-54.261,92.084-105.68,94.83c-22.884-1.243-42.886-10.621-56.742-26.731
			c-14.628-17.006-20.799-39.646-17.438-63.868c3.083-8.39,10.083-39.259,5.631-141.617
			c-4.535-104.267-11.674-133.863-13.897-140.771c-3.721-24.686,2.182-47.59,16.666-64.565
			c13.341-15.637,32.818-24.75,55.264-25.972c51.265,2.715,99.005,44.201,107.873,94.82c0.185,1.078,0.237,1.472,0.746,2.437
			c0.309,0.795,7.597,20.568,12.569,134.96C494.09,364.822,486.42,387.102,485.612,389.109z"/>
	</g>
</g>
<g>
	<g>
		<path d="M148.168,117.898l9.656-38.634c1.41-5.644-2.023-11.365-7.669-12.775c-5.61-1.4-11.37,2.005-12.785,7.669l-8.606,34.421
			c-1.989-0.435-4.127-0.304-6.166,0.507c-31.799,12.724-53.484,33.024-64.452,60.334c-20.779,51.757,4.962,109.5,6.068,111.939
			c1.765,3.881,5.595,6.177,9.599,6.177c1.462,0,2.944-0.299,4.354-0.95c5.301-2.406,7.643-8.655,5.235-13.956
			c-0.232-0.517-23.147-51.872-5.693-95.355c8.684-21.626,26.26-37.906,52.23-48.403c44.354,103.65-8.523,159.344-10.909,161.784
			c-4.087,4.118-4.077,10.765,0.031,14.872c2.059,2.062,4.756,3.091,7.453,3.091c2.697,0,5.394-1.029,7.453-3.091
			C136.736,302.761,200.54,236.971,148.168,117.898z"/>
	</g>
</g>
<g>
	<g>
		<path d="M447.874,169.421c-10.969-27.311-32.653-47.611-64.452-60.334c-2.043-0.818-4.181-0.955-6.17-0.517l-8.602-34.411
			c-1.415-5.664-7.144-9.069-12.786-7.669c-5.646,1.41-9.079,7.131-7.669,12.775l9.656,38.634
			c-52.372,119.073,11.432,184.863,14.201,187.63c2.059,2.062,4.756,3.091,7.453,3.091c2.697,0,5.394-1.029,7.453-3.091
			c4.118-4.118,4.118-10.786,0-14.903c-0.571-0.579-55.527-57.3-10.879-161.753c25.929,10.487,43.489,26.726,52.184,48.3
			c17.459,43.297-5.42,94.954-5.657,95.479c-2.388,5.301-0.041,11.54,5.26,13.936c1.41,0.638,2.888,0.95,4.344,0.95
			c4.005,0,7.834-2.296,9.594-6.177C442.912,278.92,468.653,221.177,447.874,169.421z"/>
	</g>
</g>
<g>
</g>
<g>
</g>
<g>
</g>
<g>
</g>
<g>
</g>
<g>
</g>
<g>
</g>
<g>
</g>
<g>
</g>
<g>
</g>
<g>
</g>
<g>
</g>
<g>
</g>
<g>
</g>
<g>
</g>
</svg>
