<?xml version="1.0" encoding="iso-8859-1"?>
<!-- Generator: Adobe Illustrator 19.0.0, SVG Export Plug-In . SVG Version: 6.00 Build 0)  -->
<svg version="1.1" id="Layer_1" xmlns="http://www.w3.org/2000/svg" xmlns:xlink="http://www.w3.org/1999/xlink" x="0px" y="0px"
	 viewBox="0 0 512 512" style="enable-background:new 0 0 512 512;" xml:space="preserve">
<g>
	<g>
		<path d="M116.87,0H27.826c-6.147,0-11.13,4.984-11.13,11.13v55.652c0,6.147,4.984,11.13,11.13,11.13h89.043
			c6.147,0,11.13-4.984,11.13-11.13V11.13C128,4.984,123.016,0,116.87,0z M105.739,55.652H38.957V22.261h66.783V55.652z"/>
	</g>
</g>
<g>
	<g>
		<path d="M428.522,179.091v-79.016c0-6.147-6.274-11.031-12.421-11.031h-56.598c-5.315-30.609-32.804-55.652-65.837-55.652
			c-33.033,0-60.522,25.043-65.837,55.652H26.535c-6.147,0-9.84,4.885-9.84,11.031v400.696c0,6.146,3.693,11.229,9.84,11.229H416.1
			c6.147,0,12.421-5.083,12.421-11.229V399.493c36.174-7.501,66.783-53.2,66.783-110.201
			C495.304,232.291,464.696,186.592,428.522,179.091z M293.666,55.652c20.7,0,38.094,13.913,43.057,33.391h-86.114
			C255.571,69.565,272.966,55.652,293.666,55.652z M406.261,489.739H38.957V111.304h367.304V489.739z M428.522,376.459V202.125
			c25.044,8.513,44.522,44.978,44.522,87.167C473.043,331.481,453.565,367.946,428.522,376.459z"/>
	</g>
</g>
<g>
	<g>
		<path d="M178.475,269.71c-61.82-52.989-63.467-74.788-63.44-77.147c1.478-4.538-0.103-9.609-4.082-12.473
			c-4.424-3.212-10.527-2.701-14.375,1.158c-3.978,3.973-37.196,42.479,20,168.299c26.244,57.744,54.256,90.777,83.261,98.195
			c4.321,1.103,8.299,1.544,11.897,1.544c12.831,0,20.755-5.592,21.826-6.397c2.044-1.533,3.5-3.723,4.12-6.201
			C238.66,432.781,260.666,340.162,178.475,269.71z M217.062,426.325c-2.543,0.68-6.543,1.163-11.712-0.147
			c-12.462-3.19-37.935-18.576-68.511-85.837c-25.826-56.821-31.636-93.022-31.158-114.832
			c10.326,15.304,28.196,35.299,58.304,61.103C226.204,339.944,220.209,407.493,217.062,426.325z"/>
	</g>
</g>
<g>
	<g>
		<path d="M189.487,147.178c-3.103-2.593-7.37-3.272-11.12-1.842c-3.766,1.451-6.451,4.821-7.022,8.815l-11.13,77.913
			c-0.87,6.087,3.359,11.723,9.44,12.592c6.044,0.815,11.723-3.353,12.592-9.44l8.109-56.745
			c19.076,19.701,42.799,50.973,36.859,74.728c-1.489,5.967,2.136,12.011,8.098,13.5c0.908,0.228,1.815,0.332,2.712,0.332
			c4.984,0,9.522-3.375,10.788-8.429C261.274,208.738,196.872,153.33,189.487,147.178z"/>
	</g>
</g>
<g>
	<g>
		<path d="M304.226,241.249c-1.288-3.864-4.592-6.717-8.603-7.435c-4.033-0.755-8.109,0.815-10.647,4.005l-44.522,55.652
			c-3.843,4.799-3.065,11.804,1.739,15.641c4.788,3.837,11.799,3.065,15.641-1.739l30.429-38.033
			c5.924,30.701,10.723,87.929-24.728,123.386c-4.348,4.348-4.348,11.391,0,15.739c2.174,2.174,5.022,3.261,7.87,3.261
			c2.848,0,5.696-1.087,7.87-3.261C339.106,348.64,305.677,245.607,304.226,241.249z"/>
	</g>
</g>
<g>
</g>
<g>
</g>
<g>
</g>
<g>
</g>
<g>
</g>
<g>
</g>
<g>
</g>
<g>
</g>
<g>
</g>
<g>
</g>
<g>
</g>
<g>
</g>
<g>
</g>
<g>
</g>
<g>
</g>
</svg>
