<?xml version="1.0" encoding="iso-8859-1"?>
<!-- Generator: Adobe Illustrator 19.0.0, SVG Export Plug-In . SVG Version: 6.00 Build 0)  -->
<svg version="1.1" id="Layer_1" xmlns="http://www.w3.org/2000/svg" xmlns:xlink="http://www.w3.org/1999/xlink" x="0px" y="0px"
	 viewBox="0 0 512 512" style="enable-background:new 0 0 512 512;" xml:space="preserve">
<g>
	<g>
		<path d="M425.44,416H416V10.572C416,4.681,409.987,0,404.096,0H137.43C131.539,0,128,4.681,128,10.572v360.867
			c-32-11.306-32-72.202-32-72.867V127.905v-8.151l30.257-61.745c2.635-5.271,0.19-11.677-5.081-14.313
			c-5.286-2.635-11.832-0.447-14.467,4.819l-29.206,58.151H42.667V128h32v170.572c0,3.688,0,85.295,53.333,95.033V416h-11.914
			c-23.521,0-41.419,19.087-41.419,42.671v10.469c0,23.583,17.898,42.861,41.419,42.861H425.44
			c23.521,0,43.893-19.277,43.893-42.861v-10.469C469.333,435.087,448.961,416,425.44,416z M149.333,21.333h245.333V416H149.333
			V21.333z M448,469.139L448,469.139c0,11.818-10.805,21.527-22.56,21.527H116.086c-11.755,0-20.086-9.71-20.086-21.527v-10.469
			c0-11.818,8.331-21.337,20.086-21.337h21.344h266.667h21.344c11.755,0,22.56,9.519,22.56,21.337V469.139z"/>
	</g>
</g>
<g>
	<g>
		<path d="M362.667,53.333H181.333c-5.891,0-10.667,4.776-10.667,10.667v74.667c0,5.891,4.776,10.667,10.667,10.667h181.333
			c5.891,0,10.667-4.776,10.667-10.667V64C373.333,58.109,368.557,53.333,362.667,53.333z M352,128H192V74.667h160V128z"/>
	</g>
</g>
<g>
	<g>
		<rect x="181.333" y="192" width="21.333" height="53.333"/>
	</g>
</g>
<g>
	<g>
		<rect x="341.333" y="192" width="21.333" height="53.333"/>
	</g>
</g>
<g>
</g>
<g>
</g>
<g>
</g>
<g>
</g>
<g>
</g>
<g>
</g>
<g>
</g>
<g>
</g>
<g>
</g>
<g>
</g>
<g>
</g>
<g>
</g>
<g>
</g>
<g>
</g>
<g>
</g>
</svg>
