<?xml version="1.0" encoding="iso-8859-1"?>
<!-- Generator: Adobe Illustrator 19.0.0, SVG Export Plug-In . SVG Version: 6.00 Build 0)  -->
<svg version="1.1" id="Layer_1" xmlns="http://www.w3.org/2000/svg" xmlns:xlink="http://www.w3.org/1999/xlink" x="0px" y="0px"
	 viewBox="0 0 512 512" style="enable-background:new 0 0 512 512;" xml:space="preserve">
<g>
	<g>
		<path d="M493.098,500.478l-37.23-158.187c-0.991-4.205-4.745-7.135-9.062-7.135H271.041v-93.552
			c60.499-4.773,111.151-57.019,111.151-120.605C382.192,54.277,327.644,0,260.923,0C194.202,0,140.33,54.277,140.33,120.999
			c0,63.586,49.269,115.832,112.095,120.605v93.552H65.194c-4.317,0-8.071,2.93-9.062,7.135l-37.23,158.207
			c-0.65,2.768,0,5.713,1.768,7.944c1.763,2.227,4.449,3.557,7.294,3.557h456.072c2.845,0,5.531-1.341,7.294-3.568
			C493.098,506.201,493.748,503.246,493.098,500.478z M358.841,353.771h80.593l16.67,70.809l-117.439-39.126L358.841,353.771z
			 M158.27,120.999c0-56.455,45.929-102.383,102.383-102.383c56.455,0,102.383,45.929,102.383,102.383
			c0,56.454-45.929,102.383-102.383,102.383C204.199,223.382,158.27,177.453,158.27,120.999z M159.35,493.385H39.717l21.444-88.888
			l98.189,56.92V493.385z M65.08,385.55l7.486-31.779h179.86v27.923h18.615v-27.923h65.731l-50.286,78.982l-57.005-48.881
			c-3.895-3.336-9.776-2.896-13.125,0.999l-50.792,59.254L65.08,385.55z M177.965,493.385L177.965,493.385v-33.87l47.007-55.472
			l57.815,49.787c2.05,1.754,4.629,2.531,7.292,2.141c2.671-0.4,4.967-1.936,6.417-4.208l31.899-50.18l132.734,44.292l11.153,47.511
			H177.965z"/>
	</g>
</g>
<g>
</g>
<g>
</g>
<g>
</g>
<g>
</g>
<g>
</g>
<g>
</g>
<g>
</g>
<g>
</g>
<g>
</g>
<g>
</g>
<g>
</g>
<g>
</g>
<g>
</g>
<g>
</g>
<g>
</g>
</svg>
