<?xml version="1.0" encoding="iso-8859-1"?>
<!-- Generator: Adobe Illustrator 19.0.0, SVG Export Plug-In . SVG Version: 6.00 Build 0)  -->
<svg version="1.1" id="Layer_1" xmlns="http://www.w3.org/2000/svg" xmlns:xlink="http://www.w3.org/1999/xlink" x="0px" y="0px"
	 viewBox="0 0 512 512" style="enable-background:new 0 0 512 512;" xml:space="preserve">
<g>
	<g>
		<polygon points="325.649,137.582 325.649,117.846 256.572,117.846 256.572,137.582 167.759,137.582 167.759,157.318 
			424.331,157.318 424.331,137.582 		"/>
	</g>
</g>
<g>
	<g>
		<path d="M417.732,256.953c-2.467-1.234-60.968-30.308-111.026-40.321c-4.052-0.805-8.105,0.954-10.287,4.414
			c-2.178,3.46-2,7.912,0.458,11.184l29.604,39.517c1.86,2.486,4.785,3.99,7.893,3.99h78.945c4.578,0,8.553-3.19,9.603-7.642
			C423.972,263.637,421.823,259.001,417.732,256.953z M339.307,256l-9.805-13.077c12.841,3.922,25.557,8.143,36.929,13.077H339.307z
			"/>
	</g>
</g>
<g>
	<g>
		<path d="M511.041,301.013c-1.547-3.253-38.919-79.855-129.279-110.201c-71.38-23.967-154.522-11.29-247.147,35.584H61.524
			l-38.928-31.185c-7.266-5.806-12.963-3.83-15.329-2.688C4.911,193.655,0,197.272,0,206.547v69.125c0,10.871,7.75,19.8,18.683,19.8
			h19.553c8.134,0,18.194-4.192,23.919-9.912l1.643-1.221c2.028-2.024,7.021-3.669,9.892-3.669h53.547
			c1.783,0,5.016,1.498,5.864,3.074l24.81,46.17c1.72,3.204,5.064,5.031,8.702,5.031h325.649c3.739,0,7.155-2.154,8.828-5.498
			l9.868-19.759C512.318,306.97,512.347,303.754,511.041,301.013z M486.164,315.209H172.527l-22.03-40.74
			c-4.255-7.946-14.253-13.535-23.259-13.535H73.691c-8.1,0-18.127,3.71-23.846,9.429l-1.638,1.417
			c-1.99,1.99-7.117,3.98-9.969,3.98l-19.645-0.031l0.005-58.461l33.305,26.671c1.749,1.402,3.922,2.194,6.163,2.194h78.945
			c1.581,0,3.137-0.424,4.544-1.152c88.418-45.853,167.012-57.854,233.627-35.583c70.952,23.707,106.984,80.328,115.845,96.055
			L486.164,315.209z"/>
	</g>
</g>
<g>
	<g>
		<polygon points="444.067,374.418 444.067,354.682 424.331,354.682 424.331,374.418 256.572,374.418 256.572,354.682 
			236.836,354.682 236.836,374.418 177.627,374.418 177.627,394.154 493.408,394.154 493.408,374.418 		"/>
	</g>
</g>
<g>
</g>
<g>
</g>
<g>
</g>
<g>
</g>
<g>
</g>
<g>
</g>
<g>
</g>
<g>
</g>
<g>
</g>
<g>
</g>
<g>
</g>
<g>
</g>
<g>
</g>
<g>
</g>
<g>
</g>
</svg>
