<?xml version="1.0" encoding="iso-8859-1"?>
<!-- Generator: Adobe Illustrator 19.0.0, SVG Export Plug-In . SVG Version: 6.00 Build 0)  -->
<svg version="1.1" id="Layer_1" xmlns="http://www.w3.org/2000/svg" xmlns:xlink="http://www.w3.org/1999/xlink" x="0px" y="0px"
	 viewBox="0 0 512 512" style="enable-background:new 0 0 512 512;" xml:space="preserve">
<g>
	<g>
		<circle cx="256" cy="256" r="21.333"/>
	</g>
</g>
<g>
	<g>
		<path d="M384.873,128.582c-0.219-0.267-0.405-0.552-0.654-0.801c-0.25-0.25-0.535-0.435-0.802-0.655
			C350.642,94.719,305.625,74.667,256,74.667c-49.626,0-94.643,20.052-127.418,52.459c-0.267,0.22-0.552,0.405-0.801,0.655
			c-0.25,0.249-0.435,0.534-0.655,0.801C94.719,161.357,74.667,206.375,74.667,256c0,49.609,20.039,94.614,52.43,127.387
			c0.229,0.28,0.424,0.577,0.685,0.837c0.26,0.262,0.559,0.457,0.839,0.685c32.772,32.387,77.773,52.425,127.38,52.425
			c49.606,0,94.607-20.038,127.379-52.425c0.28-0.228,0.578-0.423,0.84-0.685c0.26-0.26,0.456-0.557,0.683-0.837
			c32.391-32.772,52.431-77.777,52.431-127.387C437.333,206.375,417.281,161.357,384.873,128.582z M415.604,245.428h-74.961
			c-1.95-16-8.096-29.863-17.276-41.665l52.978-52.954C398.807,176.458,413.215,208.095,415.604,245.428z M267.904,96.394
			c34.667,2.391,68.637,16.797,94.286,39.26l-53.288,52.978c-11.802-9.181-27.665-15.326-40.999-17.276V96.394z M246.57,96.394
			v74.962c-16,1.951-30.434,8.095-42.236,17.276l-52.669-52.978C177.315,113.191,209.237,98.785,246.57,96.394z M135.655,150.785
			l52.978,53.003c-9.181,11.801-15.327,25.641-17.276,41.641H96.395C98.785,208.095,113.191,176.435,135.655,150.785z
			 M96.395,266.762h74.962c1.949,16,8.095,29.768,17.276,41.57l-52.977,53.004C113.193,335.686,98.785,304.095,96.395,266.762z
			 M246.57,415.605c-37.333-2.391-69.253-16.797-94.902-39.258l52.667-52.98c11.802,9.181,26.236,15.325,42.236,17.276V415.605z
			 M192,256c0-35.292,28.709-64,64-64c35.292,0,64,28.708,64,64c0,35.291-28.708,64-64,64C220.709,320,192,291.291,192,256z
			 M267.904,415.605v-74.962c13.333-1.951,29.197-8.095,40.999-17.276l53.285,52.98C336.538,398.809,302.57,413.215,267.904,415.605
			z M376.343,361.312l-52.975-52.957c9.18-11.802,15.326-25.594,17.276-41.594h74.961
			C413.215,304.095,398.807,335.663,376.343,361.312z"/>
	</g>
</g>
<g>
	<g>
		<path d="M501.333,245.428h-21.604c-2.533-53.333-24.07-102.629-58.048-139.978l15.34-15.359c4.167-4.161,4.167-10.928,0-15.095
			c-4.167-4.167-10.917-4.172-15.083-0.005l-14.721,15.332c-37.349-33.979-85.979-55.519-139.313-58.052V10.667
			C267.904,4.776,263.128,0,257.237,0c-5.891,0-10.667,4.776-10.667,10.667v21.604c-56,2.533-103.202,24.07-140.55,58.05
			l-15.65-15.336c-4.167-4.167-11.07-4.167-15.237,0c-4.167,4.167-4.245,10.922-0.078,15.083l15.301,15.383
			c-33.978,37.349-55.553,86.644-58.086,139.978H10.667C4.776,245.428,0,250.204,0,256.095c0,5.891,4.776,10.667,10.667,10.667
			h21.604c2.533,53.333,24.069,102.534,58.048,139.883l-15.34,15.316c-4.167,4.167-4.167,10.905,0,15.072
			c2.083,2.083,4.813,3.12,7.542,3.12c2.729,0,5.458-1.046,7.542-3.129l15.958-15.341c37.349,33.979,84.55,55.514,140.55,58.047
			v21.604c0,5.89,4.776,10.667,10.667,10.667s10.667-4.776,10.667-10.667v-21.604c53.333-2.533,101.963-24.069,139.311-58.048
			l15.031,15.34c2.083,2.083,4.659,3.125,7.388,3.125c2.728,0,5.38-1.042,7.464-3.125c4.167-4.167,4.127-10.917-0.039-15.083
			l-15.359-15.293c33.979-37.349,55.498-86.55,58.03-139.883h21.604c5.891,0,10.667-4.776,10.667-10.667
			S507.224,245.428,501.333,245.428z M256,458.667C144.25,458.667,53.333,367.75,53.333,256C53.333,144.25,144.25,53.333,256,53.333
			c111.75,0,202.667,90.917,202.667,202.667C458.667,367.75,367.75,458.667,256,458.667z"/>
	</g>
</g>
<g>
</g>
<g>
</g>
<g>
</g>
<g>
</g>
<g>
</g>
<g>
</g>
<g>
</g>
<g>
</g>
<g>
</g>
<g>
</g>
<g>
</g>
<g>
</g>
<g>
</g>
<g>
</g>
<g>
</g>
</svg>
