<?xml version="1.0" encoding="iso-8859-1"?>
<!-- Generator: Adobe Illustrator 19.0.0, SVG Export Plug-In . SVG Version: 6.00 Build 0)  -->
<svg version="1.1" id="Layer_1" xmlns="http://www.w3.org/2000/svg" xmlns:xlink="http://www.w3.org/1999/xlink" x="0px" y="0px"
	 viewBox="0 0 512 512" style="enable-background:new 0 0 512 512;" xml:space="preserve">
<g>
	<g>
		<path d="M280.048,24.047c-78.633,0-225.905,45.483-268.213,108.325c-6.712,9.976-10.568,20.682-11.788,32.729
			c-0.268,2.667,0.601,5.359,2.395,7.346c1.794,1.989,4.345,3.163,7.026,3.163h49.75c-19.95,33.136-30.057,72.145-30.057,113.567
			c0,29.639,5.578,58.231,16.554,85.255c-2.915,0.335-5.543,1.992-7.059,4.551c-1.711,2.875-1.775,6.43-0.176,9.36
			c26.858,49.257,76.553,99.609,241.567,99.609C407.951,487.953,512,383.898,512,256C512,128.102,407.951,24.047,280.048,24.047z
			 M81.554,175.61h127.433c47.013,0,86.36,38.16,86.36,85.164v28.319c0,47.004-39.347,85.333-86.36,85.333H66.269
			c-12.061-26.035-18.172-55.443-18.172-85.207C48.097,247.294,59.369,208.746,81.554,175.61z M280.048,469.058
			c-85.706,0-170.626-9.426-216.336-75.698h145.275c57.452,0,105.295-46.82,105.295-104.268v-28.319
			c0-57.447-47.843-104.099-105.295-104.099H76.645h-0.012H20.98c1.479-4.734,3.661-9.361,6.564-13.688
			c38.406-57.036,179.65-99.985,252.505-99.985c117.455,0,213.017,95.568,213.017,213.027
			C493.065,373.49,397.503,469.058,280.048,469.058z"/>
	</g>
</g>
<g>
	<g>
		<path d="M100.685,205.518c-4.373-2.912-10.244-1.729-13.129,2.626c-20.294,30.436-20.525,60.78-20.525,62.056
			c0,5.228,4.235,9.467,9.467,9.467c5.233,0,9.467-4.239,9.467-9.467c0-0.254,0.194-25.832,17.345-51.553
			C106.214,214.297,105.04,208.417,100.685,205.518z"/>
	</g>
</g>
<g>
	<g>
		<path d="M398.391,232.33c-31.324,0-56.805,25.481-56.805,56.805c0,31.324,25.481,56.805,56.805,56.805
			c31.324,0,56.805-25.481,56.805-56.805C455.195,257.811,429.715,232.33,398.391,232.33z M398.391,327.004
			c-20.886,0-37.87-16.989-37.87-37.87c0-20.881,16.984-37.87,37.87-37.87c20.886,0,37.87,16.989,37.87,37.87
			C436.261,310.016,419.277,327.004,398.391,327.004z"/>
	</g>
</g>
<g>
</g>
<g>
</g>
<g>
</g>
<g>
</g>
<g>
</g>
<g>
</g>
<g>
</g>
<g>
</g>
<g>
</g>
<g>
</g>
<g>
</g>
<g>
</g>
<g>
</g>
<g>
</g>
<g>
</g>
</svg>
