<?xml version="1.0" encoding="iso-8859-1"?>
<!-- Generator: Adobe Illustrator 19.0.0, SVG Export Plug-In . SVG Version: 6.00 Build 0)  -->
<svg version="1.1" id="Layer_1" xmlns="http://www.w3.org/2000/svg" xmlns:xlink="http://www.w3.org/1999/xlink" x="0px" y="0px"
	 viewBox="0 0 512 512" style="enable-background:new 0 0 512 512;" xml:space="preserve">
<g>
	<g>
		<path d="M256,0C163.718,0,88.644,75.074,88.644,167.356c0,33.35,20.03,58.067,41.233,84.231
			c9.874,12.19,20.088,24.789,29.207,39.176c19.184,30.255,48.05,105.761,48.338,106.52c1.437,3.773,5.033,5.911,9.07,5.964
			l64.1,0.464c0.043,0,0.087,0,0.13,0c3.547,0,6.821-1.531,8.571-4.622c0.433-0.769,43.781-77.218,63.624-108.515
			c9.119-14.387,19.333-26.891,29.207-39.081c21.203-26.165,41.233-50.834,41.233-84.184C423.356,75.027,348.282,0,256,0z
			 M366.827,239.19c-10.229,12.628-20.809,25.678-30.543,41.027c-17.338,27.356-51.131,86.644-61.259,104.482l-51.621-0.678
			c-7.499-19.18-30.596-76.833-47.689-103.804c-9.734-15.349-20.314-28.399-30.543-41.027c-19.766-24.39-36.84-45.459-36.84-71.834
			c0-48.846,23.855-92.207,60.51-119.104c-10.102,29.136-21.916,80.486-0.405,123.506c28.755,57.505,58.081,164.472,58.375,165.544
			c1.197,4.379,5.162,7.254,9.494,7.254c0.855,0,1.73-0.111,2.596-0.346c5.244-1.432,8.335-6.845,6.907-12.089
			c-1.216-4.461-30.13-109.909-59.759-169.168c-26.943-53.88,9.474-128.281,9.849-129.026c0.274-0.552,0.475-1.12,0.638-1.692
			c18.206-8.043,38.313-12.546,59.462-12.546c17.293,0,33.89,3.015,49.323,8.502c-0.264,1.898,0.016,3.891,0.933,5.736
			c0.375,0.745,36.792,75.146,9.849,129.026c-29.63,59.259-58.543,164.707-59.759,169.168c-1.428,5.244,1.663,10.657,6.907,12.089
			c0.87,0.236,1.74,0.351,2.596,0.351c4.331,0,8.297-2.879,9.493-7.258c0.293-1.072,29.61-108.015,58.375-165.544
			c23.801-47.602,6.808-105.381-3.526-131.998c43.895,25.623,73.475,73.206,73.475,127.595
			C403.667,193.731,386.593,214.8,366.827,239.19z"/>
	</g>
</g>
<g>
	<g>
		<path d="M286.675,433.244h-68.911c-5.437,0-9.844,4.408-9.844,9.844v59.067c0,5.437,4.408,9.844,9.844,9.844h68.911
			c5.437,0,9.844-4.408,9.844-9.844v-59.067C296.52,437.652,292.112,433.244,286.675,433.244z M276.831,492.311h-49.222v-39.378
			h49.222V492.311z"/>
	</g>
</g>
<g>
</g>
<g>
</g>
<g>
</g>
<g>
</g>
<g>
</g>
<g>
</g>
<g>
</g>
<g>
</g>
<g>
</g>
<g>
</g>
<g>
</g>
<g>
</g>
<g>
</g>
<g>
</g>
<g>
</g>
</svg>
