<?xml version="1.0" encoding="iso-8859-1"?>
<!-- Generator: Adobe Illustrator 19.0.0, SVG Export Plug-In . SVG Version: 6.00 Build 0)  -->
<svg version="1.1" id="Layer_1" xmlns="http://www.w3.org/2000/svg" xmlns:xlink="http://www.w3.org/1999/xlink" x="0px" y="0px"
	 viewBox="0 0 512 512" style="enable-background:new 0 0 512 512;" xml:space="preserve">
<g>
	<g>
		<path d="M341.467,100.644c0.721-4.497,0.975-9.104,0.975-13.799C342.443,38.959,303.419,0,255.533,0
			c-47.886,0-86.878,38.959-86.878,86.844c0,4.696,0.37,9.302,1.091,13.799c-46.285,1.826-82.86,40.032-82.86,86.755
			c0,28.373,11.949,54.49,37.088,70.787v34.341c0,5.053,3.029,9.22,8.081,9.22h10.26l24.021,184.178
			C168.239,500.546,181.272,512,196.002,512h128.07c14.721,0,27.746-11.454,29.665-26.077l24.021-184.178h10.26
			c5.053,0,10.202-4.167,10.202-9.22v-41.817c15.998-16.377,26.893-39.396,26.893-63.31
			C425.113,140.676,387.753,102.469,341.467,100.644z M255.466,18.283c37.807,0,68.561,30.752,68.561,68.561
			c0,37.807-30.754,68.559-68.561,68.559c-37.807,0-68.561-30.752-68.561-68.559C186.905,49.035,217.66,18.283,255.466,18.283z
			 M261.229,228.613h-11.581c2.297-4.571,4.229-8.729,5.78-13.317C256.978,219.88,258.912,224.043,261.229,228.613z
			 M123.475,234.662c-11.996-12.583-18.843-29.375-18.843-47.263c0-37.807,30.755-68.561,68.561-68.561
			c0.516,0,1.011-0.069,1.502-0.149c10.907,27.561,35.512,48.241,65.383,53.606c1.109,4.932,1.676,10.032,1.676,15.145
			c0,14.831-4.854,29.748-13.71,41.175h-95.988C128.081,228.613,124.736,231.122,123.475,234.662z M335.615,483.558
			c-0.714,5.41-6.106,10.159-11.543,10.159h-128.07c-5.446,0-10.838-4.74-11.543-10.15l-23.711-181.821h198.578L335.615,483.558z
			 M379.937,283.462h-10.202H150.339h-8.081v-36.566h237.679V283.462z M391.884,229.457c-1.178-0.551-2.479-0.844-3.865-0.844
			h-105.08c-8.985-11.427-13.759-26.154-13.759-41.175c0-5.113,0.567-10.193,1.674-15.125c29.873-5.365,54.478-26.056,65.383-53.617
			c0.493,0.083,0.989,0.141,1.504,0.141c37.807,0,68.561,30.755,68.561,68.561C406.301,202.669,401.132,217.515,391.884,229.457z"/>
	</g>
</g>
<g>
</g>
<g>
</g>
<g>
</g>
<g>
</g>
<g>
</g>
<g>
</g>
<g>
</g>
<g>
</g>
<g>
</g>
<g>
</g>
<g>
</g>
<g>
</g>
<g>
</g>
<g>
</g>
<g>
</g>
</svg>
