<?xml version="1.0" encoding="iso-8859-1"?>
<!-- Generator: Adobe Illustrator 19.0.0, SVG Export Plug-In . SVG Version: 6.00 Build 0)  -->
<svg version="1.1" id="Layer_1" xmlns="http://www.w3.org/2000/svg" xmlns:xlink="http://www.w3.org/1999/xlink" x="0px" y="0px"
	 viewBox="0 0 512 512" style="enable-background:new 0 0 512 512;" xml:space="preserve">
<g>
	<g>
		<path d="M338.779,97.174c0.697-4.342,1.071-8.79,1.071-13.324C339.85,37.615,302.235,0,256,0c-46.235,0-83.85,37.615-83.85,83.85
			c0,4.534,0.374,8.981,1.07,13.324c-44.689,1.763-80.507,38.652-80.507,83.764c0,28.3,14.106,53.35,35.641,68.542
			c0.14,0.504,0.308,1.004,0.544,1.493l123.568,256c1.474,3.051,4.564,5.027,7.947,5.027c0.043,0,0.082,0,0.125,0
			c3.431,0,6.525-2.122,7.93-5.251L383.21,250.766c0.183-0.409,0.299-0.84,0.416-1.263c21.546-15.19,35.661-40.257,35.661-68.566
			C419.287,135.825,383.469,98.936,338.779,97.174z M256,17.653c36.503,0,66.197,29.692,66.197,66.197
			c0,36.503-29.694,66.195-66.197,66.195c-36.503,0-66.197-29.692-66.197-66.195C189.803,47.345,219.497,17.653,256,17.653z
			 M110.366,180.937c0-36.503,29.694-66.197,66.197-66.197c0.497,0,0.976-0.067,1.451-0.144
			c10.529,26.61,34.285,46.577,63.127,51.758c1.07,4.762,1.619,9.65,1.619,14.584c0,36.506-29.694,66.197-66.197,66.197
			C140.06,247.135,110.366,217.443,110.366,180.937z M260.116,482.181L153.612,261.568c7.3,2.082,14.992,3.219,22.951,3.219
			c36.869,0,68.233-23.928,79.437-57.063c11.203,33.135,42.568,57.063,79.437,57.063c8.218,0,16.155-1.209,23.665-3.422
			L260.116,482.181z M335.437,247.135c-36.503,0-66.197-29.692-66.197-66.197c0-4.935,0.55-9.822,1.618-14.584
			c28.842-5.18,52.598-25.147,63.128-51.758c0.474,0.077,0.953,0.144,1.451,0.144c36.503,0,66.197,29.694,66.197,66.197
			C401.634,217.443,371.94,247.135,335.437,247.135z"/>
	</g>
</g>
<g>
	<g>
		<path d="M206.748,279.098c-0.444-1.147-1.06-2.122-1.853-2.913c-3.357-3.267-9.18-3.267-12.533,0
			c-0.797,0.791-1.414,1.767-1.858,2.913c-0.44,1.06-0.703,2.207-0.703,3.351c0,2.304,0.879,4.594,2.56,6.182
			c1.677,1.679,3.883,2.644,6.266,2.644c2.383,0,4.59-0.965,6.266-2.644c1.676-1.588,2.56-3.879,2.56-6.182
			C207.455,281.305,207.188,280.158,206.748,279.098z"/>
	</g>
</g>
<g>
	<g>
		<path d="M284.332,285.011c-0.884-0.793-1.767-1.416-2.913-1.855c-2.121-0.877-4.59-0.877-6.71,0
			c-1.146,0.44-2.03,1.062-2.909,1.855c-1.59,1.681-2.56,3.973-2.56,6.264c0,2.304,0.879,4.51,2.56,6.268
			c1.677,1.592,3.883,2.558,6.266,2.558c2.383,0,4.59-0.965,6.266-2.558c1.676-1.674,2.56-3.965,2.56-6.268
			C286.892,288.984,285.918,286.692,284.332,285.011z"/>
	</g>
</g>
<g>
	<g>
		<path d="M310.811,311.49c-2.474-2.465-6.357-3.267-9.624-1.856c-1.146,0.44-2.03,1.063-2.909,1.856
			c-1.59,1.681-2.56,3.973-2.56,6.264c0,2.304,0.879,4.594,2.56,6.268c1.677,1.593,3.883,2.558,6.266,2.558
			c2.383,0,4.59-0.965,6.266-2.558c1.676-1.674,2.56-3.965,2.56-6.268C313.371,315.463,312.397,313.171,310.811,311.49z"/>
	</g>
</g>
<g>
	<g>
		<path d="M249.027,311.49c-3.267-3.267-9.18-3.267-12.533,0c-1.59,1.681-2.56,3.973-2.56,6.264c0,2.304,0.879,4.594,2.56,6.268
			c1.677,1.593,3.883,2.558,6.266,2.558c2.383,0,4.59-0.965,6.266-2.558c1.676-1.674,2.56-3.965,2.56-6.268
			C251.587,315.463,250.613,313.171,249.027,311.49z"/>
	</g>
</g>
<g>
	<g>
		<path d="M231.374,346.795c-3.357-3.267-9.18-3.267-12.533,0c-1.59,1.681-2.56,3.973-2.56,6.264c0,2.304,0.879,4.594,2.56,6.182
			c0.879,0.886,1.853,1.5,2.909,1.939c1.06,0.448,2.207,0.705,3.357,0.705c2.383,0,4.59-0.965,6.266-2.644
			c0.793-0.795,1.409-1.769,1.853-2.829c0.44-1.049,0.707-2.207,0.707-3.353C233.934,350.769,232.96,348.476,231.374,346.795z"/>
	</g>
</g>
<g>
	<g>
		<path d="M275.506,346.795c-3.357-3.267-9.18-3.267-12.533,0c-1.59,1.681-2.56,3.973-2.56,6.264c0,2.304,0.879,4.594,2.56,6.182
			c1.677,1.679,3.883,2.644,6.266,2.644c2.383,0,4.59-0.965,6.266-2.644c1.676-1.588,2.56-3.879,2.56-6.182
			C278.066,350.769,277.092,348.476,275.506,346.795z"/>
	</g>
</g>
<g>
	<g>
		<path d="M268.533,402.667c-0.444-1.147-1.06-2.122-1.853-2.913c-0.884-0.793-1.853-1.416-2.913-1.855
			c-3.176-1.411-7.15-0.61-9.619,1.855c-0.797,0.791-1.414,1.767-1.857,2.913c-0.44,1.06-0.703,2.207-0.703,3.351
			c0,2.388,0.879,4.594,2.56,6.268c1.677,1.681,3.883,2.56,6.266,2.56c2.383,0,4.59-0.879,6.266-2.56
			c1.676-1.674,2.56-3.965,2.56-6.268C269.24,404.873,268.972,403.727,268.533,402.667z"/>
	</g>
</g>
<g>
</g>
<g>
</g>
<g>
</g>
<g>
</g>
<g>
</g>
<g>
</g>
<g>
</g>
<g>
</g>
<g>
</g>
<g>
</g>
<g>
</g>
<g>
</g>
<g>
</g>
<g>
</g>
<g>
</g>
</svg>
