<?xml version="1.0" encoding="iso-8859-1"?>
<!-- Generator: Adobe Illustrator 19.0.0, SVG Export Plug-In . SVG Version: 6.00 Build 0)  -->
<svg version="1.1" id="Layer_1" xmlns="http://www.w3.org/2000/svg" xmlns:xlink="http://www.w3.org/1999/xlink" x="0px" y="0px"
	 viewBox="0 0 512 512" style="enable-background:new 0 0 512 512;" xml:space="preserve">
<g>
	<g>
		<path d="M457.712,284.596L350.04,177.256c-7.185-7.193-16.75-10.839-26.918-10.839c-0.009,0-0.009,0-0.009,0
			c-9.818,0-19.043,3.398-26.144,10.123L123.31,2.717c-3.569-3.569-9.89-3.649-13.459-0.08l-47.107,47.07
			c-0.344,0.349-0.66,0.695-0.939,1.081L45.939,66.645c-3.718,3.718-3.718,9.735,0,13.453l47.107,47.109
			c3.718,3.718,9.741,3.717,13.459-0.001l10.159-10.155l119.702,119.697L133.766,339.352c-14.844,14.844-14.844,38.997,0.009,53.846
			L241.438,500.86c7.427,7.427,17.186,11.14,26.937,11.14s19.501-3.709,26.918-11.126l162.428-162.428
			C472.565,323.602,472.556,299.444,457.712,284.596z M123.393,96.862c-3.718-3.718-9.741-3.718-13.459,0l-10.159,10.155
			L66.127,73.364l10.15-10.154c0.344-0.349,0.66-0.716,0.939-1.097l39.364-39.368l166.895,166.895l-33.65,33.651L123.393,96.862z
			 M444.262,324.986L281.834,487.415c-7.417,7.408-19.501,7.422-26.937-0.014L147.235,379.738
			c-7.427-7.427-7.427-19.505-0.009-26.927l162.429-162.433c3.597-3.592,8.375-5.572,13.459-5.572c5.084,0,9.871,1.984,13.468,5.586
			l107.672,107.663C451.68,305.481,451.68,317.565,444.262,324.986z"/>
	</g>
</g>
<g>
	<g>
		<path d="M358.257,266.271c-26.239,0-47.59,21.35-47.59,47.59c0,26.239,21.35,47.59,47.59,47.59c26.24,0,47.59-21.351,47.59-47.59
			C405.846,287.621,384.496,266.271,358.257,266.271z M358.257,342.415c-15.746,0-28.554-12.809-28.554-28.554
			c0-15.746,12.808-28.554,28.554-28.554s28.554,12.808,28.554,28.554C386.811,329.606,374.002,342.415,358.257,342.415z"/>
	</g>
</g>
<g>
</g>
<g>
</g>
<g>
</g>
<g>
</g>
<g>
</g>
<g>
</g>
<g>
</g>
<g>
</g>
<g>
</g>
<g>
</g>
<g>
</g>
<g>
</g>
<g>
</g>
<g>
</g>
<g>
</g>
</svg>
