<?xml version="1.0" encoding="iso-8859-1"?>
<!-- Generator: Adobe Illustrator 19.0.0, SVG Export Plug-In . SVG Version: 6.00 Build 0)  -->
<svg version="1.1" id="Layer_1" xmlns="http://www.w3.org/2000/svg" xmlns:xlink="http://www.w3.org/1999/xlink" x="0px" y="0px"
	 viewBox="0 0 512 512" style="enable-background:new 0 0 512 512;" xml:space="preserve">
<g>
	<g>
		<path d="M349.669,0H160.132c-15.713,0-27.391,12.706-27.391,28.419v454.993c0,15.722,11.678,28.588,27.391,28.588h189.537
			c15.713,0,29.59-12.866,29.59-28.588V28.419C379.259,12.706,365.382,0,349.669,0z M246.518,493.037h-37.926V118.243
			c9.482,7.435,23.704,12.333,37.926,13.877V493.037z M303.407,493.037h-37.926V132.12c11.852-1.544,26.074-6.442,37.926-13.877
			V493.037z M254.9,113.778c-33.38,0-61.083-23.704-65.694-56.889h131.389C315.984,90.074,288.28,113.778,254.9,113.778z
			 M360.296,483.412c0,5.268-5.377,9.625-10.627,9.625H322.37V104.215c0-0.965-0.736-1.877-1.005-2.755
			c12.127-14.741,19.143-33.56,19.143-54.093c0-5.241-4.516-9.442-9.757-9.442H179.049c-5.241,0-9.481,4.201-9.481,9.442
			c0,20.532,7.84,39.373,19.968,54.111c-0.269,0.877,0.095,1.771,0.095,2.736v388.822h-29.498c-5.25,0-8.428-4.357-8.428-9.625
			V28.419c0-5.257,3.178-9.456,8.428-9.456h189.537c5.25,0,10.627,4.199,10.627,9.456V483.412z"/>
	</g>
</g>
<g>
</g>
<g>
</g>
<g>
</g>
<g>
</g>
<g>
</g>
<g>
</g>
<g>
</g>
<g>
</g>
<g>
</g>
<g>
</g>
<g>
</g>
<g>
</g>
<g>
</g>
<g>
</g>
<g>
</g>
</svg>
