<?xml version="1.0" encoding="iso-8859-1"?>
<!-- Generator: Adobe Illustrator 19.0.0, SVG Export Plug-In . SVG Version: 6.00 Build 0)  -->
<svg version="1.1" id="Layer_1" xmlns="http://www.w3.org/2000/svg" xmlns:xlink="http://www.w3.org/1999/xlink" x="0px" y="0px"
	 viewBox="0 0 512 512" style="enable-background:new 0 0 512 512;" xml:space="preserve">
<g>
	<g>
		<path d="M484.613,176.873c-5.145,0-9.309,4.164-9.309,9.309v263l-139.636,41.064V130.327c0-0.586-0.607-1.155-0.711-1.714
			c-0.036-0.195-0.366-0.38-0.414-0.57c-0.089-0.355-0.327-0.702-0.459-1.043c-0.079-0.209-0.234-0.409-0.327-0.609
			c-0.146-0.311-0.343-0.609-0.523-0.9c-0.111-0.184-0.234-0.368-0.359-0.543c-0.225-0.316-0.484-0.609-0.748-0.896
			c-0.109-0.118-0.207-0.248-0.32-0.361c-0.382-0.375-0.798-0.716-1.243-1.023c-0.155-0.107-0.33-0.189-0.493-0.289
			c-0.304-0.184-0.613-0.361-0.943-0.512c-0.225-0.102-0.457-0.182-0.691-0.266c-0.177-0.064-0.346-0.15-0.53-0.202L169.651,74.855
			c-0.155-0.048-0.311-0.046-0.468-0.082c-0.368-0.089-0.734-0.15-1.112-0.193c-0.35-0.039-0.695-0.066-1.045-0.066
			c-0.352,0-0.698,0.027-1.048,0.066c-0.377,0.043-0.743,0.104-1.109,0.193c-0.157,0.036-0.318,0.034-0.473,0.082L6.681,121.4
			c-3.964,1.164-6.141,4.8-6.141,8.927v372.364c0,2.936,0.841,5.7,3.195,7.454C5.363,511.364,7.049,512,9.04,512
			c0.882,0,1.627-0.127,2.491-0.382l155.561-45.773l155.593,45.773c0.216,0.064,0.418,0.096,0.636,0.143
			c0.195,0.041,0.375,0.098,0.573,0.125c0.461,0.073,0.923,0.114,1.389,0.114c0.466,0,0.927-0.041,1.391-0.114
			c0.195-0.027,0.384-0.084,0.577-0.125c0.218-0.048,0.439-0.08,0.654-0.143l158.796-46.545c3.961-1.164,7.22-4.8,7.22-8.927
			V186.182C493.922,181.036,489.758,176.873,484.613,176.873z M158.794,449.182L19.158,490.245V137.291l139.636-41.064V449.182z
			 M317.049,490.245l-139.636-41.064V96.227l139.636,41.064V490.245z"/>
	</g>
</g>
<g>
	<g>
		<path d="M427.678,0c-46.2,0-83.782,37.582-83.782,83.782c0,46.2,37.582,83.782,83.782,83.782c46.2,0,83.782-37.582,83.782-83.782
			C511.46,37.582,473.878,0,427.678,0z M427.678,148.945c-35.927,0-65.164-29.236-65.164-65.164
			c0-35.927,29.236-65.164,65.164-65.164c35.927,0,65.164,29.236,65.164,65.164C492.842,119.709,463.606,148.945,427.678,148.945z"
			/>
	</g>
</g>
<g>
	<g>
		<path d="M436.242,126.8c-0.464-1.209-1.118-2.237-1.954-3.073c-3.537-3.445-9.773-3.445-13.218,0
			c-0.836,0.836-1.491,1.863-1.955,3.073c-0.563,1.118-0.745,2.327-0.745,3.536c0,2.427,0.927,4.755,2.7,6.609
			c1.764,1.773,4.091,2.7,6.609,2.7c2.509,0,4.837-0.927,6.609-2.7c1.764-1.764,2.7-4.091,2.7-6.609
			C436.987,129.127,436.706,127.918,436.242,126.8z"/>
	</g>
</g>
<g>
	<g>
		<path d="M427.949,27.927c-20.536,0-37.372,16.7-37.372,37.236c0,5.145,4.029,9.309,9.175,9.309c5.146,0,9.309-4.164,9.309-9.309
			c0-10.264,8.355-18.618,18.618-18.618c10.264,0,18.618,8.354,18.618,18.618s-7.816,18.618-18.079,18.618
			c-5.146,0-8.768,4.164-8.768,9.309v9.309c0,5.145,4.164,9.309,9.309,9.309s9.309-4.164,9.309-9.309v-1.182
			c13.964-4.136,27.386-18.736,27.386-36.055C465.453,44.627,448.485,27.927,427.949,27.927z"/>
	</g>
</g>
<g>
</g>
<g>
</g>
<g>
</g>
<g>
</g>
<g>
</g>
<g>
</g>
<g>
</g>
<g>
</g>
<g>
</g>
<g>
</g>
<g>
</g>
<g>
</g>
<g>
</g>
<g>
</g>
<g>
</g>
</svg>
