<?xml version="1.0" encoding="iso-8859-1"?>
<!-- Generator: Adobe Illustrator 19.0.0, SVG Export Plug-In . SVG Version: 6.00 Build 0)  -->
<svg version="1.1" id="Layer_1" xmlns="http://www.w3.org/2000/svg" xmlns:xlink="http://www.w3.org/1999/xlink" x="0px" y="0px"
	 viewBox="0 0 512 512" style="enable-background:new 0 0 512 512;" xml:space="preserve">
<g>
	<g>
		<path d="M484.073,144.252c-5.141,0-9.309,4.164-9.309,9.309v263l-139.636,41.064V97.707c0-0.586-0.608-1.155-0.713-1.714
			c-0.036-0.195-0.364-0.38-0.412-0.57c-0.09-0.355-0.327-0.702-0.458-1.041c-0.081-0.211-0.236-0.414-0.332-0.616
			c-0.144-0.307-0.341-0.602-0.517-0.891c-0.114-0.186-0.239-0.373-0.364-0.55c-0.223-0.314-0.482-0.605-0.742-0.886
			c-0.11-0.123-0.21-0.254-0.327-0.368c-0.381-0.375-0.797-0.716-1.241-1.023c-0.156-0.107-0.327-0.186-0.489-0.286
			c-0.308-0.184-0.619-0.364-0.951-0.514c-0.22-0.102-0.451-0.179-0.681-0.263c-0.181-0.064-0.349-0.15-0.535-0.205L169.111,42.234
			c-0.15-0.046-0.304-0.043-0.455-0.08c-0.377-0.089-0.752-0.152-1.137-0.195c-0.347-0.039-0.688-0.061-1.035-0.064
			c-0.348,0.002-0.689,0.025-1.035,0.064c-0.384,0.043-0.758,0.107-1.134,0.195c-0.151,0.036-0.308,0.034-0.458,0.08L6.142,88.78
			C2.183,89.943,0,93.58,0,97.707V470.07c0,2.936,0.842,5.7,3.192,7.454c1.627,1.218,3.32,1.855,5.307,1.855
			c0.882,0,1.628-0.127,2.492-0.382l155.56-45.773l155.594,45.773c0.218,0.064,0.423,0.096,0.643,0.143
			c0.192,0.043,0.37,0.098,0.565,0.125c0.462,0.073,0.924,0.114,1.39,0.114c0.465,0,0.928-0.041,1.391-0.114
			c0.194-0.027,0.381-0.084,0.573-0.125c0.221-0.048,0.441-0.08,0.659-0.143l158.794-46.545c3.959-1.164,7.222-4.8,7.222-8.927
			V153.561C493.382,148.416,489.214,144.252,484.073,144.252z M158.255,416.561L18.618,457.625V104.67l139.636-41.064V416.561z
			 M316.509,457.625l-139.636-41.064V63.607l139.636,41.064V457.625z"/>
	</g>
</g>
<g>
	<g>
		<path d="M501.611,32.62H371.284c-5.141,0-8.229,4.086-8.229,9.232v37.236c0,5.145,3.089,9.386,8.229,9.386h130.327
			c5.141,0,10.389-4.241,10.389-9.386V41.852C512,36.707,506.752,32.62,501.611,32.62z M493.382,69.857H381.673V51.239h111.709
			V69.857z"/>
	</g>
</g>
<g>
</g>
<g>
</g>
<g>
</g>
<g>
</g>
<g>
</g>
<g>
</g>
<g>
</g>
<g>
</g>
<g>
</g>
<g>
</g>
<g>
</g>
<g>
</g>
<g>
</g>
<g>
</g>
<g>
</g>
</svg>
