<?xml version="1.0" encoding="iso-8859-1"?>
<!-- Generator: Adobe Illustrator 19.0.0, SVG Export Plug-In . SVG Version: 6.00 Build 0)  -->
<svg version="1.1" id="Layer_1" xmlns="http://www.w3.org/2000/svg" xmlns:xlink="http://www.w3.org/1999/xlink" x="0px" y="0px"
	 viewBox="0 0 512 512" style="enable-background:new 0 0 512 512;" xml:space="preserve">
<g>
	<g>
		<path d="M486.623,176.599c-5.145,0-9.317,4.167-9.317,9.317V449.13l-139.75,41.097V130.015c0-0.587-0.608-1.156-0.713-1.715
			c-0.036-0.196-0.365-0.38-0.413-0.571c-0.091-0.355-0.328-0.703-0.458-1.042c-0.081-0.211-0.236-0.414-0.332-0.617
			c-0.144-0.307-0.341-0.603-0.517-0.892c-0.114-0.187-0.239-0.373-0.365-0.55c-0.223-0.314-0.481-0.605-0.74-0.887
			c-0.112-0.123-0.212-0.255-0.329-0.368c-0.381-0.375-0.797-0.716-1.242-1.023c-0.156-0.107-0.328-0.187-0.489-0.287
			c-0.308-0.184-0.62-0.364-0.952-0.514c-0.221-0.102-0.451-0.18-0.681-0.264c-0.181-0.064-0.349-0.15-0.536-0.205L171.404,74.497
			c-0.152-0.046-0.309-0.043-0.463-0.08c-0.374-0.091-0.746-0.152-1.127-0.193c-0.349-0.041-0.692-0.064-1.04-0.066
			c-0.349,0.002-0.692,0.025-1.04,0.066c-0.381,0.041-0.753,0.102-1.126,0.191c-0.154,0.039-0.31,0.036-0.463,0.082L8.302,121.081
			c-3.962,1.165-6.147,4.804-6.147,8.935v372.668c0,2.939,0.843,5.705,3.195,7.461C6.978,511.363,8.672,512,10.66,512
			c0.883,0,1.63-0.127,2.494-0.382l155.687-45.81l155.722,45.81c0.218,0.064,0.423,0.096,0.644,0.143
			c0.192,0.043,0.371,0.098,0.565,0.125c0.463,0.073,0.925,0.114,1.391,0.114c0.465,0,0.929-0.041,1.392-0.114
			c0.194-0.027,0.381-0.084,0.573-0.125c0.221-0.048,0.441-0.08,0.66-0.143l158.924-46.583c3.962-1.165,7.227-4.804,7.227-8.935
			V185.915C495.94,180.766,491.768,176.599,486.623,176.599z M160.538,449.13l-139.75,41.097V136.985l139.75-41.097V449.13z
			 M318.922,490.228l-139.75-41.097V95.888l139.75,41.097V490.228z"/>
	</g>
</g>
<g>
	<g>
		<path d="M509.389,57.52c-1.096-3.375-4.012-5.832-7.524-6.342l-44.131-6.414L437.999,4.777c-3.148-6.369-13.566-6.369-16.714,0
			l-19.734,39.987l-44.132,6.414c-3.512,0.51-6.428,2.966-7.524,6.342c-1.097,3.366-0.182,7.07,2.361,9.544l31.931,31.134
			l-7.538,43.954c-0.596,3.494,0.841,7.024,3.708,9.108c2.88,2.093,6.674,2.366,9.813,0.71l39.473-20.744l39.473,20.744
			c1.365,0.719,2.852,1.074,4.335,1.074c1.929,0,3.853-0.6,5.477-1.783c2.866-2.083,4.303-5.614,3.708-9.108l-7.538-43.954
			l31.93-31.134C509.571,64.589,510.486,60.886,509.389,57.52z M458.58,88.272c-2.193,2.138-3.193,5.222-2.679,8.243l5.177,30.179
			l-27.099-14.239c-1.356-0.719-2.848-1.074-4.336-1.074c-1.487,0-2.98,0.355-4.335,1.074l-27.099,14.239l5.177-30.179
			c0.514-3.021-0.487-6.105-2.679-8.243L378.778,66.9l30.298-4.404c3.034-0.437,5.659-2.347,7.019-5.095l13.547-27.45l13.547,27.45
			c1.36,2.748,3.985,4.658,7.019,5.095l30.297,4.404L458.58,88.272z"/>
	</g>
</g>
<g>
</g>
<g>
</g>
<g>
</g>
<g>
</g>
<g>
</g>
<g>
</g>
<g>
</g>
<g>
</g>
<g>
</g>
<g>
</g>
<g>
</g>
<g>
</g>
<g>
</g>
<g>
</g>
<g>
</g>
</svg>
