<?xml version="1.0" encoding="iso-8859-1"?>
<!-- Generator: Adobe Illustrator 19.0.0, SVG Export Plug-In . SVG Version: 6.00 Build 0)  -->
<svg version="1.1" id="Layer_1" xmlns="http://www.w3.org/2000/svg" xmlns:xlink="http://www.w3.org/1999/xlink" x="0px" y="0px"
	 viewBox="0 0 512 512" style="enable-background:new 0 0 512 512;" xml:space="preserve">
<g>
	<g>
		<path d="M511.881,472.156L446.52,36.463c-0.809-5.329-5.383-9.227-10.777-9.227H76.257c-5.393,0-9.968,3.899-10.776,9.227
			L0.119,472.18c-0.468,3.138,0.458,6.362,2.521,8.761c2.074,2.404,5.085,3.823,8.255,3.823h490.209c3.17,0,6.181-1.431,8.255-3.835
			C511.423,478.53,512.349,475.295,511.881,472.156z M426.36,49.023l28.867,192.401l-71.313-17.853
			c-3.915-0.979-8.075,0.286-10.776,3.318l-85.755,96.473l-53.01,26.496l-37.484-91.039l94.781-115.844
			c1.851-2.271,2.713-5.143,2.394-8.053l-9.55-85.898H426.36z M85.64,49.023h176.948l9.316,83.749l-84.444,103.172l-24.875-60.433
			c-1.383-3.367-4.362-5.825-7.936-6.537c-3.564-0.729-7.266,0.395-9.84,2.975l-91.324,91.37L85.64,49.023z M23.545,462.977
			l24.672-164.536c1.101-0.521,2.149-1.221,3.061-2.132l97.382-97.394l70.031,170.078c1.149,2.798,3.415,4.985,6.255,6.049
			c1.234,0.463,2.532,0.69,3.819,0.69c1.67,0,3.341-0.388,4.872-1.149l52.984-26.444l26.489,114.837H23.545z M335.475,462.977
			l-29.468-127.742l79.023-88.925l73.696,18.458l29.728,198.208H335.475z"/>
	</g>
</g>
<g>
</g>
<g>
</g>
<g>
</g>
<g>
</g>
<g>
</g>
<g>
</g>
<g>
</g>
<g>
</g>
<g>
</g>
<g>
</g>
<g>
</g>
<g>
</g>
<g>
</g>
<g>
</g>
<g>
</g>
</svg>
