<?xml version="1.0" encoding="iso-8859-1"?>
<!-- Generator: Adobe Illustrator 19.0.0, SVG Export Plug-In . SVG Version: 6.00 Build 0)  -->
<svg version="1.1" id="Layer_1" xmlns="http://www.w3.org/2000/svg" xmlns:xlink="http://www.w3.org/1999/xlink" x="0px" y="0px"
	 viewBox="0 0 512 512" style="enable-background:new 0 0 512 512;" xml:space="preserve">
<g>
	<g>
		<path d="M482.377,175.682c-5.127,0-9.276,4.149-9.276,9.276v262.079l-139.147,40.92V129.299c0-0.584-0.605-1.151-0.709-1.708
			c-0.036-0.195-0.365-0.378-0.412-0.568c-0.091-0.353-0.326-0.7-0.458-1.04c-0.079-0.208-0.233-0.408-0.326-0.607
			c-0.145-0.31-0.342-0.607-0.521-0.897c-0.111-0.183-0.233-0.367-0.358-0.541c-0.224-0.315-0.482-0.607-0.745-0.892
			c-0.109-0.118-0.206-0.247-0.322-0.36c-0.378-0.374-0.793-0.713-1.237-1.019c-0.154-0.106-0.328-0.188-0.491-0.288
			c-0.303-0.183-0.611-0.36-0.94-0.51c-0.224-0.102-0.455-0.181-0.686-0.265c-0.179-0.064-0.347-0.15-0.53-0.202l-157.7-46.382
			c-0.156-0.048-0.317-0.045-0.473-0.084c-0.365-0.086-0.727-0.147-1.098-0.188c-0.351-0.041-0.695-0.068-1.046-0.068
			c-0.349,0-0.695,0.027-1.044,0.068c-0.374,0.041-0.738,0.102-1.103,0.19c-0.156,0.036-0.317,0.034-0.471,0.082L6.119,120.403
			C2.17,121.563,0,125.187,0,129.299v371.059c0,2.926,0.838,5.68,3.184,7.428c1.622,1.214,3.302,1.848,5.286,1.848
			c0.879,0,1.622-0.127,2.482-0.381l155.016-45.612l155.048,45.612c0.215,0.064,0.417,0.095,0.634,0.143
			c0.195,0.041,0.374,0.097,0.571,0.125c0.46,0.072,0.919,0.113,1.384,0.113s0.924-0.041,1.386-0.113
			c0.195-0.027,0.383-0.084,0.575-0.125c0.22-0.047,0.437-0.079,0.652-0.143l158.239-46.382c3.947-1.16,7.195-4.783,7.195-8.896
			V184.958C491.653,179.831,487.504,175.682,482.377,175.682z M157.7,447.037l-139.147,40.92V136.239L157.7,95.319V447.037z
			 M315.4,487.957l-139.147-40.92V95.319l139.147,40.92V487.957z"/>
	</g>
</g>
<g>
	<g>
		<path d="M487.588,26.787c-32.549-32.549-85.518-32.576-118.067,0c-15.772,15.763-24.46,36.734-24.46,59.029
			c0,22.303,8.688,43.275,24.46,59.038c15.763,15.772,36.735,24.46,59.038,24.46c22.294,0,43.266-8.688,59.029-24.46
			C520.137,112.305,520.137,59.336,487.588,26.787z M474.471,131.736c-12.266,12.266-28.572,19.024-45.911,19.024
			c-17.348,0-33.654-6.758-45.92-19.024c-12.266-12.266-19.024-28.572-19.024-45.92c0-17.339,6.758-33.645,19.024-45.911
			c12.655-12.655,29.288-18.988,45.911-18.988c16.633,0,33.265,6.332,45.92,18.988C499.791,65.225,499.791,106.416,474.471,131.736z
			"/>
	</g>
</g>
<g>
	<g>
		<path d="M438.758,82.912l19.679-19.681c3.624-3.624,3.624-9.494,0-13.117c-3.624-3.624-9.494-3.624-13.118,0l-19.676,19.678
			l-19.676-19.678c-3.624-3.624-9.494-3.624-13.118,0c-3.624,3.624-3.624,9.494,0,13.117l19.676,19.681l-19.676,19.681
			c-3.624,3.624-3.624,9.494,0,13.117c1.812,1.812,4.185,2.718,6.559,2.718c2.374,0,4.747-0.906,6.559-2.718l19.676-19.681
			l19.676,19.681c1.812,1.812,4.185,2.718,6.559,2.718c2.374,0,4.747-0.906,6.559-2.718c3.624-3.624,3.624-9.494,0-13.117
			L438.758,82.912z"/>
	</g>
</g>
<g>
</g>
<g>
</g>
<g>
</g>
<g>
</g>
<g>
</g>
<g>
</g>
<g>
</g>
<g>
</g>
<g>
</g>
<g>
</g>
<g>
</g>
<g>
</g>
<g>
</g>
<g>
</g>
<g>
</g>
</svg>
