<?xml version="1.0" encoding="iso-8859-1"?>
<!-- Generator: Adobe Illustrator 19.0.0, SVG Export Plug-In . SVG Version: 6.00 Build 0)  -->
<svg version="1.1" id="Layer_1" xmlns="http://www.w3.org/2000/svg" xmlns:xlink="http://www.w3.org/1999/xlink" x="0px" y="0px"
	 viewBox="0 0 512 512" style="enable-background:new 0 0 512 512;" xml:space="preserve">
<g>
	<g>
		<path d="M480.53,182.857c-5.049,0-9.143,4.089-9.143,9.143v258.304l-137.143,40.33V137.143c0-0.576-0.597-1.134-0.7-1.683
			c-0.036-0.192-0.358-0.373-0.405-0.56c-0.089-0.348-0.321-0.69-0.45-1.022c-0.079-0.208-0.232-0.406-0.326-0.605
			c-0.142-0.301-0.335-0.592-0.508-0.875c-0.112-0.183-0.234-0.366-0.358-0.54c-0.219-0.308-0.472-0.594-0.726-0.871
			c-0.109-0.12-0.208-0.25-0.323-0.362c-0.374-0.368-0.782-0.703-1.219-1.004c-0.153-0.105-0.322-0.183-0.48-0.281
			c-0.302-0.181-0.608-0.357-0.934-0.504c-0.216-0.1-0.443-0.176-0.669-0.259c-0.177-0.063-0.343-0.147-0.526-0.201L171.193,82.661
			c-0.149-0.045-0.304-0.042-0.453-0.078c-0.368-0.089-0.736-0.149-1.112-0.192c-0.341-0.038-0.676-0.06-1.018-0.062
			c-0.342,0.002-0.676,0.024-1.016,0.062c-0.379,0.043-0.749,0.105-1.119,0.192c-0.146,0.036-0.298,0.033-0.443,0.078
			L11.134,128.375c-3.888,1.143-6.032,4.714-6.032,8.768v365.714c0,2.884,0.827,5.598,3.135,7.321
			c1.598,1.197,3.261,1.821,5.212,1.821c0.866,0,1.599-0.125,2.448-0.375l152.782-44.955l152.816,44.955
			c0.214,0.063,0.415,0.094,0.632,0.141c0.189,0.042,0.364,0.096,0.555,0.123c0.454,0.071,0.907,0.112,1.365,0.112
			c0.456,0,0.912-0.04,1.366-0.112c0.191-0.027,0.374-0.083,0.563-0.123c0.217-0.047,0.433-0.078,0.647-0.141l155.959-45.714
			c3.888-1.143,7.093-4.714,7.093-8.768V192C489.673,186.947,485.579,182.857,480.53,182.857z M160.53,450.304l-137.143,40.33
			V143.982l137.143-40.33V450.304z M315.959,490.634l-137.143-40.33V103.652l137.143,40.33V490.634z"/>
	</g>
</g>
<g>
	<g>
		<path d="M424.613,0c-45.371,0-82.286,36.911-82.286,82.286c0,45.375,36.915,82.286,82.286,82.286
			c45.37,0,82.286-36.911,82.286-82.286C506.898,36.911,469.983,0,424.613,0z M424.613,146.286c-35.29,0-64-28.714-64-64
			s28.71-64,64-64c35.29,0,64,28.714,64,64S459.903,146.286,424.613,146.286z"/>
	</g>
</g>
<g>
	<g>
		<path d="M461.184,73.219h-26.368V45.714c0-5.053-4.094-9.143-9.143-9.143s-9.143,4.089-9.143,9.143v27.504h-28.489
			c-5.049,0-9.143,4.089-9.143,9.143c0,5.054,4.094,9.143,9.143,9.143h28.489v27.353c0,5.053,4.094,9.143,9.143,9.143
			s9.143-4.089,9.143-9.143V91.504h26.368c5.049,0,9.143-4.089,9.143-9.143C470.327,77.308,466.233,73.219,461.184,73.219z"/>
	</g>
</g>
<g>
</g>
<g>
</g>
<g>
</g>
<g>
</g>
<g>
</g>
<g>
</g>
<g>
</g>
<g>
</g>
<g>
</g>
<g>
</g>
<g>
</g>
<g>
</g>
<g>
</g>
<g>
</g>
<g>
</g>
</svg>
