<?xml version="1.0" encoding="iso-8859-1"?>
<!-- Generator: Adobe Illustrator 19.0.0, SVG Export Plug-In . SVG Version: 6.00 Build 0)  -->
<svg version="1.1" id="Layer_1" xmlns="http://www.w3.org/2000/svg" xmlns:xlink="http://www.w3.org/1999/xlink" x="0px" y="0px"
	 viewBox="0 0 512 512" style="enable-background:new 0 0 512 512;" xml:space="preserve">
<g>
	<g>
		<path d="M482.377,175.678c-5.127,0-9.276,4.149-9.276,9.276v262.079l-139.147,40.92V129.296c0-0.584-0.607-1.151-0.711-1.708
			c-0.036-0.195-0.362-0.378-0.41-0.568c-0.088-0.353-0.326-0.7-0.458-1.04c-0.079-0.208-0.233-0.408-0.328-0.607
			c-0.143-0.31-0.339-0.607-0.519-0.897c-0.111-0.183-0.233-0.367-0.358-0.541c-0.224-0.315-0.482-0.607-0.745-0.892
			c-0.109-0.118-0.206-0.247-0.322-0.36c-0.378-0.374-0.793-0.713-1.237-1.019c-0.156-0.106-0.328-0.188-0.489-0.288
			c-0.306-0.183-0.614-0.36-0.942-0.51c-0.224-0.102-0.455-0.181-0.689-0.265c-0.177-0.064-0.344-0.15-0.528-0.202l-157.7-46.382
			c-0.156-0.048-0.315-0.045-0.473-0.082c-0.362-0.088-0.725-0.149-1.098-0.19c-0.351-0.041-0.695-0.068-1.046-0.068
			c-0.351,0-0.695,0.027-1.049,0.068c-0.372,0.041-0.734,0.102-1.098,0.19c-0.156,0.036-0.317,0.034-0.471,0.082L6.119,120.4
			C2.17,121.56,0,125.183,0,129.296v371.059c0,2.926,0.838,5.68,3.184,7.428c1.622,1.214,3.302,1.848,5.286,1.848
			c0.879,0,1.622-0.127,2.482-0.381l155.016-45.612l155.048,45.612c0.215,0.064,0.417,0.095,0.634,0.143
			c0.195,0.041,0.374,0.097,0.571,0.125c0.46,0.072,0.919,0.113,1.384,0.113s0.924-0.041,1.384-0.113
			c0.197-0.027,0.385-0.084,0.577-0.125c0.22-0.047,0.437-0.079,0.652-0.143l158.239-46.382c3.947-1.16,7.195-4.783,7.195-8.896
			V184.955C491.653,179.828,487.504,175.678,482.377,175.678z M157.7,447.034l-139.147,40.92V136.235L157.7,95.316V447.034z
			 M315.4,487.953l-139.147-40.92V95.316l139.147,40.92V487.953z"/>
	</g>
</g>
<g>
	<g>
		<path d="M487.588,26.784c-32.54-32.549-85.49-32.558-118.067,0c-32.549,32.549-32.549,85.518,0,118.067
			c15.763,15.772,36.735,24.459,59.029,24.459c22.303,0,43.275-8.688,59.038-24.459C520.137,112.301,520.137,59.333,487.588,26.784z
			 M474.471,131.733c-12.266,12.266-28.572,19.024-45.92,19.024c-17.339,0-33.645-6.758-45.911-19.024
			c-25.32-25.32-25.32-66.512,0-91.832c12.655-12.655,29.288-18.988,45.92-18.988c16.623,0,33.256,6.332,45.911,18.988
			C499.791,65.221,499.791,106.413,474.471,131.733z"/>
	</g>
</g>
<g>
	<g>
		<path d="M458.246,56.407c-4.403-2.645-10.092-1.214-12.728,3.18l-22.829,38.039l-19.731-13.154
			c-4.276-2.836-10.037-1.694-12.864,2.573c-2.845,4.267-1.694,10.019,2.573,12.864l27.829,18.553
			c1.54,1.024,3.334,1.558,5.145,1.558c0.68,0,1.359-0.073,2.038-0.227c2.473-0.552,4.611-2.102,5.916-4.276l27.829-46.382
			C464.062,64.741,462.64,59.043,458.246,56.407z"/>
	</g>
</g>
<g>
</g>
<g>
</g>
<g>
</g>
<g>
</g>
<g>
</g>
<g>
</g>
<g>
</g>
<g>
</g>
<g>
</g>
<g>
</g>
<g>
</g>
<g>
</g>
<g>
</g>
<g>
</g>
<g>
</g>
</svg>
