<?xml version="1.0" encoding="iso-8859-1"?>
<!-- Generator: Adobe Illustrator 19.0.0, SVG Export Plug-In . SVG Version: 6.00 Build 0)  -->
<svg version="1.1" id="Layer_1" xmlns="http://www.w3.org/2000/svg" xmlns:xlink="http://www.w3.org/1999/xlink" x="0px" y="0px"
	 viewBox="0 0 512 512" style="enable-background:new 0 0 512 512;" xml:space="preserve">
<g>
	<g>
		<path d="M493.388,176.864c-5.146,0-9.309,4.164-9.309,9.309V449.18l-139.64,41.065V130.317c0-0.586-0.607-1.155-0.714-1.714
			c-0.034-0.195-0.364-0.38-0.411-0.57c-0.089-0.355-0.327-0.702-0.459-1.043c-0.079-0.209-0.234-0.409-0.327-0.609
			c-0.146-0.311-0.343-0.609-0.523-0.9c-0.111-0.184-0.234-0.368-0.359-0.543c-0.225-0.316-0.484-0.609-0.748-0.896
			c-0.109-0.118-0.207-0.248-0.323-0.361c-0.379-0.375-0.796-0.716-1.241-1.023c-0.155-0.107-0.33-0.189-0.491-0.289
			c-0.307-0.184-0.616-0.361-0.945-0.512c-0.225-0.102-0.457-0.182-0.689-0.266c-0.18-0.064-0.348-0.15-0.532-0.202L178.418,74.843
			c-0.157-0.048-0.316-0.046-0.473-0.082c-0.366-0.089-0.732-0.15-1.107-0.191c-0.352-0.041-0.698-0.068-1.05-0.068
			c-0.35,0-0.698,0.027-1.048,0.068c-0.373,0.041-0.739,0.102-1.102,0.188c-0.157,0.039-0.318,0.037-0.475,0.084L15.444,121.39
			c-3.964,1.164-6.141,4.8-6.141,8.927v372.374c0,2.936,0.841,5.7,3.195,7.455c1.628,1.218,3.314,1.855,5.305,1.855
			c0.882,0,1.628-0.127,2.491-0.382l155.565-45.774l155.598,45.774c0.216,0.064,0.418,0.096,0.636,0.143
			c0.193,0.041,0.375,0.098,0.573,0.125c0.461,0.073,0.923,0.114,1.389,0.114c0.466,0,0.927-0.041,1.391-0.114
			c0.195-0.027,0.384-0.084,0.577-0.125c0.22-0.048,0.439-0.08,0.654-0.143l158.8-46.547c3.961-1.164,7.221-4.8,7.221-8.927V186.173
			C502.698,181.028,498.534,176.864,493.388,176.864z M167.561,449.18l-139.64,41.065V137.281l139.64-41.065V449.18z
			 M325.82,490.245L186.18,449.18V96.216l139.64,41.065V490.245z"/>
	</g>
</g>
<g>
	<g>
		<path d="M482.999,65.229H365.833l49.274-49.313c3.636-3.636,3.636-9.548,0-13.184s-9.528-3.646-13.164-0.009L336.8,67.859
			c-0.443,0.443-0.843,0.927-1.191,1.452c-0.118,0.177-0.195,0.368-0.3,0.552c-0.195,0.341-0.4,0.675-0.55,1.043
			c-0.116,0.279-0.179,0.573-0.268,0.859c-0.086,0.291-0.198,0.573-0.259,0.873c-0.239,1.202-0.239,2.441,0,3.641
			c0.061,0.305,0.173,0.584,0.259,0.873c0.089,0.289,0.152,0.582,0.268,0.862c0.15,0.366,0.355,0.702,0.55,1.045
			c0.105,0.184,0.182,0.375,0.3,0.552c0.348,0.525,0.747,1.014,1.191,1.455l65.143,65.143c1.818,1.818,4.2,2.727,6.582,2.727
			c2.382,0,4.764-0.909,6.582-2.727c3.636-3.636,3.636-9.489,0-13.125l-49.274-49.235h117.167c5.146,0,9.309-4.164,9.309-9.309
			S488.145,65.229,482.999,65.229z"/>
	</g>
</g>
<g>
</g>
<g>
</g>
<g>
</g>
<g>
</g>
<g>
</g>
<g>
</g>
<g>
</g>
<g>
</g>
<g>
</g>
<g>
</g>
<g>
</g>
<g>
</g>
<g>
</g>
<g>
</g>
<g>
</g>
</svg>
