<?xml version="1.0" encoding="iso-8859-1"?>
<!-- Generator: Adobe Illustrator 19.0.0, SVG Export Plug-In . SVG Version: 6.00 Build 0)  -->
<svg version="1.1" id="Layer_1" xmlns="http://www.w3.org/2000/svg" xmlns:xlink="http://www.w3.org/1999/xlink" x="0px" y="0px"
	 viewBox="0 0 512 512" style="enable-background:new 0 0 512 512;" xml:space="preserve">
<g>
	<g>
		<path d="M493.382,176.873c-5.145,0-9.309,4.164-9.309,9.309v263l-139.636,41.064V130.327c0-0.586-0.607-1.155-0.711-1.714
			c-0.036-0.195-0.366-0.38-0.414-0.57c-0.089-0.355-0.327-0.702-0.459-1.043c-0.079-0.209-0.234-0.409-0.327-0.609
			c-0.146-0.311-0.343-0.609-0.523-0.9c-0.111-0.184-0.234-0.368-0.359-0.543c-0.225-0.316-0.484-0.609-0.748-0.896
			c-0.109-0.118-0.207-0.248-0.32-0.361c-0.382-0.375-0.798-0.716-1.243-1.023c-0.155-0.107-0.33-0.189-0.493-0.289
			c-0.304-0.184-0.613-0.361-0.943-0.512c-0.225-0.102-0.457-0.182-0.691-0.266c-0.177-0.064-0.346-0.15-0.53-0.202L178.42,74.855
			c-0.157-0.048-0.316-0.046-0.473-0.082c-0.368-0.089-0.734-0.15-1.109-0.193c-0.352-0.039-0.696-0.066-1.048-0.066
			c-0.35,0-0.696,0.027-1.046,0.066c-0.377,0.043-0.745,0.104-1.114,0.193c-0.154,0.036-0.313,0.034-0.466,0.082L15.45,121.4
			c-3.964,1.164-6.141,4.8-6.141,8.927v372.364c0,2.936,0.841,5.7,3.195,7.454c1.627,1.218,3.314,1.855,5.305,1.855
			c0.882,0,1.627-0.127,2.491-0.382l155.561-45.773l155.593,45.773c0.216,0.064,0.418,0.096,0.636,0.143
			c0.193,0.041,0.375,0.098,0.573,0.125c0.461,0.073,0.923,0.114,1.389,0.114c0.466,0,0.927-0.041,1.391-0.114
			c0.195-0.027,0.384-0.084,0.577-0.125c0.218-0.048,0.439-0.08,0.654-0.143l158.796-46.545c3.961-1.164,7.22-4.8,7.22-8.927
			V186.182C502.691,181.036,498.527,176.873,493.382,176.873z M167.564,449.182L27.927,490.245V137.291l139.636-41.064V449.182z
			 M325.818,490.245l-139.636-41.064V96.227l139.636,41.064V490.245z"/>
	</g>
</g>
<g>
	<g>
		<path d="M498.884,67.891L433.72,2.727c-3.636-3.636-9.527-3.636-13.164,0s-3.636,9.566,0,13.202l49.273,49.311H343.357
			c-5.145,0-9.309,4.164-9.309,9.309c0,5.145,4.164,9.309,9.309,9.309H469.83l-49.273,49.234c-3.636,3.636-3.636,9.507,0,13.143
			c1.818,1.818,4.2,2.718,6.582,2.718c2.382,0,4.764-0.914,6.582-2.732l65.164-65.166C502.52,77.42,502.52,71.527,498.884,67.891z"
			/>
	</g>
</g>
<g>
</g>
<g>
</g>
<g>
</g>
<g>
</g>
<g>
</g>
<g>
</g>
<g>
</g>
<g>
</g>
<g>
</g>
<g>
</g>
<g>
</g>
<g>
</g>
<g>
</g>
<g>
</g>
<g>
</g>
</svg>
