<?xml version="1.0" encoding="iso-8859-1"?>
<!-- Generator: Adobe Illustrator 19.0.0, SVG Export Plug-In . SVG Version: 6.00 Build 0)  -->
<svg version="1.1" id="Layer_1" xmlns="http://www.w3.org/2000/svg" xmlns:xlink="http://www.w3.org/1999/xlink" x="0px" y="0px"
	 viewBox="0 0 512 512" style="enable-background:new 0 0 512 512;" xml:space="preserve">
<g>
	<g>
		<path d="M499.469,166.6c-5.299,0-9.594,4.291-9.594,9.594v271.061l-143.917,42.322v-370.95c0-0.604-0.627-1.19-0.734-1.766
			c-0.037-0.201-0.375-0.391-0.425-0.588c-0.093-0.366-0.337-0.724-0.472-1.073c-0.083-0.218-0.243-0.426-0.342-0.635
			c-0.149-0.316-0.351-0.621-0.533-0.918c-0.117-0.192-0.246-0.384-0.375-0.567c-0.23-0.323-0.497-0.623-0.765-0.914
			c-0.114-0.126-0.217-0.262-0.337-0.379c-0.392-0.386-0.822-0.738-1.279-1.054c-0.16-0.11-0.338-0.192-0.504-0.295
			c-0.317-0.19-0.638-0.375-0.98-0.529c-0.227-0.105-0.465-0.185-0.702-0.271c-0.186-0.066-0.36-0.155-0.552-0.211L174.854,61.455
			c-0.156-0.047-0.316-0.045-0.473-0.082c-0.385-0.091-0.771-0.157-1.164-0.199c-0.358-0.042-0.711-0.066-1.069-0.068
			c-0.36,0.002-0.712,0.026-1.07,0.068c-0.393,0.042-0.778,0.105-1.163,0.199c-0.158,0.037-0.319,0.035-0.476,0.082L6.889,109.427
			c-4.081,1.199-6.33,4.947-6.33,9.201v383.777c0,3.026,0.868,5.875,3.29,7.683C5.526,511.344,7.271,512,9.318,512
			c0.909,0,1.678-0.131,2.568-0.394l160.328-47.176l160.363,47.176c0.226,0.066,0.437,0.099,0.664,0.148
			c0.198,0.044,0.382,0.101,0.582,0.129c0.477,0.075,0.952,0.117,1.431,0.117c0.48,0,0.958-0.042,1.435-0.117
			c0.2-0.028,0.392-0.087,0.59-0.129c0.227-0.049,0.455-0.082,0.679-0.148l163.662-47.972c4.08-1.199,7.443-4.947,7.443-9.201
			V176.195C509.064,170.892,504.768,166.6,499.469,166.6z M163.664,447.256L19.748,489.578V125.805l143.917-42.322V447.256z
			 M326.77,489.578l-143.917-42.322V83.483l143.917,42.322V489.578z"/>
	</g>
</g>
<g>
	<g>
		<path d="M481.496,70.656l27.134-27.144c3.748-3.748,3.748-9.819,0-13.567L481.496,2.811c-3.748-3.748-9.819-3.748-13.567,0
			L440.79,29.945L413.651,2.811c-3.748-3.748-9.819-3.748-13.567,0L372.95,29.945c-3.748,3.748-3.748,9.819,0,13.567l27.134,27.144
			L372.95,97.79c-3.748,3.748-3.748,9.819,0,13.567l27.134,27.134c3.748,3.748,9.819,3.748,13.567,0l27.139-27.134l27.139,27.134
			c1.874,1.874,4.329,2.811,6.783,2.811c2.455,0,4.91-0.937,6.784-2.811l27.134-27.134c3.748-3.748,3.748-9.819,0-13.567
			L481.496,70.656z M474.713,118.141l-27.139-27.134c-1.874-1.874-4.329-2.811-6.784-2.811c-2.455,0-4.909,0.937-6.784,2.811
			l-27.139,27.134L393.3,104.574l27.134-27.134c3.748-3.748,3.748-9.819,0-13.567L393.3,36.729l13.567-13.567l27.139,27.134
			c3.748,3.748,9.819,3.748,13.567,0l27.139-27.134l13.567,13.567l-27.134,27.144c-3.748,3.748-3.748,9.819,0,13.567l27.134,27.134
			L474.713,118.141z"/>
	</g>
</g>
<g>
</g>
<g>
</g>
<g>
</g>
<g>
</g>
<g>
</g>
<g>
</g>
<g>
</g>
<g>
</g>
<g>
</g>
<g>
</g>
<g>
</g>
<g>
</g>
<g>
</g>
<g>
</g>
<g>
</g>
</svg>
