<?xml version="1.0" encoding="iso-8859-1"?>
<!-- Generator: Adobe Illustrator 19.0.0, SVG Export Plug-In . SVG Version: 6.00 Build 0)  -->
<svg version="1.1" id="Layer_1" xmlns="http://www.w3.org/2000/svg" xmlns:xlink="http://www.w3.org/1999/xlink" x="0px" y="0px"
	 viewBox="0 0 512 512" style="enable-background:new 0 0 512 512;" xml:space="preserve">
<g>
	<g>
		<path d="M502.435,61.519L338.3,41.039c-0.065-0.007-0.278,0.004-0.34-0.004c-0.357-0.037-0.792-0.017-1.153-0.019
			c-0.36,0.001-0.755-0.019-1.112,0.019c-0.065,0.008-0.15-0.005-0.215,0.004L172.9,61.36L10.328,41.039
			c-2.91-0.36-5.26,0.535-7.46,2.485C0.667,45.464,0,48.264,0,51.199v389.12c0,5.165,3.255,9.52,8.375,10.16l163.545,20.48
			c0.42,0.055,0.7,0.08,1.12,0.08c0.42,0,0.777-0.025,1.197-0.08l162.533-20.321l162.55,20.321c0.42,0.055,0.84,0.08,1.26,0.08
			c2.48,0,5.49-0.9,7.37-2.565c2.2-1.94,4.05-4.74,4.05-7.675V71.679C512,66.514,507.555,62.159,502.435,61.519z M163.84,449.199
			l-143.36-17.92V259.66l78.5-95.956l64.86,176.045V449.199z M163.84,280.507l-52.425-140.688c-1.27-3.445-4.585-5.95-8.205-6.56
			c-3.65-0.615-6.855,0.77-9.185,3.615L20.48,227.306V62.799l143.36,17.92V280.507z M327.68,431.279l-143.36,17.92V345.447
			l143.36-44.8V431.279z M327.68,279.19l-143.36,44.799V80.719l143.36-17.92V279.19z M491.52,449.199l-143.36-17.92V308.983
			l54.185,46.951c1.87,1.605,3.945,2.465,6.365,2.465c0.59,0,1.04-0.05,1.63-0.155c3.02-0.535,6.16-2.395,7.66-5.065l73.52-129.777
			V449.199z M491.52,181.645l-84.73,150.619l-58.63-50.251V62.799l143.36,17.92V181.645z"/>
	</g>
</g>
<g>
</g>
<g>
</g>
<g>
</g>
<g>
</g>
<g>
</g>
<g>
</g>
<g>
</g>
<g>
</g>
<g>
</g>
<g>
</g>
<g>
</g>
<g>
</g>
<g>
</g>
<g>
</g>
<g>
</g>
</svg>
