<?xml version="1.0" encoding="iso-8859-1"?>
<!-- Generator: Adobe Illustrator 19.0.0, SVG Export Plug-In . SVG Version: 6.00 Build 0)  -->
<svg version="1.1" id="Layer_1" xmlns="http://www.w3.org/2000/svg" xmlns:xlink="http://www.w3.org/1999/xlink" x="0px" y="0px"
	 viewBox="0 0 512 512" style="enable-background:new 0 0 512 512;" xml:space="preserve">
<g>
	<g>
		<path d="M493.037,170.627c-5.236,0-9.482,4.241-9.482,9.482v267.87l-142.222,41.824V123.22c0-0.597-0.619-1.176-0.726-1.745
			c-0.037-0.199-0.37-0.387-0.42-0.581c-0.091-0.361-0.333-0.715-0.466-1.06c-0.082-0.215-0.241-0.421-0.338-0.627
			c-0.147-0.312-0.347-0.613-0.526-0.907c-0.116-0.19-0.243-0.379-0.37-0.56c-0.227-0.32-0.491-0.616-0.756-0.903
			c-0.112-0.125-0.214-0.259-0.333-0.375c-0.388-0.382-0.811-0.729-1.264-1.042c-0.159-0.109-0.333-0.19-0.498-0.292
			c-0.314-0.188-0.631-0.37-0.969-0.523c-0.224-0.104-0.459-0.183-0.693-0.268c-0.184-0.065-0.355-0.153-0.545-0.208L172.243,66.72
			c-0.155-0.046-0.315-0.044-0.47-0.081c-0.382-0.093-0.762-0.155-1.151-0.197c-0.354-0.042-0.702-0.065-1.057-0.067
			c-0.354,0.002-0.702,0.025-1.056,0.065c-0.391,0.044-0.773,0.109-1.156,0.199c-0.153,0.037-0.311,0.035-0.463,0.081L6.256,114.127
			C2.223,115.313,0,119.016,0,123.22v379.259c0,2.991,0.858,5.805,3.251,7.593c1.657,1.241,3.382,1.889,5.405,1.889
			c0.898,0,1.659-0.13,2.538-0.389l158.441-46.62l158.476,46.62c0.222,0.065,0.43,0.097,0.655,0.146
			c0.196,0.044,0.377,0.1,0.575,0.127c0.471,0.074,0.941,0.116,1.416,0.116c0.473,0,0.946-0.042,1.417-0.116
			c0.198-0.028,0.388-0.086,0.583-0.127c0.225-0.049,0.449-0.081,0.671-0.146l161.735-47.407c4.032-1.185,7.355-4.889,7.355-9.093
			V180.109C502.518,174.868,498.273,170.627,493.037,170.627z M161.185,447.979L18.963,489.803V130.313l142.222-41.824V447.979z
			 M322.37,489.803l-142.222-41.824V88.489l142.222,41.824V489.803z"/>
	</g>
</g>
<g>
	<g>
		<path d="M501.419,47.447h-36.826V9.442c0-5.241-5.345-9.403-10.581-9.403h-37.926c-5.236,0-8.382,4.162-8.382,9.403v38.005
			h-39.026c-5.236,0-8.382,4.162-8.382,9.403v37.926c0,5.241,3.146,9.56,8.382,9.56h39.026v37.847c0,5.241,3.146,9.56,8.382,9.56
			h37.926c5.236,0,10.581-4.32,10.581-9.56v-37.847h36.826c5.236,0,10.581-4.32,10.581-9.56V56.85
			C512,51.609,506.655,47.447,501.419,47.447z M493.037,85.373h-39.026c-5.236,0-8.382,4.162-8.382,9.403v38.005h-18.963V94.775
			c0-5.241-5.345-9.403-10.581-9.403h-36.826V66.41h36.826c5.236,0,10.581-4.32,10.581-9.56V19.002h18.963V56.85
			c0,5.241,3.146,9.56,8.382,9.56h39.026V85.373z"/>
	</g>
</g>
<g>
</g>
<g>
</g>
<g>
</g>
<g>
</g>
<g>
</g>
<g>
</g>
<g>
</g>
<g>
</g>
<g>
</g>
<g>
</g>
<g>
</g>
<g>
</g>
<g>
</g>
<g>
</g>
<g>
</g>
</svg>
