<?xml version="1.0" encoding="iso-8859-1"?>
<!-- Generator: Adobe Illustrator 19.0.0, SVG Export Plug-In . SVG Version: 6.00 Build 0)  -->
<svg version="1.1" id="Layer_1" xmlns="http://www.w3.org/2000/svg" xmlns:xlink="http://www.w3.org/1999/xlink" x="0px" y="0px"
	 viewBox="0 0 512 512" style="enable-background:new 0 0 512 512;" xml:space="preserve">
<g>
	<g>
		<path d="M205.804,140.549H55.216c-3.804,0-7.279,2.103-8.98,5.505l-20.078,40.134c-1.412,2.83-1.412,6.141,0,8.969l20.078,40.196
			c1.701,3.402,5.176,5.588,8.98,5.588h150.588c5.544,0,11.203-4.585,11.203-10.129v-80.314
			C217.007,144.955,211.348,140.549,205.804,140.549z M196.929,220.863H61.422l-15.059-30.118l15.059-30.118h135.507V220.863z"/>
	</g>
</g>
<g>
	<g>
		<path d="M485.843,156.059l-20.078-40.118c-1.701-3.402-5.176-5.51-8.981-5.51H306.196c-5.544,0-8.875,4.406-8.875,9.95v80.314
			c0,5.544,3.331,10.129,8.875,10.129h150.588c3.804,0,7.279-2.191,8.981-5.593l20.078-40.18
			C487.255,162.222,487.255,158.887,485.843,156.059z M450.578,190.745H317.399V130.51h133.179l15.059,30.118L450.578,190.745z"/>
	</g>
</g>
<g>
	<g>
		<path d="M485.843,276.552l-20.078-40.145c-1.701-3.402-5.176-5.505-8.981-5.505H306.196c-5.544,0-8.875,4.406-8.875,9.95v80.314
			c0,5.544,3.331,10.129,8.875,10.129h150.588c3.804,0,7.279-2.191,8.981-5.593l20.078-40.18
			C487.255,282.693,487.255,279.38,485.843,276.552z M450.578,311.216H317.399V250.98h133.179l15.059,30.118L450.578,311.216z"/>
	</g>
</g>
<g>
	<g>
		<path d="M277.243,0h-40.157c-5.544,0-10.039,4.495-10.039,10.039v60.235c0,5.544,4.495,10.039,10.039,10.039h40.157
			c5.544,0,10.039-4.495,10.039-10.039V10.039C287.282,4.495,282.787,0,277.243,0z M267.203,60.235h-20.078V20.078h20.078V60.235z"
			/>
	</g>
</g>
<g>
	<g>
		<path d="M306.196,401.569h-18.914V110.342c0-5.544-5.659-9.95-11.203-9.95h-40.157c-5.544,0-8.875,4.406-8.875,9.95v291.227
			h-21.243c-5.544,0-8.875,4.406-8.875,9.95v90.353c0,5.544,3.331,10.129,8.875,10.129h100.392c5.544,0,11.203-4.585,11.203-10.129
			v-90.353C317.399,405.974,311.74,401.569,306.196,401.569z M247.125,120.471h20.078v281.098h-20.078V120.471z M297.321,491.922
			h-80.314v-70.274h18.914h40.157h21.243V491.922z"/>
	</g>
</g>
<g>
</g>
<g>
</g>
<g>
</g>
<g>
</g>
<g>
</g>
<g>
</g>
<g>
</g>
<g>
</g>
<g>
</g>
<g>
</g>
<g>
</g>
<g>
</g>
<g>
</g>
<g>
</g>
<g>
</g>
</svg>
