<?xml version="1.0" encoding="iso-8859-1"?>
<!-- Generator: Adobe Illustrator 19.0.0, SVG Export Plug-In . SVG Version: 6.00 Build 0)  -->
<svg version="1.1" id="Layer_1" xmlns="http://www.w3.org/2000/svg" xmlns:xlink="http://www.w3.org/1999/xlink" x="0px" y="0px"
	 viewBox="0 0 512 512" style="enable-background:new 0 0 512 512;" xml:space="preserve">
<g>
	<g>
		<path d="M265.962,341.426V151.09c35.556-4.684,65.821-36.627,65.821-75.238C331.783,34.028,297.48,0,255.656,0
			c-41.824,0-75.439,34.028-75.439,75.852c0,38.611,28.856,70.554,66.782,75.238v190.336
			c-137.481,1.923-209.142,44.811-209.142,85.241c0,41.366,76.155,85.333,217.799,85.333c141.643,0,218.487-43.968,218.487-85.333
			C474.143,386.237,401.073,343.348,265.962,341.426z M198.492,75.852c0-31.37,25.519-56.889,56.889-56.889
			c31.37,0,56.889,25.518,56.889,56.889c0,31.37-25.518,56.889-56.889,56.889C224.011,132.741,198.492,107.222,198.492,75.852z
			 M255.381,493.037c-117.338,0-198.561-34.977-198.561-66.37c0-30.539,76.402-64.46,190.179-66.282v56.801
			c0,5.236,4.245,9.482,9.482,9.482s9.481-4.246,9.481-9.482v-56.801c111.407,1.823,189.08,35.743,189.08,66.282
			C455.042,458.06,372.719,493.037,255.381,493.037z"/>
	</g>
</g>
<g>
</g>
<g>
</g>
<g>
</g>
<g>
</g>
<g>
</g>
<g>
</g>
<g>
</g>
<g>
</g>
<g>
</g>
<g>
</g>
<g>
</g>
<g>
</g>
<g>
</g>
<g>
</g>
<g>
</g>
</svg>
