<?xml version="1.0" encoding="iso-8859-1"?>
<!-- Generator: Adobe Illustrator 19.0.0, SVG Export Plug-In . SVG Version: 6.00 Build 0)  -->
<svg version="1.1" id="Layer_1" xmlns="http://www.w3.org/2000/svg" xmlns:xlink="http://www.w3.org/1999/xlink" x="0px" y="0px"
	 viewBox="0 0 512 512" style="enable-background:new 0 0 512 512;" xml:space="preserve">
<g>
	<g>
		<path d="M256,0C148.914,0,61.793,87.121,61.793,194.207c0,104.56,179.974,306.319,187.638,314.862
			c1.672,1.862,4.06,2.931,6.569,2.931c2.509,0,4.897-1.069,6.569-2.931c7.664-8.543,187.638-210.302,187.638-314.862
			C450.207,87.121,363.086,0,256,0z M256,489.784C223.25,452.052,79.448,281.371,79.448,194.207
			c0-97.354,79.203-176.552,176.552-176.552c97.349,0,176.552,79.198,176.552,176.552C432.552,281.345,288.75,452.043,256,489.784z"
			/>
	</g>
</g>
<g>
	<g>
		<path d="M256,79.448c-58.409,0-105.931,47.517-105.931,105.931c0,58.414,47.522,105.931,105.931,105.931
			s105.931-47.517,105.931-105.931C361.931,126.965,314.409,79.448,256,79.448z M256,273.655c-48.677,0-88.276-39.603-88.276-88.276
			c0-48.672,39.599-88.276,88.276-88.276c48.677,0,88.276,39.603,88.276,88.276C344.276,234.052,304.677,273.655,256,273.655z"/>
	</g>
</g>
<g>
	<g>
		<path d="M266.349,183.246l26.935-26.935c3.448-3.448,3.448-9.034,0-12.483c-3.448-3.448-9.035-3.448-12.483,0l-26.935,26.935
			l-26.935-26.935c-3.448-3.448-9.035-3.448-12.483,0c-3.448,3.448-3.448,9.034,0,12.483l26.935,26.935l-26.935,26.935
			c-3.448,3.448-3.448,9.034,0,12.483c1.724,1.724,3.983,2.586,6.241,2.586c2.259,0,4.517-0.862,6.242-2.586l26.935-26.935
			l26.935,26.935c1.724,1.724,3.983,2.586,6.241,2.586c2.259,0,4.517-0.862,6.242-2.586c3.448-3.448,3.448-9.034,0-12.483
			L266.349,183.246z"/>
	</g>
</g>
<g>
</g>
<g>
</g>
<g>
</g>
<g>
</g>
<g>
</g>
<g>
</g>
<g>
</g>
<g>
</g>
<g>
</g>
<g>
</g>
<g>
</g>
<g>
</g>
<g>
</g>
<g>
</g>
<g>
</g>
</svg>
