<?xml version="1.0" encoding="iso-8859-1"?>
<!-- Generator: Adobe Illustrator 19.0.0, SVG Export Plug-In . SVG Version: 6.00 Build 0)  -->
<svg version="1.1" id="Layer_1" xmlns="http://www.w3.org/2000/svg" xmlns:xlink="http://www.w3.org/1999/xlink" x="0px" y="0px"
	 viewBox="0 0 512 512" style="enable-background:new 0 0 512 512;" xml:space="preserve">
<g>
	<g>
		<path d="M256,0c-67.498,0-122.411,54.913-122.411,122.411c0,64.629,109.088,201.477,113.728,207.27
			c2.109,2.635,5.303,4.168,8.683,4.168c3.38,0,6.575-1.532,8.683-4.168c4.641-5.792,113.728-142.641,113.728-207.27
			C378.411,54.913,323.498,0,256,0z M256,304.685c-34.374-44.671-100.155-139.071-100.155-182.274
			c0-55.223,44.926-100.154,100.155-100.154c55.229,0,100.155,44.931,100.155,100.154C356.154,165.587,290.374,260.004,256,304.685z
			"/>
	</g>
</g>
<g>
	<g>
		<path d="M256,44.513c-42.948,0-77.898,34.944-77.898,77.898c0,42.954,34.95,77.898,77.898,77.898
			c42.948,0,77.898-34.944,77.898-77.898C333.898,79.457,298.948,44.513,256,44.513z M256,178.052
			c-30.679,0-55.641-24.963-55.641-55.641c0-30.679,24.963-55.641,55.641-55.641c30.679,0,55.641,24.962,55.641,55.641
			C311.641,153.09,286.679,178.052,256,178.052z"/>
	</g>
</g>
<g>
	<g>
		<path d="M509.277,282.159c-2.108-2.478-5.206-3.853-8.455-3.853H347.808c-3.499,0-6.803,1.597-8.9,4.401L256,393.227
			l-82.908-110.509c-2.098-2.802-5.401-4.412-8.901-4.412H11.178c-3.249,0-6.346,1.375-8.455,3.853
			c-2.119,2.472-3.043,5.723-2.532,8.934l33.385,211.476c0.848,5.411,5.51,9.432,10.987,9.432h422.875
			c5.477,0,10.14-4.032,10.987-9.444l33.385-211.437C512.32,287.908,511.396,284.631,509.277,282.159z M457.928,489.743H54.072
			L24.197,300.563h134.431L247.1,418.475c4.195,5.608,13.606,5.632,17.801,0.025l88.472-117.936h134.43L457.928,489.743z"/>
	</g>
</g>
<g>
</g>
<g>
</g>
<g>
</g>
<g>
</g>
<g>
</g>
<g>
</g>
<g>
</g>
<g>
</g>
<g>
</g>
<g>
</g>
<g>
</g>
<g>
</g>
<g>
</g>
<g>
</g>
<g>
</g>
</svg>
