<?xml version="1.0" encoding="iso-8859-1"?>
<!-- Generator: Adobe Illustrator 19.0.0, SVG Export Plug-In . SVG Version: 6.00 Build 0)  -->
<svg version="1.1" id="Layer_1" xmlns="http://www.w3.org/2000/svg" xmlns:xlink="http://www.w3.org/1999/xlink" x="0px" y="0px"
	 viewBox="0 0 512 512" style="enable-background:new 0 0 512 512;" xml:space="preserve">
<g>
	<g>
		<path d="M256,0C148.914,0,61.793,87.121,61.793,194.207c0,104.56,179.974,306.319,187.638,314.862
			c1.672,1.862,4.06,2.931,6.569,2.931c2.509,0,4.897-1.069,6.569-2.931c7.664-8.543,187.638-210.302,187.638-314.862
			C450.207,87.121,363.086,0,256,0z M256,489.784C223.25,452.052,79.448,281.371,79.448,194.207
			c0-97.354,79.198-176.552,176.552-176.552c97.353,0,176.552,79.198,176.552,176.552C432.552,281.345,288.75,452.043,256,489.784z"
			/>
	</g>
</g>
<g>
	<g>
		<path d="M351.052,126.804c-1.672-2.009-4.155-3.144-6.776-3.144H199.664l-15.215-30.431c-1.5-2.991-4.552-4.879-7.897-4.879
			h-26.483c-4.879,0-8.828,3.948-8.828,8.828c0,4.879,3.948,8.828,8.828,8.828h21.026l14.659,29.282l17.427,95.862
			c0.759,4.198,4.414,7.269,8.681,7.269h114.759c4.267,0,7.923-3.088,8.681-7.287l17.655-97.123
			C353.431,131.431,352.733,128.813,351.052,126.804z M319.25,220.763H219.233l-14.448-79.448h128.914L319.25,220.763z"/>
	</g>
</g>
<g>
	<g>
		<path d="M229.517,256c-9.733,0-17.655,7.922-17.655,17.655s7.923,17.655,17.655,17.655c9.733,0,17.655-7.922,17.655-17.655
			S239.25,256,229.517,256z"/>
	</g>
</g>
<g>
	<g>
		<path d="M300.138,256c-9.733,0-17.655,7.922-17.655,17.655s7.922,17.655,17.655,17.655c9.733,0,17.655-7.922,17.655-17.655
			S309.871,256,300.138,256z"/>
	</g>
</g>
<g>
</g>
<g>
</g>
<g>
</g>
<g>
</g>
<g>
</g>
<g>
</g>
<g>
</g>
<g>
</g>
<g>
</g>
<g>
</g>
<g>
</g>
<g>
</g>
<g>
</g>
<g>
</g>
<g>
</g>
</svg>
