<?xml version="1.0" encoding="iso-8859-1"?>
<!-- Generator: Adobe Illustrator 19.0.0, SVG Export Plug-In . SVG Version: 6.00 Build 0)  -->
<svg version="1.1" id="Layer_1" xmlns="http://www.w3.org/2000/svg" xmlns:xlink="http://www.w3.org/1999/xlink" x="0px" y="0px"
	 viewBox="0 0 512 512" style="enable-background:new 0 0 512 512;" xml:space="preserve">
<g>
	<g>
		<path d="M256,0C148.914,0,61.793,87.121,61.793,194.207c0,104.56,179.974,306.319,187.638,314.862
			c1.672,1.862,4.06,2.931,6.569,2.931c2.509,0,4.897-1.069,6.569-2.931c7.664-8.543,187.638-210.302,187.638-314.862
			C450.207,87.121,363.086,0,256,0z M256,489.784C223.25,452.052,79.448,281.371,79.448,194.207
			c0-97.354,79.198-176.552,176.552-176.552c97.353,0,176.552,79.198,176.552,176.552C432.552,281.345,288.75,452.043,256,489.784z"
			/>
	</g>
</g>
<g>
	<g>
		<path d="M300.138,256.073h-25.459V150.069c0-4.879-4.972-8.754-9.851-8.754h-26.483c-4.879,0-8.828,3.948-8.828,8.828
			c0,4.879,3.948,8.828,8.828,8.828h18.679v97.103h-27.507c-4.879,0-8.828,3.948-8.828,8.828c0,4.879,3.948,8.828,8.828,8.828
			h70.621c4.879,0,8.828-3.948,8.828-8.828C308.966,260.022,305.017,256.073,300.138,256.073z"/>
	</g>
</g>
<g>
	<g>
		<path d="M256,79.448c-9.733,0-17.655,7.922-17.655,17.655s7.922,17.655,17.655,17.655c9.733,0,17.655-7.922,17.655-17.655
			S265.733,79.448,256,79.448z"/>
	</g>
</g>
<g>
</g>
<g>
</g>
<g>
</g>
<g>
</g>
<g>
</g>
<g>
</g>
<g>
</g>
<g>
</g>
<g>
</g>
<g>
</g>
<g>
</g>
<g>
</g>
<g>
</g>
<g>
</g>
<g>
</g>
</svg>
