<?xml version="1.0" encoding="iso-8859-1"?>
<!-- Generator: Adobe Illustrator 19.0.0, SVG Export Plug-In . SVG Version: 6.00 Build 0)  -->
<svg version="1.1" id="Layer_1" xmlns="http://www.w3.org/2000/svg" xmlns:xlink="http://www.w3.org/1999/xlink" x="0px" y="0px"
	 viewBox="0 0 512 512" style="enable-background:new 0 0 512 512;" xml:space="preserve">
<g>
	<g>
		<path d="M256,0C148.914,0,61.793,87.121,61.793,194.207c0,104.56,179.974,306.319,187.638,314.862
			c1.672,1.862,4.06,2.931,6.569,2.931c2.509,0,4.897-1.069,6.569-2.931c7.664-8.543,187.638-210.302,187.638-314.862
			C450.207,87.121,363.086,0,256,0z M256,489.784C223.25,452.052,79.448,281.371,79.448,194.207
			c0-97.354,79.198-176.552,176.552-176.552c97.353,0,176.552,79.198,176.552,176.552C432.552,281.345,288.75,452.043,256,489.784z"
			/>
	</g>
</g>
<g>
	<g>
		<path d="M256,70.621c-58.414,0-105.931,47.517-105.931,105.931c0,58.414,47.517,105.931,105.931,105.931
			c58.414,0,105.931-47.517,105.931-105.931C361.931,118.138,314.414,70.621,256,70.621z M265.851,264.384v-34.866
			c0-4.879-3.948-8.828-8.828-8.828c-4.879,0-8.828,3.948-8.828,8.828v34.866c-41.931-4.155-75.875-37-80.03-78.931h34.869
			c4.879,0,8.828-3.948,8.828-8.828s-3.948-8.828-8.828-8.828h-34.869c4.155-41.931,38.099-74.927,80.03-79.08v34.868
			c0,4.879,3.948,8.828,8.828,8.828c4.879,0,8.828-3.948,8.828-8.828V88.718c39.724,4.153,73.828,37.149,77.981,79.08h-34.867
			c-4.879,0-8.828,3.948-8.828,8.828s3.948,8.828,8.828,8.828h34.867C339.679,227.384,305.576,260.228,265.851,264.384z"/>
	</g>
</g>
<g>
</g>
<g>
</g>
<g>
</g>
<g>
</g>
<g>
</g>
<g>
</g>
<g>
</g>
<g>
</g>
<g>
</g>
<g>
</g>
<g>
</g>
<g>
</g>
<g>
</g>
<g>
</g>
<g>
</g>
</svg>
