<?xml version="1.0" encoding="iso-8859-1"?>
<!-- Generator: Adobe Illustrator 19.0.0, SVG Export Plug-In . SVG Version: 6.00 Build 0)  -->
<svg version="1.1" id="Layer_1" xmlns="http://www.w3.org/2000/svg" xmlns:xlink="http://www.w3.org/1999/xlink" x="0px" y="0px"
	 viewBox="0 0 512 512" style="enable-background:new 0 0 512 512;" xml:space="preserve">
<g>
	<g>
		<path d="M256,0C148.914,0,61.793,87.121,61.793,194.207c0,104.56,179.974,306.319,187.638,314.862
			c1.672,1.862,4.06,2.931,6.569,2.931c2.509,0,4.897-1.069,6.569-2.931c7.664-8.543,187.638-210.302,187.638-314.862
			C450.207,87.121,363.086,0,256,0z M256,489.784C223.25,452.052,79.448,281.371,79.448,194.207
			c0-97.354,79.203-176.552,176.552-176.552c97.349,0,176.552,79.198,176.552,176.552C432.552,281.345,288.75,452.043,256,489.784z"
			/>
	</g>
</g>
<g>
	<g>
		<path d="M353.103,132.487H158.897c-4.875,0-7.804,3.875-7.804,8.754v52.966c0,4.879,2.929,8.901,7.804,8.901h194.207
			c4.875,0,9.851-4.022,9.851-8.901v-52.966C362.955,136.362,357.978,132.487,353.103,132.487z M345.3,185.453H168.748v-35.31H345.3
			V185.453z"/>
	</g>
</g>
<g>
</g>
<g>
</g>
<g>
</g>
<g>
</g>
<g>
</g>
<g>
</g>
<g>
</g>
<g>
</g>
<g>
</g>
<g>
</g>
<g>
</g>
<g>
</g>
<g>
</g>
<g>
</g>
<g>
</g>
</svg>
