<?xml version="1.0" encoding="iso-8859-1"?>
<!-- Generator: Adobe Illustrator 19.0.0, SVG Export Plug-In . SVG Version: 6.00 Build 0)  -->
<svg version="1.1" id="Layer_1" xmlns="http://www.w3.org/2000/svg" xmlns:xlink="http://www.w3.org/1999/xlink" x="0px" y="0px"
	 viewBox="0 0 512 512" style="enable-background:new 0 0 512 512;" xml:space="preserve">
<g>
	<g>
		<path d="M256,0C148.914,0,61.793,87.121,61.793,194.207c0,104.56,179.974,306.319,187.638,314.862
			c1.672,1.862,4.06,2.931,6.569,2.931c2.509,0,4.897-1.069,6.569-2.931c7.664-8.543,187.638-210.302,187.638-314.862
			C450.207,87.121,363.086,0,256,0z M256,489.784C223.25,452.052,79.448,281.371,79.448,194.207
			c0-97.354,79.198-176.552,176.552-176.552c97.353,0,176.552,79.198,176.552,176.552C432.552,281.345,288.75,452.043,256,489.784z"
			/>
	</g>
</g>
<g>
	<g>
		<path d="M353.103,79.522H178.42c-0.603,0-0.713-0.244-1.358-0.244c-4.879,0-8.315,3.912-8.315,8.791v0.207v88.276v105.931
			c0,4.879,3.948,8.828,8.828,8.828s8.828-3.948,8.828-8.828v-97.03h166.7c4.879,0,9.851-4.022,9.851-8.901V88.276
			C362.955,83.397,357.983,79.522,353.103,79.522z M212.886,167.797h-26.483v-26.483h26.483V167.797z M212.886,123.659h-26.483
			V97.177h26.483V123.659z M257.024,167.797h-26.483v-26.483h26.483V167.797z M257.024,123.659h-26.483V97.177h26.483V123.659z
			 M301.162,167.797h-26.483v-26.483h26.483V167.797z M301.162,123.659h-26.483V97.177h26.483V123.659z M345.3,167.797h-26.483
			v-26.483H345.3V167.797z M345.3,123.659h-26.483V97.177H345.3V123.659z"/>
	</g>
</g>
<g>
</g>
<g>
</g>
<g>
</g>
<g>
</g>
<g>
</g>
<g>
</g>
<g>
</g>
<g>
</g>
<g>
</g>
<g>
</g>
<g>
</g>
<g>
</g>
<g>
</g>
<g>
</g>
<g>
</g>
</svg>
