<?xml version="1.0" encoding="iso-8859-1"?>
<!-- Generator: Adobe Illustrator 19.0.0, SVG Export Plug-In . SVG Version: 6.00 Build 0)  -->
<svg version="1.1" id="Layer_1" xmlns="http://www.w3.org/2000/svg" xmlns:xlink="http://www.w3.org/1999/xlink" x="0px" y="0px"
	 viewBox="0 0 512 512" style="enable-background:new 0 0 512 512;" xml:space="preserve">
<g>
	<g>
		<path d="M256,0C148.914,0,61.793,87.121,61.793,194.207c0,104.56,179.974,306.319,187.638,314.862
			c1.672,1.862,4.06,2.931,6.569,2.931c2.509,0,4.897-1.069,6.569-2.931c7.664-8.543,187.638-210.302,187.638-314.862
			C450.207,87.121,363.086,0,256,0z M256,489.784C223.25,452.052,79.448,281.371,79.448,194.207
			c0-97.354,79.203-176.552,176.552-176.552c97.349,0,176.552,79.198,176.552,176.552C432.552,281.345,288.75,452.043,256,489.784z"
			/>
	</g>
</g>
<g>
	<g>
		<path d="M308.914,61.866h-88.172c-14.629,0-25.511,11.797-25.511,26.384v27.067c-22.069,2.644-55.058,15.295-62.133,50.674
			c-5.056,25.285,2.304,32.828,16.231,36.793c6.336,1.81,10.208,2.802,10.208,17.905c0,34.724,20.246,48.261,35.694,51.882v1.136
			c0,14.578,10.882,26.504,25.511,26.504h88.172c14.629,0,27.558-11.927,27.558-26.504V150.069V88.25
			C336.472,73.664,323.543,61.866,308.914,61.866z M195.231,150.069v103.972c-8.828-3.179-18.167-11.511-18.167-33.351
			c0-26.233-11.942-31.759-22.895-34.879c-5.435-1.552-6.507-1.965-3.633-16.353c5.36-26.8,29.246-34.205,44.694-36.254V150.069z
			 M212.886,88.25L212.886,88.25c0-4.853,2.959-8.729,7.856-8.729h88.172c4.896,0,9.903,3.875,9.903,8.729v53.065H212.886V88.25z
			 M318.817,273.707c0,4.836-5.007,8.849-9.903,8.849h-88.172c-4.897,0-7.856-4.013-7.856-8.849V158.97h105.931V273.707z"/>
	</g>
</g>
<g>
</g>
<g>
</g>
<g>
</g>
<g>
</g>
<g>
</g>
<g>
</g>
<g>
</g>
<g>
</g>
<g>
</g>
<g>
</g>
<g>
</g>
<g>
</g>
<g>
</g>
<g>
</g>
<g>
</g>
</svg>
