<?xml version="1.0" encoding="iso-8859-1"?>
<!-- Generator: Adobe Illustrator 19.0.0, SVG Export Plug-In . SVG Version: 6.00 Build 0)  -->
<svg version="1.1" id="Layer_1" xmlns="http://www.w3.org/2000/svg" xmlns:xlink="http://www.w3.org/1999/xlink" x="0px" y="0px"
	 viewBox="0 0 512 512" style="enable-background:new 0 0 512 512;" xml:space="preserve">
<g>
	<g>
		<path d="M256,0C148.914,0,61.793,87.121,61.793,194.207c0,104.56,179.974,306.319,187.638,314.862
			c1.672,1.862,4.06,2.931,6.569,2.931c2.509,0,4.897-1.069,6.569-2.931c7.664-8.543,187.638-210.302,187.638-314.862
			C450.207,87.121,363.086,0,256,0z M256,489.784C223.25,452.052,79.448,281.371,79.448,194.207
			c0-97.354,79.203-176.552,176.552-176.552c97.349,0,176.552,79.198,176.552,176.552C432.552,281.345,288.75,452.043,256,489.784z"
			/>
	</g>
</g>
<g>
	<g>
		<path d="M373.539,164.845c-1.039-3.198-3.802-5.526-7.129-6.009l-70.819-10.293l-31.677-64.172
			c-2.974-6.034-12.853-6.034-15.828,0l-31.677,64.172l-70.819,10.293c-3.328,0.483-6.09,2.81-7.129,6.008
			c-1.039,3.19-0.173,6.698,2.237,9.043l51.246,49.957l-12.099,70.534c-0.565,3.31,0.797,6.655,3.513,8.629
			c2.724,1.991,6.328,2.241,9.297,0.672L256,270.388l63.345,33.293c1.293,0.681,2.703,1.017,4.108,1.017
			c1.828,0,3.651-0.569,5.19-1.69c2.716-1.974,4.078-5.319,3.513-8.629l-12.099-70.534l51.246-49.957
			C373.711,171.543,374.578,168.034,373.539,164.845z M304.41,214.44c-2.082,2.026-3.03,4.948-2.543,7.81l9.862,57.483
			l-51.621-27.129c-1.285-0.681-2.698-1.017-4.108-1.017c-1.409,0-2.823,0.336-4.108,1.017l-51.621,27.129l9.862-57.483
			c0.487-2.862-0.461-5.784-2.543-7.81l-41.763-40.707l57.711-8.388c2.879-0.414,5.362-2.224,6.647-4.828L256,108.224l25.815,52.293
			c1.284,2.604,3.767,4.414,6.647,4.828l57.711,8.388L304.41,214.44z"/>
	</g>
</g>
<g>
</g>
<g>
</g>
<g>
</g>
<g>
</g>
<g>
</g>
<g>
</g>
<g>
</g>
<g>
</g>
<g>
</g>
<g>
</g>
<g>
</g>
<g>
</g>
<g>
</g>
<g>
</g>
<g>
</g>
</svg>
