<?xml version="1.0" encoding="iso-8859-1"?>
<!-- Generator: Adobe Illustrator 19.0.0, SVG Export Plug-In . SVG Version: 6.00 Build 0)  -->
<svg version="1.1" id="Layer_1" xmlns="http://www.w3.org/2000/svg" xmlns:xlink="http://www.w3.org/1999/xlink" x="0px" y="0px"
	 viewBox="0 0 512 512" style="enable-background:new 0 0 512 512;" xml:space="preserve">
<g>
	<g>
		<path d="M256,0C148.914,0,61.793,87.121,61.793,194.207c0,104.56,179.974,306.319,187.638,314.862
			c1.672,1.862,4.06,2.931,6.569,2.931c2.509,0,4.897-1.069,6.569-2.931c7.664-8.543,187.638-210.302,187.638-314.862
			C450.207,87.121,363.086,0,256,0z M256,489.784C223.25,452.052,79.448,281.371,79.448,194.207
			c0-97.354,79.198-176.552,176.552-176.552c97.353,0,176.552,79.198,176.552,176.552C432.552,281.345,288.75,452.043,256,489.784z"
			/>
	</g>
</g>
<g>
	<g>
		<path d="M353.103,70.694h-52.966c-4.879,0-7.804,3.875-7.804,8.754v61.866h-79.448V79.448c0-4.879-4.972-8.754-9.851-8.754
			h-52.966c-4.879,0-7.804,3.875-7.804,8.754v194.207c0,4.879,2.925,8.901,7.804,8.901h52.966c4.879,0,9.851-4.022,9.851-8.901
			v-61.72h79.448v61.72c0,4.879,2.925,8.901,7.804,8.901h52.966c4.879,0,9.851-4.022,9.851-8.901V79.448
			C362.955,74.569,357.983,70.694,353.103,70.694z M345.3,264.901h-35.31v-61.866c0-4.879-4.972-8.754-9.851-8.754h-97.103
			c-4.879,0-7.804,3.875-7.804,8.754v61.866h-35.31V88.349h35.31v61.72c0,4.879,2.925,8.901,7.804,8.901h97.103
			c4.879,0,9.851-4.022,9.851-8.901v-61.72h35.31V264.901z"/>
	</g>
</g>
<g>
</g>
<g>
</g>
<g>
</g>
<g>
</g>
<g>
</g>
<g>
</g>
<g>
</g>
<g>
</g>
<g>
</g>
<g>
</g>
<g>
</g>
<g>
</g>
<g>
</g>
<g>
</g>
<g>
</g>
</svg>
