<?xml version="1.0" encoding="iso-8859-1"?>
<!-- Generator: Adobe Illustrator 19.0.0, SVG Export Plug-In . SVG Version: 6.00 Build 0)  -->
<svg version="1.1" id="Layer_1" xmlns="http://www.w3.org/2000/svg" xmlns:xlink="http://www.w3.org/1999/xlink" x="0px" y="0px"
	 viewBox="0 0 512 512" style="enable-background:new 0 0 512 512;" xml:space="preserve">
<g>
	<g>
		<path d="M256,0C148.914,0,61.793,87.121,61.793,194.207c0,104.56,179.974,306.319,187.638,314.862
			c1.672,1.862,4.06,2.931,6.569,2.931c2.509,0,4.897-1.069,6.569-2.931c7.664-8.543,187.638-210.302,187.638-314.862
			C450.207,87.121,363.086,0,256,0z M256,489.784C223.25,452.052,79.448,281.371,79.448,194.207
			c0-97.354,79.198-176.552,176.552-176.552c97.353,0,176.552,79.198,176.552,176.552C432.552,281.345,288.75,452.043,256,489.784z"
			/>
	</g>
</g>
<g>
	<g>
		<path d="M256,70.621c-58.414,0-105.931,47.517-105.931,105.931c0,58.414,47.517,105.931,105.931,105.931
			c58.414,0,105.931-47.517,105.931-105.931C361.931,118.138,314.414,70.621,256,70.621z M256,264.828
			c-48.672,0-88.276-39.603-88.276-88.276c0-48.672,39.603-88.276,88.276-88.276s88.276,39.603,88.276,88.276
			C344.276,225.224,304.672,264.828,256,264.828z"/>
	</g>
</g>
<g>
	<g>
		<path d="M305.879,143.371c-3.69-3.172-9.267-2.759-12.44,0.957l-46.767,54.552l-28.569-28.569c-3.448-3.448-9.035-3.448-12.483,0
			c-3.448,3.448-3.448,9.034,0,12.483l35.31,35.31c1.655,1.655,3.905,2.586,6.241,2.586c0.112,0,0.224,0,0.336-0.009
			c2.457-0.095,4.767-1.207,6.362-3.078l52.966-61.793C310.017,152.112,309.586,146.543,305.879,143.371z"/>
	</g>
</g>
<g>
</g>
<g>
</g>
<g>
</g>
<g>
</g>
<g>
</g>
<g>
</g>
<g>
</g>
<g>
</g>
<g>
</g>
<g>
</g>
<g>
</g>
<g>
</g>
<g>
</g>
<g>
</g>
<g>
</g>
</svg>
