<?xml version="1.0" encoding="iso-8859-1"?>
<!-- Generator: Adobe Illustrator 19.0.0, SVG Export Plug-In . SVG Version: 6.00 Build 0)  -->
<svg version="1.1" id="Layer_1" xmlns="http://www.w3.org/2000/svg" xmlns:xlink="http://www.w3.org/1999/xlink" x="0px" y="0px"
	 viewBox="0 0 512 512" style="enable-background:new 0 0 512 512;" xml:space="preserve">
<g>
	<g>
		<path d="M256,0C152.846,0,68.923,83.923,68.923,187.077C68.923,283.99,147.923,512,256,512
			c108.077,0,187.077-228.01,187.077-324.923C443.077,83.923,359.154,0,256,0z M256,492.308
			c-88.192,0-167.385-207.322-167.385-305.231c0-92.298,75.087-167.385,167.385-167.385s167.385,75.086,167.385,167.385
			C423.385,284.985,344.193,492.308,256,492.308z"/>
	</g>
</g>
<g>
	<g>
		<path d="M256,88.615c-54.289,0-98.462,44.168-98.462,98.461c0,54.293,44.173,98.462,98.462,98.462s98.462-44.168,98.462-98.462
			C354.462,132.784,310.289,88.615,256,88.615z M256,265.846c-43.433,0-78.769-35.337-78.769-78.769
			c0-43.433,35.337-78.769,78.769-78.769c43.433,0,78.769,35.336,78.769,78.769C334.769,230.51,299.433,265.846,256,265.846z"/>
	</g>
</g>
<g>
</g>
<g>
</g>
<g>
</g>
<g>
</g>
<g>
</g>
<g>
</g>
<g>
</g>
<g>
</g>
<g>
</g>
<g>
</g>
<g>
</g>
<g>
</g>
<g>
</g>
<g>
</g>
<g>
</g>
</svg>
