<?xml version="1.0" encoding="iso-8859-1"?>
<!-- Generator: Adobe Illustrator 19.0.0, SVG Export Plug-In . SVG Version: 6.00 Build 0)  -->
<svg version="1.1" id="Layer_1" xmlns="http://www.w3.org/2000/svg" xmlns:xlink="http://www.w3.org/1999/xlink" x="0px" y="0px"
	 viewBox="0 0 512 512" style="enable-background:new 0 0 512 512;" xml:space="preserve">
<g>
	<g>
		<path d="M256,0C148.914,0,61.793,87.121,61.793,194.207c0,104.56,179.974,306.319,187.638,314.862
			c1.672,1.862,4.06,2.931,6.569,2.931c2.509,0,4.897-1.069,6.569-2.931c7.664-8.543,187.638-210.302,187.638-314.862
			C450.207,87.121,363.086,0,256,0z M256,489.784C223.25,452.052,79.448,281.371,79.448,194.207
			c0-97.354,79.203-176.552,176.552-176.552c97.349,0,176.552,79.198,176.552,176.552C432.552,281.345,288.75,452.043,256,489.784z"
			/>
	</g>
</g>
<g>
	<g>
		<path d="M256,61.793c-58.409,0-105.931,47.517-105.931,105.931c0,58.414,47.522,105.931,105.931,105.931
			s105.931-47.517,105.931-105.931C361.931,109.31,314.409,61.793,256,61.793z M336.883,132.487h-30.723
			c-3.014-17.655-8.339-33.869-15.36-45.804C311.362,95.539,327.9,112.625,336.883,132.487z M256,79.522
			c12.474,0,26.053,22.069,32.097,52.966h-64.194C229.947,101.591,243.526,79.522,256,79.522z M221.199,86.683
			c-7.021,11.935-12.346,28.149-15.36,45.804h-30.722C184.099,112.625,200.637,95.539,221.199,86.683z M167.724,167.797
			c0-6.045,0.613-11.034,1.776-17.655h34.213c-0.441,6.621-0.679,11.608-0.679,17.655s0.238,11.034,0.679,17.655H169.5
			C168.337,178.832,167.724,173.843,167.724,167.797z M175.117,203.108h30.722c3.014,17.655,8.339,33.869,15.36,45.804
			C200.637,240.056,184.099,222.97,175.117,203.108z M256,256.073c-12.474,0-26.053-22.069-32.097-52.966h64.194
			C282.053,234.004,268.474,256.073,256,256.073z M221.471,185.453c-0.505-6.621-0.781-11.569-0.781-17.655
			s0.276-11.034,0.781-17.655h69.057c0.505,6.621,0.782,11.569,0.782,17.655s-0.277,11.034-0.782,17.655H221.471z M290.8,248.912
			c7.02-11.935,12.346-28.149,15.36-45.804h30.723C327.9,222.97,311.362,240.056,290.8,248.912z M308.286,185.453
			c0.441-6.621,0.68-11.608,0.68-17.655s-0.239-11.034-0.68-17.655h34.214c1.164,6.621,1.777,11.61,1.777,17.655
			s-0.613,11.034-1.777,17.655H308.286z"/>
	</g>
</g>
<g>
</g>
<g>
</g>
<g>
</g>
<g>
</g>
<g>
</g>
<g>
</g>
<g>
</g>
<g>
</g>
<g>
</g>
<g>
</g>
<g>
</g>
<g>
</g>
<g>
</g>
<g>
</g>
<g>
</g>
</svg>
