<?xml version="1.0" encoding="iso-8859-1"?>
<!-- Generator: Adobe Illustrator 19.0.0, SVG Export Plug-In . SVG Version: 6.00 Build 0)  -->
<svg version="1.1" id="Layer_1" xmlns="http://www.w3.org/2000/svg" xmlns:xlink="http://www.w3.org/1999/xlink" x="0px" y="0px"
	 viewBox="0 0 512 512" style="enable-background:new 0 0 512 512;" xml:space="preserve">
<g>
	<g>
		<path d="M256,0C148.914,0,61.793,87.121,61.793,194.207c0,104.56,179.974,306.319,187.638,314.862
			c1.672,1.862,4.06,2.931,6.569,2.931c2.509,0,4.897-1.069,6.569-2.931c7.664-8.543,187.638-210.302,187.638-314.862
			C450.207,87.121,363.086,0,256,0z M256,489.784C223.25,452.052,79.448,281.371,79.448,194.207
			c0-97.354,79.203-176.552,176.552-176.552c97.349,0,176.552,79.198,176.552,176.552C432.552,281.345,288.75,452.043,256,489.784z"
			/>
	</g>
</g>
<g>
	<g>
		<path d="M354.127,123.586c-3.099,0-6.621,0.56-8.828,1.543v-10.422c0-14.578-11.879-26.431-26.483-26.431
			c-14.604,0-26.483,11.853-26.483,26.431v26.608h-70.621v-26.608c0-14.578-11.879-26.431-26.483-26.431
			c-14.603,0-26.483,11.853-26.483,26.431v10.422c-4.414-0.983-5.728-1.543-8.828-1.543c-14.604,0-26.483,11.871-26.483,26.466
			v35.345c0,14.595,11.879,26.466,26.483,26.466c3.099,0,4.414-0.563,8.828-1.545v10.424c0,14.578,11.879,26.431,26.483,26.431
			c14.604,0,26.483-11.853,26.483-26.431v-17.634h70.621v17.634c0,14.578,11.879,26.431,26.483,26.431
			c14.603,0,26.483-11.853,26.483-26.431v-10.424c2.207,0.983,5.728,1.545,8.828,1.545c14.604,0,26.483-11.871,26.483-26.466
			v-35.345C380.61,135.457,368.731,123.586,354.127,123.586z M168.748,185.397c0,4.94-3.879,8.81-8.828,8.81
			s-8.828-3.871-8.828-8.81v-35.345c0-4.94,3.879-8.81,8.828-8.81s8.828,3.871,8.828,8.81V185.397z M204.058,150.069v44.138v26.534
			c0,4.836-3.961,8.776-8.828,8.776c-4.866,0-8.828-3.94-8.828-8.776v-35.345v-35.345v-35.345c0-4.922,3.879-8.776,8.828-8.776
			c4.866,0,8.828,3.94,8.828,8.776V150.069z M292.334,185.453h-70.621V158.97h70.621V185.453z M327.644,150.052v35.345v35.345
			c0,4.836-3.961,8.776-8.828,8.776c-4.866,0-8.828-3.94-8.828-8.776v-26.534v-44.138v-35.362c0-4.922,3.879-8.776,8.828-8.776
			c4.866,0,8.828,3.94,8.828,8.776V150.052z M362.955,185.397c0,4.94-3.879,8.81-8.828,8.81c-4.948,0-8.828-3.871-8.828-8.81
			v-35.345c0-4.94,3.879-8.81,8.828-8.81c4.948,0,8.828,3.871,8.828,8.81V185.397z"/>
	</g>
</g>
<g>
</g>
<g>
</g>
<g>
</g>
<g>
</g>
<g>
</g>
<g>
</g>
<g>
</g>
<g>
</g>
<g>
</g>
<g>
</g>
<g>
</g>
<g>
</g>
<g>
</g>
<g>
</g>
<g>
</g>
</svg>
