<?xml version="1.0" encoding="iso-8859-1"?>
<!-- Generator: Adobe Illustrator 19.0.0, SVG Export Plug-In . SVG Version: 6.00 Build 0)  -->
<svg version="1.1" id="Layer_1" xmlns="http://www.w3.org/2000/svg" xmlns:xlink="http://www.w3.org/1999/xlink" x="0px" y="0px"
	 viewBox="0 0 512 512" style="enable-background:new 0 0 512 512;" xml:space="preserve">
<g>
	<g>
		<path d="M256,0C148.914,0,61.793,87.121,61.793,194.207c0,104.56,179.974,306.319,187.638,314.862
			c1.672,1.862,4.06,2.931,6.569,2.931c2.509,0,4.897-1.069,6.569-2.931c7.664-8.543,187.638-210.302,187.638-314.862
			C450.207,87.121,363.086,0,256,0z M256,489.784C223.25,452.052,79.448,281.371,79.448,194.207
			c0-97.354,79.203-176.552,176.552-176.552c97.349,0,176.552,79.198,176.552,176.552C432.552,281.345,288.75,452.043,256,489.784z"
			/>
	</g>
</g>
<g>
	<g>
		<path d="M388.414,176.625h-16.631v-35.31h16.631c4.875,0,8.828-3.948,8.828-8.828s-3.953-8.828-8.828-8.828h-16.631v-17.728
			c0-4.879-3.953-8.828-8.828-8.828c-4.875,0-8.828,3.948-8.828,8.828v17.728h-17.655v-17.728c0-4.879-3.953-8.828-8.828-8.828
			c-4.875,0-8.828,3.948-8.828,8.828v17.728h-17.655v-17.728c0-4.879-3.953-8.828-8.828-8.828c-4.875,0-8.828,3.948-8.828,8.828
			v17.728h-17.655v-17.728c0-4.879-3.953-8.828-8.828-8.828c-4.875,0-8.828,3.948-8.828,8.828v17.728h-17.655v-17.728
			c0-4.879-3.953-8.828-8.828-8.828c-4.875,0-8.828,3.948-8.828,8.828v17.728h-17.655v-17.728c0-4.879-3.953-8.828-8.828-8.828
			c-4.875,0-8.828,3.948-8.828,8.828v17.728H159.92v-17.728c0-4.879-3.953-8.828-8.828-8.828c-4.875,0-8.828,3.948-8.828,8.828
			v17.728h-18.679c-4.875,0-8.828,3.948-8.828,8.828s3.953,8.828,8.828,8.828h18.679v35.31h-18.679
			c-4.875,0-8.828,3.948-8.828,8.828s3.953,8.828,8.828,8.828h18.679v17.582c0,4.879,3.953,8.828,8.828,8.828
			c4.875,0,8.828-3.948,8.828-8.828V194.28h17.655v17.582c0,4.879,3.953,8.828,8.828,8.828c4.875,0,8.828-3.948,8.828-8.828V194.28
			h17.655v17.582c0,4.879,3.953,8.828,8.828,8.828c4.875,0,8.828-3.948,8.828-8.828V194.28h17.655v17.582
			c0,4.879,3.953,8.828,8.828,8.828c4.875,0,8.828-3.948,8.828-8.828V194.28h17.655v17.582c0,4.879,3.953,8.828,8.828,8.828
			c4.875,0,8.828-3.948,8.828-8.828V194.28h17.655v17.582c0,4.879,3.953,8.828,8.828,8.828c4.875,0,8.828-3.948,8.828-8.828V194.28
			h17.655v17.582c0,4.879,3.953,8.828,8.828,8.828c4.875,0,8.828-3.948,8.828-8.828V194.28h16.631c4.875,0,8.828-3.948,8.828-8.828
			S393.289,176.625,388.414,176.625z M177.575,176.625H159.92v-35.31h17.655V176.625z M212.886,176.625h-17.655v-35.31h17.655
			V176.625z M248.196,176.625h-17.655v-35.31h17.655V176.625z M283.507,176.625h-17.655v-35.31h17.655V176.625z M318.817,176.625
			h-17.655v-35.31h17.655V176.625z M354.127,176.625h-17.655v-35.31h17.655V176.625z"/>
	</g>
</g>
<g>
</g>
<g>
</g>
<g>
</g>
<g>
</g>
<g>
</g>
<g>
</g>
<g>
</g>
<g>
</g>
<g>
</g>
<g>
</g>
<g>
</g>
<g>
</g>
<g>
</g>
<g>
</g>
<g>
</g>
</svg>
