<?xml version="1.0" encoding="iso-8859-1"?>
<!-- Generator: Adobe Illustrator 19.0.0, SVG Export Plug-In . SVG Version: 6.00 Build 0)  -->
<svg version="1.1" id="Layer_1" xmlns="http://www.w3.org/2000/svg" xmlns:xlink="http://www.w3.org/1999/xlink" x="0px" y="0px"
	 viewBox="0 0 512 512" style="enable-background:new 0 0 512 512;" xml:space="preserve">
<g>
	<g>
		<path d="M256,0C148.914,0,61.793,87.121,61.793,194.207c0,104.56,179.974,306.319,187.638,314.862
			c1.672,1.862,4.06,2.931,6.569,2.931c2.509,0,4.897-1.069,6.569-2.931c7.664-8.543,187.638-210.302,187.638-314.862
			C450.207,87.121,363.086,0,256,0z M256,489.784C223.25,452.052,79.448,281.371,79.448,194.207
			c0-97.354,79.198-176.552,176.552-176.552c97.353,0,176.552,79.198,176.552,176.552C432.552,281.345,288.75,452.043,256,489.784z"
			/>
	</g>
</g>
<g>
	<g>
		<path d="M370.759,167.797h-22.827l11.414-11.451c3.448-3.448,3.448-9.054,0-12.502c-3.448-3.448-9.035-3.42-12.483,0.028
			l-23.896,23.924h-23.718c-3.519-17.655-17.948-30.974-33.397-34.496v-23.716l23.384-23.897c3.448-3.448,3.194-9.034-0.254-12.483
			c-3.448-3.448-8.651-3.448-12.099,0l-11.03,11.414V61.793c0-4.879-3.948-8.828-8.828-8.828c-4.879,0-8.828,3.948-8.828,8.828
			v22.828l-11.927-11.414c-3.448-3.448-9.289-3.448-12.737,0c-3.448,3.448-3.065,9.034,0.384,12.483l24.28,23.897v23.716
			c-17.655,3.522-31.924,16.841-35.444,34.496h-23.718l-23.896-23.933c-3.448-3.448-9.035-3.468-12.483-0.019
			c-3.448,3.448-3.448,9.062,0,12.511l11.414,11.442h-22.828c-4.879,0-8.828,3.948-8.828,8.828s3.948,8.828,8.828,8.828h22.828
			l-11.414,11.377c-3.448,3.448-3.448,9.015,0,12.463c1.724,1.724,3.983,2.578,6.241,2.578c2.259,0,4.517-0.83,6.242-2.554
			l23.896-23.864h23.718c3.519,17.655,17.789,30.828,35.444,34.347v23.718l-24.409,23.897c-3.448,3.448-3.703,9.034-0.254,12.483
			c3.448,3.448,9.418,3.448,12.866,0l11.797-11.414v22.828c0,4.879,3.948,8.828,8.828,8.828c4.879,0,8.828-3.948,8.828-8.828
			v-22.828l10.901,11.414c1.724,1.724,3.728,2.586,5.987,2.586c2.259,0,4.388-0.862,6.112-2.586
			c3.448-3.448,3.896-9.034,0.448-12.483l-23.448-23.897V219.8c15.448-3.519,29.877-16.692,33.396-34.347h23.718l23.896,23.86
			c1.724,1.724,3.983,2.567,6.241,2.567c2.259,0,4.517-0.871,6.242-2.595c3.448-3.448,3.448-9.002,0-12.45l-11.414-11.381h22.828
			c4.879,0,8.828-3.948,8.828-8.828S375.638,167.797,370.759,167.797z M256,203.034c-14.603,0-26.483-11.879-26.483-26.483
			c0-14.603,11.879-26.483,26.483-26.483c14.603,0,26.483,11.879,26.483,26.483C282.483,191.155,270.603,203.034,256,203.034z"/>
	</g>
</g>
<g>
</g>
<g>
</g>
<g>
</g>
<g>
</g>
<g>
</g>
<g>
</g>
<g>
</g>
<g>
</g>
<g>
</g>
<g>
</g>
<g>
</g>
<g>
</g>
<g>
</g>
<g>
</g>
<g>
</g>
</svg>
