<?xml version="1.0" encoding="iso-8859-1"?>
<!-- Generator: Adobe Illustrator 19.0.0, SVG Export Plug-In . SVG Version: 6.00 Build 0)  -->
<svg version="1.1" id="Layer_1" xmlns="http://www.w3.org/2000/svg" xmlns:xlink="http://www.w3.org/1999/xlink" x="0px" y="0px"
	 viewBox="0 0 512 512" style="enable-background:new 0 0 512 512;" xml:space="preserve">
<g>
	<g>
		<path d="M256,0C148.914,0,61.793,87.121,61.793,194.207c0,104.56,179.974,306.319,187.638,314.862
			c1.672,1.862,4.06,2.931,6.569,2.931c2.509,0,4.897-1.069,6.569-2.931c7.664-8.543,187.638-210.302,187.638-314.862
			C450.207,87.121,363.086,0,256,0z M256,489.784C223.25,452.052,79.448,281.371,79.448,194.207
			c0-97.354,79.198-176.552,176.552-176.552c97.353,0,176.552,79.198,176.552,176.552C432.552,281.345,288.75,452.043,256,489.784z"
			/>
	</g>
</g>
<g>
	<g>
		<path d="M256,105.931c-38.94,0-70.621,31.681-70.621,70.621c0,38.94,31.681,70.621,70.621,70.621
			c38.94,0,70.621-31.681,70.621-70.621C326.621,137.612,294.94,105.931,256,105.931z M256,229.517
			c-29.207,0-52.966-23.759-52.966-52.966c0-29.207,23.759-52.966,52.966-52.966c29.207,0,52.966,23.759,52.966,52.966
			C308.966,205.759,285.207,229.517,256,229.517z"/>
	</g>
</g>
<g>
	<g>
		<path d="M257.024,264.828c-4.879,0-8.828,3.948-8.828,8.828v35.31c0,4.879,3.948,8.828,8.828,8.828
			c4.879,0,8.828-3.948,8.828-8.828v-35.31C265.851,268.776,261.903,264.828,257.024,264.828z"/>
	</g>
</g>
<g>
	<g>
		<path d="M355.871,263.94l-24.966-24.974c-3.448-3.448-9.034-3.448-12.483,0c-3.448,3.448-3.448,9.035,0,12.483l24.966,24.974
			c1.724,1.724,3.983,2.586,6.241,2.586c2.259,0,4.517-0.862,6.241-2.586C359.319,272.974,359.319,267.388,355.871,263.94z"/>
	</g>
</g>
<g>
	<g>
		<path d="M193.578,238.965c-3.448-3.448-9.035-3.448-12.483,0l-24.966,24.974c-3.448,3.448-3.448,9.034,0,12.483
			c1.724,1.724,3.983,2.586,6.242,2.586c2.259,0,4.517-0.862,6.241-2.586l24.966-24.974
			C197.026,248,197.026,242.414,193.578,238.965z"/>
	</g>
</g>
<g>
	<g>
		<path d="M388.414,167.797h-35.31c-4.879,0-8.828,3.948-8.828,8.828s3.948,8.828,8.828,8.828h35.31
			c4.879,0,8.828-3.948,8.828-8.828S393.293,167.797,388.414,167.797z"/>
	</g>
</g>
<g>
	<g>
		<path d="M355.871,76.672c-3.448-3.448-9.034-3.448-12.483,0l-24.966,24.974c-3.448,3.448-3.448,9.034,0,12.483
			c1.724,1.724,3.983,2.586,6.241,2.586c2.259,0,4.517-0.862,6.241-2.586l24.966-24.974
			C359.319,85.707,359.319,80.121,355.871,76.672z"/>
	</g>
</g>
<g>
	<g>
		<path d="M257.024,35.31c-4.879,0-8.828,3.948-8.828,8.828v35.31c0,4.879,3.948,8.828,8.828,8.828c4.879,0,8.828-3.948,8.828-8.828
			v-35.31C265.851,39.259,261.903,35.31,257.024,35.31z"/>
	</g>
</g>
<g>
	<g>
		<path d="M158.897,167.797h-35.31c-4.879,0-8.828,3.948-8.828,8.828s3.948,8.828,8.828,8.828h35.31
			c4.879,0,8.828-3.948,8.828-8.828S163.776,167.797,158.897,167.797z"/>
	</g>
</g>
<g>
	<g>
		<path d="M193.578,101.647l-24.966-24.974c-3.448-3.448-9.035-3.448-12.483,0c-3.448,3.448-3.448,9.034,0,12.483l24.966,24.974
			c1.724,1.724,3.983,2.586,6.242,2.586c2.259,0,4.517-0.862,6.241-2.586C197.026,110.681,197.026,105.095,193.578,101.647z"/>
	</g>
</g>
<g>
</g>
<g>
</g>
<g>
</g>
<g>
</g>
<g>
</g>
<g>
</g>
<g>
</g>
<g>
</g>
<g>
</g>
<g>
</g>
<g>
</g>
<g>
</g>
<g>
</g>
<g>
</g>
<g>
</g>
</svg>
