<?xml version="1.0" encoding="iso-8859-1"?>
<!-- Generator: Adobe Illustrator 19.0.0, SVG Export Plug-In . SVG Version: 6.00 Build 0)  -->
<svg version="1.1" id="Layer_1" xmlns="http://www.w3.org/2000/svg" xmlns:xlink="http://www.w3.org/1999/xlink" x="0px" y="0px"
	 viewBox="0 0 512 512" style="enable-background:new 0 0 512 512;" xml:space="preserve">
<g>
	<g>
		<path d="M256,0C148.914,0,61.793,87.121,61.793,194.207c0,104.56,179.974,306.319,187.638,314.862
			c1.672,1.862,4.06,2.931,6.569,2.931c2.509,0,4.897-1.069,6.569-2.931c7.664-8.543,187.638-210.302,187.638-314.862
			C450.207,87.121,363.086,0,256,0z M256,489.784C223.25,452.052,79.448,281.371,79.448,194.207
			c0-97.354,79.198-176.552,176.552-176.552c97.353,0,176.552,79.198,176.552,176.552C432.552,281.345,288.75,452.043,256,489.784z"
			/>
	</g>
</g>
<g>
	<g>
		<path d="M256,70.621c-34.069,0-61.793,27.724-61.793,61.793c0,4.879,3.948,8.828,8.828,8.828c4.879,0,8.828-3.948,8.828-8.828
			c0-24.336,19.802-44.138,44.138-44.138c24.336,0,44.138,19.802,44.138,44.138c0,24.336-19.291,44.138-43.627,44.138
			c-4.879,0-8.315,3.948-8.315,8.828v44.138c0,4.879,3.948,8.828,8.828,8.828c4.879,0,8.828-3.948,8.828-8.828v-35.94
			c28.69-4.293,52.453-30.086,52.453-61.164C318.304,98.345,290.069,70.621,256,70.621z"/>
	</g>
</g>
<g>
	<g>
		<path d="M256,256c-14.603,0-26.483,11.879-26.483,26.483c0,14.604,11.879,26.483,26.483,26.483
			c14.603,0,26.483-11.879,26.483-26.483C282.483,267.879,270.603,256,256,256z M256,291.31c-4.871,0-8.828-3.957-8.828-8.828
			c0-4.871,3.957-8.828,8.828-8.828c4.871,0,8.828,3.957,8.828,8.828C264.828,287.353,260.871,291.31,256,291.31z"/>
	</g>
</g>
<g>
</g>
<g>
</g>
<g>
</g>
<g>
</g>
<g>
</g>
<g>
</g>
<g>
</g>
<g>
</g>
<g>
</g>
<g>
</g>
<g>
</g>
<g>
</g>
<g>
</g>
<g>
</g>
<g>
</g>
</svg>
