<?xml version="1.0" encoding="iso-8859-1"?>
<!-- Generator: Adobe Illustrator 19.0.0, SVG Export Plug-In . SVG Version: 6.00 Build 0)  -->
<svg version="1.1" id="Layer_1" xmlns="http://www.w3.org/2000/svg" xmlns:xlink="http://www.w3.org/1999/xlink" x="0px" y="0px"
	 viewBox="0 0 512 512" style="enable-background:new 0 0 512 512;" xml:space="preserve">
<g>
	<g>
		<path d="M256,0C148.914,0,61.793,87.121,61.793,194.207c0,104.56,179.974,306.319,187.638,314.862
			c1.672,1.862,4.06,2.931,6.569,2.931c2.509,0,4.897-1.069,6.569-2.931c7.664-8.543,187.638-210.302,187.638-314.862
			C450.207,87.121,363.086,0,256,0z M256,489.784C223.25,452.052,79.448,281.371,79.448,194.207
			c0-97.354,79.198-176.552,176.552-176.552c97.353,0,176.552,79.198,176.552,176.552C432.552,281.345,288.75,452.043,256,489.784z"
			/>
	</g>
</g>
<g>
	<g>
		<path d="M335.692,86.138c-0.19-0.776-5.425-19.043-21.33-26.353c-10.327-4.758-22.396-3.623-35.827,3.084
			c-32.698,16.345-74.44,16.653-75.448,16.653c-0.009,0-0.009,0-0.017,0c-2.035,0-4.084,0.778-5.748,2.433
			c-1.664,1.655-2.091,3.761-2.091,6.106v185.595c0,4.879,3.948,8.828,8.828,8.828c4.879,0,8.828-3.948,8.828-8.828V169.422
			c15.448,2.138,45.384,3.397,66.53-12.259c19.767-14.603,40.151,6.854,41.004,7.75c2.466,2.655,6.694,3.534,10.073,2.198
			c3.379-1.328,5.978-4.586,5.978-8.216V88.276C336.472,87.552,335.873,86.836,335.692,86.138z M269.429,142.974
			c-17.138,12.681-45.509,10.483-56.543,8.595V96.595c13.241-0.879,46.599-4.353,74.056-18.078
			c8.354-4.181,15.507-5.095,20.731-2.733c6.819,3.086,8.938,11.147,11.144,13.785v51.543
			C303.369,133.69,286.998,129.965,269.429,142.974z"/>
	</g>
</g>
<g>
</g>
<g>
</g>
<g>
</g>
<g>
</g>
<g>
</g>
<g>
</g>
<g>
</g>
<g>
</g>
<g>
</g>
<g>
</g>
<g>
</g>
<g>
</g>
<g>
</g>
<g>
</g>
<g>
</g>
</svg>
