<?xml version="1.0" encoding="iso-8859-1"?>
<!-- Generator: Adobe Illustrator 19.0.0, SVG Export Plug-In . SVG Version: 6.00 Build 0)  -->
<svg version="1.1" id="Layer_1" xmlns="http://www.w3.org/2000/svg" xmlns:xlink="http://www.w3.org/1999/xlink" x="0px" y="0px"
	 viewBox="0 0 512 512" style="enable-background:new 0 0 512 512;" xml:space="preserve">
<g>
	<g>
		<path d="M256,0C148.914,0,61.793,87.121,61.793,194.207c0,104.56,179.974,306.319,187.638,314.862
			c1.672,1.862,4.06,2.931,6.569,2.931c2.509,0,4.897-1.069,6.569-2.931c7.664-8.543,187.638-210.302,187.638-314.862
			C450.207,87.121,363.086,0,256,0z M256,489.784C223.25,452.052,79.448,281.371,79.448,194.207
			c0-97.354,79.198-176.552,176.552-176.552c97.353,0,176.552,79.198,176.552,176.552C432.552,281.345,288.75,452.043,256,489.784z"
			/>
	</g>
</g>
<g>
	<g>
		<path d="M375.785,133.983L261.026,54.534c-3.017-2.086-7.035-2.086-10.052,0l-114.759,79.448
			c-3.172,2.198-4.552,6.244-3.397,9.925c1.147,3.69,4.56,6.235,8.422,6.235h229.517c3.862,0,7.276-2.545,8.422-6.235
			C380.336,140.226,378.957,136.181,375.785,133.983z M169.5,132.487L256,72.599l86.5,59.888H169.5z"/>
	</g>
</g>
<g>
	<g>
		<path d="M151.093,167.724c-4.879,0-8.828,3.948-8.828,8.828v52.966c0,4.879,3.948,8.828,8.828,8.828
			c4.879,0,8.828-3.948,8.828-8.828v-52.966C159.92,171.672,155.972,167.724,151.093,167.724z"/>
	</g>
</g>
<g>
	<g>
		<path d="M186.403,167.724c-4.879,0-8.828,3.948-8.828,8.828v52.966c0,4.879,3.948,8.828,8.828,8.828
			c4.879,0,8.828-3.948,8.828-8.828v-52.966C195.231,171.672,191.282,167.724,186.403,167.724z"/>
	</g>
</g>
<g>
	<g>
		<path d="M221.713,167.724c-4.879,0-8.828,3.948-8.828,8.828v52.966c0,4.879,3.948,8.828,8.828,8.828s8.828-3.948,8.828-8.828
			v-52.966C230.541,171.672,226.593,167.724,221.713,167.724z"/>
	</g>
</g>
<g>
	<g>
		<path d="M257.024,167.724c-4.879,0-8.828,3.948-8.828,8.828v52.966c0,4.879,3.948,8.828,8.828,8.828
			c4.879,0,8.828-3.948,8.828-8.828v-52.966C265.851,171.672,261.903,167.724,257.024,167.724z"/>
	</g>
</g>
<g>
	<g>
		<path d="M292.334,167.724c-4.879,0-8.828,3.948-8.828,8.828v52.966c0,4.879,3.948,8.828,8.828,8.828s8.828-3.948,8.828-8.828
			v-52.966C301.162,171.672,297.213,167.724,292.334,167.724z"/>
	</g>
</g>
<g>
	<g>
		<path d="M327.644,167.724c-4.879,0-8.828,3.948-8.828,8.828v52.966c0,4.879,3.948,8.828,8.828,8.828s8.828-3.948,8.828-8.828
			v-52.966C336.472,171.672,332.524,167.724,327.644,167.724z"/>
	</g>
</g>
<g>
	<g>
		<path d="M362.955,167.724c-4.879,0-8.828,3.948-8.828,8.828v52.966c0,4.879,3.948,8.828,8.828,8.828
			c4.879,0,8.828-3.948,8.828-8.828v-52.966C371.782,171.672,367.834,167.724,362.955,167.724z"/>
	</g>
</g>
<g>
	<g>
		<path d="M362.955,256.073h-220.69c-4.875,0-8.828,3.953-8.828,8.828v35.31c0,4.875,3.953,8.828,8.828,8.828h220.69
			c4.875,0,8.828-3.953,8.828-8.828v-35.31C371.782,260.026,367.83,256.073,362.955,256.073z M354.127,291.384H151.093v-17.655
			h203.035V291.384z"/>
	</g>
</g>
<g>
</g>
<g>
</g>
<g>
</g>
<g>
</g>
<g>
</g>
<g>
</g>
<g>
</g>
<g>
</g>
<g>
</g>
<g>
</g>
<g>
</g>
<g>
</g>
<g>
</g>
<g>
</g>
<g>
</g>
</svg>
