<?xml version="1.0" encoding="iso-8859-1"?>
<!-- Generator: Adobe Illustrator 19.0.0, SVG Export Plug-In . SVG Version: 6.00 Build 0)  -->
<svg version="1.1" id="Layer_1" xmlns="http://www.w3.org/2000/svg" xmlns:xlink="http://www.w3.org/1999/xlink" x="0px" y="0px"
	 viewBox="0 0 512 512" style="enable-background:new 0 0 512 512;" xml:space="preserve">
<g>
	<g>
		<path d="M256,0C148.914,0,61.793,87.121,61.793,194.207c0,104.56,179.974,306.319,187.638,314.862
			c1.672,1.862,4.06,2.931,6.569,2.931c2.509,0,4.897-1.069,6.569-2.931c7.664-8.543,187.638-210.302,187.638-314.862
			C450.207,87.121,363.086,0,256,0z M256,489.784C223.25,452.052,79.448,281.371,79.448,194.207
			c0-97.354,79.203-176.552,176.552-176.552c97.349,0,176.552,79.198,176.552,176.552C432.552,281.345,288.75,452.043,256,489.784z"
			/>
	</g>
</g>
<g>
	<g>
		<path d="M239.369,79.448c-4.875,0-8.828,3.948-8.828,8.828v52.948c0,16.427-13.241,30.229-26.483,34.164V88.276
			c0-4.879-3.953-8.828-8.828-8.828c-4.875,0-8.828,3.948-8.828,8.828v87.112c-15.448-3.935-26.483-17.737-26.483-34.164V88.276
			c0-4.879-3.953-8.828-8.828-8.828c-4.875,0-8.828,3.948-8.828,8.828v52.948c0,26.205,17.655,48.013,44.138,52.233v89.026
			c0,4.879,3.953,8.828,8.828,8.828c4.875,0,8.828-3.948,8.828-8.828v-89.026c24.276-4.218,44.138-26.028,44.138-52.233V88.276
			C248.196,83.397,244.244,79.448,239.369,79.448z"/>
	</g>
</g>
<g>
	<g>
		<path d="M299.057,92.233c-2.082-3.336-5.873-4.888-9.662-3.836c-3.789,1.086-5.889,4.552-5.889,8.491v185.595
			c0,4.879,3.953,8.828,8.828,8.828c4.875,0,8.828-3.948,8.828-8.828v-61.72h34.287c4.875,0,8.828-3.985,8.828-8.864
			C344.276,165.769,300.915,95.215,299.057,92.233z M301.162,203.108v-72.177c8.828,20.931,22.097,50.108,24.886,72.177H301.162z"/>
	</g>
</g>
<g>
</g>
<g>
</g>
<g>
</g>
<g>
</g>
<g>
</g>
<g>
</g>
<g>
</g>
<g>
</g>
<g>
</g>
<g>
</g>
<g>
</g>
<g>
</g>
<g>
</g>
<g>
</g>
<g>
</g>
</svg>
