<?xml version="1.0" encoding="iso-8859-1"?>
<!-- Generator: Adobe Illustrator 19.0.0, SVG Export Plug-In . SVG Version: 6.00 Build 0)  -->
<svg version="1.1" id="Layer_1" xmlns="http://www.w3.org/2000/svg" xmlns:xlink="http://www.w3.org/1999/xlink" x="0px" y="0px"
	 viewBox="0 0 512 512" style="enable-background:new 0 0 512 512;" xml:space="preserve">
<g>
	<g>
		<path d="M256,0C148.914,0,61.793,87.121,61.793,194.207c0,104.56,179.974,306.319,187.638,314.862
			c1.672,1.862,4.06,2.931,6.569,2.931c2.509,0,4.897-1.069,6.569-2.931c7.664-8.543,187.638-210.302,187.638-314.862
			C450.207,87.121,363.086,0,256,0z M256,489.784C223.25,452.052,79.448,281.371,79.448,194.207
			c0-97.354,79.203-176.552,176.552-176.552c97.349,0,176.552,79.198,176.552,176.552C432.552,281.345,288.75,452.043,256,489.784z"
			/>
	</g>
</g>
<g>
	<g>
		<path d="M353.615,128c0-0.565-0.321-1.11-0.422-1.642c0.106-0.912,0.037-1.834,0.037-2.772c0-28.672-50.157-44.138-97.231-44.138
			c-47.073,0-97.103,15.465-97.103,44.138c0,0.938,0.06,1.86,0.165,2.772c-0.1,0.532,0.347,1.077,0.347,1.642
			c0,62.06,38.029,113.164,88.788,118.657v62.381H220.69c-4.875,0-8.828,3.948-8.828,8.828c0,4.879,3.953,8.828,8.828,8.828h70.621
			c4.875,0,8.828-3.948,8.828-8.828c0-4.879-3.953-8.828-8.828-8.828h-25.459v-62.381C314.403,241.164,353.615,190.06,353.615,128z
			 M256,97.103c48.5,0,79.448,15.681,79.448,26.483c0,10.802-30.948,26.483-79.448,26.483c-48.5,0-79.448-15.681-79.448-26.483
			C176.552,112.785,207.5,97.103,256,97.103z M256,229.517c-37.621,0-69.197-33.601-77.371-78.541
			c18.89,10.987,48.668,16.748,77.371,16.748c28.702,0,58.481-5.761,77.371-16.748C325.196,195.916,293.621,229.517,256,229.517z"/>
	</g>
</g>
<g>
</g>
<g>
</g>
<g>
</g>
<g>
</g>
<g>
</g>
<g>
</g>
<g>
</g>
<g>
</g>
<g>
</g>
<g>
</g>
<g>
</g>
<g>
</g>
<g>
</g>
<g>
</g>
<g>
</g>
</svg>
