<?xml version="1.0" encoding="iso-8859-1"?>
<!-- Generator: Adobe Illustrator 19.0.0, SVG Export Plug-In . SVG Version: 6.00 Build 0)  -->
<svg version="1.1" id="Layer_1" xmlns="http://www.w3.org/2000/svg" xmlns:xlink="http://www.w3.org/1999/xlink" x="0px" y="0px"
	 viewBox="0 0 512 512" style="enable-background:new 0 0 512 512;" xml:space="preserve">
<g>
	<g>
		<path d="M256,0C148.914,0,61.793,87.121,61.793,194.207c0,104.56,179.974,306.319,187.638,314.862
			c1.672,1.862,4.06,2.931,6.569,2.931c2.509,0,4.897-1.069,6.569-2.931c7.664-8.543,187.638-210.302,187.638-314.862
			C450.207,87.121,363.086,0,256,0z M256,489.784C223.25,452.052,79.448,281.371,79.448,194.207
			c0-97.354,79.203-176.552,176.552-176.552c97.349,0,176.552,79.198,176.552,176.552C432.552,281.345,288.75,452.043,256,489.784z"
			/>
	</g>
</g>
<g>
	<g>
		<path d="M265.851,114.759c-4.875,0-8.828,3.948-8.828,8.828v61.793c0,4.879,3.953,8.828,8.828,8.828
			c4.875,0,8.828-3.948,8.828-8.828v-61.793C274.679,118.707,270.726,114.759,265.851,114.759z"/>
	</g>
</g>
<g>
	<g>
		<path d="M271.095,214.431c-2.474-2.466-6.358-3.267-9.625-1.854c-1.056,0.44-2.03,1.06-2.909,1.854
			c-1.591,1.681-2.56,3.974-2.56,6.267c0,2.388,0.879,4.595,2.56,6.181c0.879,0.888,1.853,1.5,2.909,1.94
			c1.06,0.448,2.207,0.707,3.358,0.707c2.384,0,4.591-0.966,6.267-2.646c1.677-1.586,2.56-3.793,2.56-6.181
			C273.655,218.405,272.681,216.112,271.095,214.431z"/>
	</g>
</g>
<g>
	<g>
		<path d="M386.987,251.19L272.228,74.638c-3.258-5.017-11.543-5.017-14.802,0L142.668,251.19c-1.763,2.716-1.901,6.209-0.358,9.054
			c1.543,2.845,4.521,4.657,7.759,4.657h229.517c3.237,0,6.216-1.813,7.759-4.657C388.888,257.399,388.75,253.905,386.987,251.19z
			 M166.336,247.246L264.828,95.72l98.491,151.526H166.336z"/>
	</g>
</g>
<g>
</g>
<g>
</g>
<g>
</g>
<g>
</g>
<g>
</g>
<g>
</g>
<g>
</g>
<g>
</g>
<g>
</g>
<g>
</g>
<g>
</g>
<g>
</g>
<g>
</g>
<g>
</g>
<g>
</g>
</svg>
