<?xml version="1.0" encoding="iso-8859-1"?>
<!-- Generator: Adobe Illustrator 19.0.0, SVG Export Plug-In . SVG Version: 6.00 Build 0)  -->
<svg version="1.1" id="Layer_1" xmlns="http://www.w3.org/2000/svg" xmlns:xlink="http://www.w3.org/1999/xlink" x="0px" y="0px"
	 viewBox="0 0 512 512" style="enable-background:new 0 0 512 512;" xml:space="preserve">
<g>
	<g>
		<path d="M256,0C148.914,0,61.793,87.121,61.793,194.207c0,104.56,179.974,306.319,187.638,314.862
			c1.672,1.862,4.06,2.931,6.569,2.931c2.509,0,4.897-1.069,6.569-2.931c7.664-8.543,187.638-210.302,187.638-314.862
			C450.207,87.121,363.086,0,256,0z M256,489.784C223.25,452.052,79.448,281.371,79.448,194.207
			c0-97.354,79.203-176.552,176.552-176.552c97.349,0,176.552,79.198,176.552,176.552C432.552,281.345,288.75,452.043,256,489.784z"
			/>
	</g>
</g>
<g>
	<g>
		<path d="M305.935,185.379l43.694-43.698c3.448-3.448,3.448-9.034,0-12.483l-37.453-37.457c-3.31-3.31-9.172-3.31-12.483,0
			L256,135.44l-43.694-43.698c-3.31-3.31-9.172-3.31-12.483,0l-37.453,37.457c-3.448,3.448-3.448,9.034,0,12.483l43.694,43.698
			l-43.694,43.69c-3.448,3.448-3.448,9.034,0,12.483l37.453,37.457c1.655,1.655,3.901,2.586,6.241,2.586
			c2.34,0,4.586-0.931,6.241-2.586L256,235.31l43.694,43.698c1.655,1.655,3.901,2.586,6.241,2.586c2.34,0,4.586-0.931,6.241-2.586
			l37.453-37.457c3.448-3.448,3.448-9.034,0-12.483L305.935,185.379z M305.935,260.284l-43.694-43.698
			C260.586,214.931,258.341,214,256,214c-2.34,0-4.586,0.931-6.241,2.586l-43.694,43.698l-24.97-24.974l43.694-43.69
			c1.655-1.655,2.586-3.897,2.586-6.241c0-2.345-0.931-4.586-2.586-6.241l-43.694-43.698l24.97-24.974l43.694,43.698
			c3.31,3.31,9.173,3.31,12.483,0l43.694-43.698l24.97,24.974l-43.694,43.698c-1.655,1.655-2.586,3.896-2.586,6.241
			c0,2.345,0.931,4.586,2.586,6.241l43.694,43.69L305.935,260.284z"/>
	</g>
</g>
<g>
</g>
<g>
</g>
<g>
</g>
<g>
</g>
<g>
</g>
<g>
</g>
<g>
</g>
<g>
</g>
<g>
</g>
<g>
</g>
<g>
</g>
<g>
</g>
<g>
</g>
<g>
</g>
<g>
</g>
</svg>
