<?xml version="1.0" encoding="iso-8859-1"?>
<!-- Generator: Adobe Illustrator 19.0.0, SVG Export Plug-In . SVG Version: 6.00 Build 0)  -->
<svg version="1.1" id="Layer_1" xmlns="http://www.w3.org/2000/svg" xmlns:xlink="http://www.w3.org/1999/xlink" x="0px" y="0px"
	 viewBox="0 0 512 512" style="enable-background:new 0 0 512 512;" xml:space="preserve">
<g>
	<g>
		<path d="M256,0C148.914,0,61.793,87.121,61.793,194.207c0,104.56,179.974,306.319,187.638,314.862
			c1.672,1.862,4.06,2.931,6.569,2.931c2.509,0,4.897-1.069,6.569-2.931c7.664-8.543,187.638-210.302,187.638-314.862
			C450.207,87.121,363.086,0,256,0z M256,489.784C223.25,452.052,79.448,281.371,79.448,194.207
			c0-97.354,79.198-176.552,176.552-176.552c97.353,0,176.552,79.198,176.552,176.552C432.552,281.345,288.75,452.043,256,489.784z"
			/>
	</g>
</g>
<g>
	<g>
		<path d="M359.612,170.603L262.509,64.655c-3.345-3.655-9.673-3.655-13.017,0l-97.103,105.931
			c-2.362,2.577-2.983,6.356-1.569,9.554c1.405,3.207,4.578,5.312,8.077,5.312h18.679v97.03c0,4.879,2.925,8.901,7.804,8.901
			h141.241c4.879,0,9.851-4.022,9.851-8.901v-97.03h16.631c3.5,0,6.673-2.106,8.078-5.312
			C362.595,176.942,361.974,173.181,359.612,170.603z M318.817,273.728H195.231v-88.276h123.586V273.728z M326.621,167.797H185.379
			h-6.414L256,83.754l77.035,84.043H326.621z"/>
	</g>
</g>
<g>
</g>
<g>
</g>
<g>
</g>
<g>
</g>
<g>
</g>
<g>
</g>
<g>
</g>
<g>
</g>
<g>
</g>
<g>
</g>
<g>
</g>
<g>
</g>
<g>
</g>
<g>
</g>
<g>
</g>
</svg>
