<?xml version="1.0" encoding="iso-8859-1"?>
<!-- Generator: Adobe Illustrator 19.0.0, SVG Export Plug-In . SVG Version: 6.00 Build 0)  -->
<svg version="1.1" id="Layer_1" xmlns="http://www.w3.org/2000/svg" xmlns:xlink="http://www.w3.org/1999/xlink" x="0px" y="0px"
	 viewBox="0 0 512 512" style="enable-background:new 0 0 512 512;" xml:space="preserve">
<g>
	<g>
		<path d="M193.888,77.299L151.403,4.138C149.774,1.317,146.766,0,143.509,0H58.548c-3.257,0-6.265,1.355-7.894,4.176L8.169,77.564
			c-1.629,2.821-1.629,6.197,0,9.018l42.485,73.238c1.629,2.821,4.637,4.212,7.894,4.212h36.458v97.882
			c0,5.032,4.076,9.113,9.113,9.113s9.113-4.081,9.113-9.113v-97.882h30.277c3.257,0,6.265-1.437,7.894-4.258l42.485-73.436
			C195.516,83.516,195.516,80.12,193.888,77.299z M138.249,145.805H63.807L26.582,82.013l37.226-63.788h74.442l37.226,63.788
			L138.249,145.805z"/>
	</g>
</g>
<g>
	<g>
		<path d="M285.23,159.514c-25.461-18.137-51.785-36.892-52.897-54.824c-0.48-7.747,3.871-15.725,13.313-24.393
			c14.203-13.046,31.21-22.395,49.222-32.291c8.962-4.926,18.235-10.021,27.09-15.596c4.254-2.683,5.535-8.307,2.848-12.566
			c-2.661-4.263-8.285-5.526-12.566-2.857c-8.392,5.286-17.416,10.248-26.146,15.044c-18.164,9.985-36.95,20.308-52.782,34.845
			c-13.554,12.446-19.997,25.55-19.169,38.943c1.655,26.6,31.575,47.923,60.515,68.538c27.686,19.721,56.306,40.113,53.138,59.803
			C312.31,330.29,184.553,381.15,100.018,414.802c-14.986,5.963-29.136,11.6-41.132,16.864c-4.601,2.02-6.701,7.4-4.681,12.005
			c1.504,3.417,4.85,5.455,8.357,5.455c1.219,0,2.465-0.249,3.658-0.774c11.694-5.135,25.71-10.715,40.536-16.619
			c88.37-35.174,221.903-88.334,239.034-194.671C350.755,206.195,317.445,182.465,285.23,159.514z"/>
	</g>
</g>
<g>
	<g>
		<path d="M490.126,215.895c-28.843-36.901-61.174-59.394-84.783-75.817c-21.474-14.946-37.003-25.745-37.662-37.684
			c-0.703-12.708,14.114-31.859,46.623-60.27c3.791-3.31,4.174-9.068,0.863-12.859c-3.319-3.791-9.086-4.165-12.859-0.863
			c-38.596,33.733-53.903,55.465-52.826,74.998c1.157,20.815,20.708,34.418,45.457,51.638c23.912,16.642,53.68,37.35,80.823,72.08
			c52.879,67.652-97.616,207.922-147.078,254.016c-7.573,7.066-13.055,12.17-16.197,15.436c-3.488,3.631-3.373,9.398,0.249,12.886
			c1.771,1.7,4.04,2.545,6.318,2.545c2.394,0,4.779-0.935,6.568-2.794c2.901-3.021,8.321-8.058,15.494-14.742
			C399.14,440.379,553.293,296.709,490.126,215.895z"/>
	</g>
</g>
<g>
	<g>
		<path d="M319.43,365.171c-3.364-3.742-9.122-4.04-12.868-0.676l-91.128,82.016c-3.738,3.364-4.04,9.126-0.676,12.868
			c1.798,1.998,4.281,3.017,6.772,3.017c2.172,0,4.352-0.774,6.096-2.341l91.128-82.016
			C322.491,374.675,322.794,368.913,319.43,365.171z"/>
	</g>
</g>
<g>
</g>
<g>
</g>
<g>
</g>
<g>
</g>
<g>
</g>
<g>
</g>
<g>
</g>
<g>
</g>
<g>
</g>
<g>
</g>
<g>
</g>
<g>
</g>
<g>
</g>
<g>
</g>
<g>
</g>
</svg>
