<?xml version="1.0" encoding="iso-8859-1"?>
<!-- Generator: Adobe Illustrator 19.0.0, SVG Export Plug-In . SVG Version: 6.00 Build 0)  -->
<svg version="1.1" id="Layer_1" xmlns="http://www.w3.org/2000/svg" xmlns:xlink="http://www.w3.org/1999/xlink" x="0px" y="0px"
	 viewBox="0 0 512 512" style="enable-background:new 0 0 512 512;" xml:space="preserve">
<g>
	<g>
		<path d="M503.172,375.294H265.851V22.003c0-0.228-0.563-0.446-0.58-0.67c-0.021-0.226-0.286-0.448-0.323-0.674
			c-0.652-4.235-4.406-7.483-8.821-7.483c-1.482,0-2.921,0.401-4.149,1.047c-94.97,34.754-154.987,86.31-178.308,153.265
			c-33.962,97.5,22.346,190.782,24.758,194.707c1.643,2.664,4.514,4.198,7.51,4.198c0.983,0,2.482-0.164,3.447-0.502l138.81-48.813
			v58.216H8.828c-4.875,0-8.828,3.912-8.828,8.791c0,64.354,112.448,114.739,256,114.739c143.552,0,256-50.377,256-114.731
			C512,379.215,508.047,375.294,503.172,375.294z M110.022,346.764C98.56,324.98,64.344,249.092,90.874,173.152
			c20.651-59.127,73.46-105.595,157.322-138.254v1.649c-15.448,17.073-79.972,110.588-4.141,263.088L110.022,346.764z
			 M248.196,68.82v195.946C208.472,168.691,230.541,101.704,248.196,68.82z M256,481.225c-121.901,0-225.957-39.724-237.319-88.276
			h474.638C481.957,441.501,377.901,481.225,256,481.225z"/>
	</g>
</g>
<g>
</g>
<g>
</g>
<g>
</g>
<g>
</g>
<g>
</g>
<g>
</g>
<g>
</g>
<g>
</g>
<g>
</g>
<g>
</g>
<g>
</g>
<g>
</g>
<g>
</g>
<g>
</g>
<g>
</g>
</svg>
