<?xml version="1.0" encoding="iso-8859-1"?>
<!-- Generator: Adobe Illustrator 19.0.0, SVG Export Plug-In . SVG Version: 6.00 Build 0)  -->
<svg version="1.1" id="Layer_1" xmlns="http://www.w3.org/2000/svg" xmlns:xlink="http://www.w3.org/1999/xlink" x="0px" y="0px"
	 viewBox="0 0 512 512" style="enable-background:new 0 0 512 512;" xml:space="preserve">
<g>
	<g>
		<path d="M489.782,379.466c-3.655-5.542-10.145-8.686-17.808-8.686H276.587V268.661l112.699,39.759
			c0.965,0.338,1.985,0.502,2.967,0.502c3,0,5.892-1.534,7.529-4.198c1.862-3.034,45.345-75.032,19.107-150.359
			c-18.083-51.904-64.592-91.777-138.159-118.524c-1.36-0.496-1.937-0.599-4.144-0.433V8.826c0-0.205,0.006-0.394-0.009-0.597
			c-0.019-0.306-0.011-0.61-0.065-0.918c-0.06-0.343-0.142-0.666-0.239-0.993c-0.052-0.168-0.062-0.34-0.123-0.509
			c-0.021-0.058-0.054-0.105-0.077-0.164c-0.129-0.336-0.293-0.651-0.461-0.965c-0.112-0.207-0.209-0.422-0.334-0.619
			c-0.168-0.258-0.362-0.489-0.554-0.728c-0.17-0.213-0.33-0.433-0.517-0.629c-0.194-0.2-0.414-0.373-0.627-0.554
			c-0.216-0.185-0.425-0.379-0.657-0.543c-0.235-0.164-0.491-0.295-0.741-0.437c-0.241-0.134-0.472-0.28-0.722-0.392
			c-0.265-0.116-0.545-0.198-0.821-0.289c-0.267-0.09-0.53-0.188-0.806-0.25c-0.265-0.06-0.541-0.086-0.815-0.123
			c-0.308-0.041-0.612-0.084-0.927-0.093C268.015,0.022,267.944,0,267.866,0c-0.22,0-0.427,0.05-0.644,0.067
			c-0.284,0.019-0.569,0.034-0.856,0.086c-0.354,0.06-0.688,0.157-1.024,0.258c-0.164,0.047-0.33,0.065-0.493,0.125
			C169.269,35.29,108.933,86.981,85.531,154.178c-33.96,97.486,22.359,190.754,24.772,194.678c1.638,2.663,4.517,4.198,7.516,4.198
			c0.983,0,1.92-0.164,2.885-0.502l138.23-48.805v67.033h-219.5c-7.757,0-14.188,3.17-17.653,8.772
			c-3.456,5.594-3.456,12.772,0.017,19.719l34.176,68.38C68.404,492.501,99.934,512,127.766,512H392.46
			c28.03,0,58.655-20.232,69.705-46.021l28.625-66.783C493.799,392.188,493.428,384.999,489.782,379.466z M402.174,160.028
			c19.394,55.468-4.715,111.029-14.032,129.25l-97.951-34.573c52.217-106.915,13.912-176-0.853-196.646
			C349.156,82.602,387.082,116.862,402.174,160.028z M276.587,70.772c13.239,19.823,41.925,79.189,0,171.194V70.772z
			 M121.914,333.427c-11.464-21.781-46.237-97.658-19.715-173.587c20.643-59.121,72.886-105.581,156.735-138.236v1.646
			c-13.239,17.062-79.4,110.566-3.577,263.054L121.914,333.427z M258.934,55.533v195.906
			C219.216,155.389,241.282,88.414,258.934,55.533z M445.944,459.06c-8.197,19.127-32.693,35.288-53.484,35.288H127.766
			c-20.988,0-46.631-15.825-56-34.564l-0.371-0.741H445.95L445.944,459.06z M474.569,392.248l-21.051,49.141H65.939
			c-1.088,0-2.118,0.185-3.079,0.545l-25.27-50.559c-0.759-1.508-0.793-2.411-0.868-2.431c0.16-0.147,1.002-0.513,2.713-0.513
			h432.54c2.086,0,2.931,0.567,3.068,0.765C475.206,389.447,475.31,390.516,474.569,392.248z"/>
	</g>
</g>
<g>
</g>
<g>
</g>
<g>
</g>
<g>
</g>
<g>
</g>
<g>
</g>
<g>
</g>
<g>
</g>
<g>
</g>
<g>
</g>
<g>
</g>
<g>
</g>
<g>
</g>
<g>
</g>
<g>
</g>
</svg>
