<?xml version="1.0" encoding="iso-8859-1"?>
<!-- Generator: Adobe Illustrator 19.0.0, SVG Export Plug-In . SVG Version: 6.00 Build 0)  -->
<svg version="1.1" id="Layer_1" xmlns="http://www.w3.org/2000/svg" xmlns:xlink="http://www.w3.org/1999/xlink" x="0px" y="0px"
	 viewBox="0 0 512 512" style="enable-background:new 0 0 512 512;" xml:space="preserve">
<g>
	<g>
		<path d="M511.029,438.818c-1.644-3.415-5.087-5.538-8.875-5.538H9.846c-3.269,0-6.317,1.577-8.154,4.284
			c-1.827,2.707-2.202,6.122-0.99,9.155l19.692,49.263c1.5,3.735,5.115,6.221,9.144,6.221h433.231c2.991,0,5.817-1.404,7.692-3.74
			l39.385-49.231C512.212,446.279,512.663,442.226,511.029,438.818z M458.038,482.51H36.202l-11.817-29.538h457.279L458.038,482.51z
			"/>
	</g>
</g>
<g>
	<g>
		<path d="M227.945,98.465c-4.981-0.49-9.938,2.981-10.87,7.99c-0.298,1.543-30.567,155.981-154.971,280.39
			c-2.817,2.818-3.733,7.093-2.204,10.775c1.519,3.678,5.043,6.12,9.024,6.12h157.539c5.442,0,10.988-4.496,10.988-9.934V108.268
			C237.449,103.181,233.002,98.936,227.945,98.465z M217.757,384.048H92.009c67.394-73.846,106.055-152.501,125.748-206.857V384.048
			z"/>
	</g>
</g>
<g>
	<g>
		<path d="M412.634,153.363C352.01,22.007,280.115,10.334,277.086,9.901c-2.827-0.417-5.122,0.44-7.276,2.311
			c-2.154,1.87-2.822,4.584-2.822,7.44v374.284c0,5.438,3.262,9.804,8.704,9.804h147.692c4.144,0,7.837-2.57,9.25-6.464
			C434.308,392.695,472.711,283.546,412.634,153.363z M416.116,384.048H286.68V33.162c19.692,8.986,66.957,38.129,108.64,128.441
			C443.849,266.748,423.067,359.433,416.116,384.048z"/>
	</g>
</g>
<g>
</g>
<g>
</g>
<g>
</g>
<g>
</g>
<g>
</g>
<g>
</g>
<g>
</g>
<g>
</g>
<g>
</g>
<g>
</g>
<g>
</g>
<g>
</g>
<g>
</g>
<g>
</g>
<g>
</g>
</svg>
