<?xml version="1.0" encoding="iso-8859-1"?>
<!-- Generator: Adobe Illustrator 19.0.0, SVG Export Plug-In . SVG Version: 6.00 Build 0)  -->
<svg version="1.1" id="Layer_1" xmlns="http://www.w3.org/2000/svg" xmlns:xlink="http://www.w3.org/1999/xlink" x="0px" y="0px"
	 viewBox="0 0 512 512" style="enable-background:new 0 0 512 512;" xml:space="preserve">
<g>
	<g>
		<path d="M411.397,182.906h-0.102c4.812-4.571,6.637-9.802,7.159-14.036c3.629-29.46-52.631-67.358-65.548-75.634
			c-23.256-20.167-47.408-28.791-71.717-25.523c-27.478,3.651-48.265,21.591-59.63,33.991c-5.646-9.026-13.123-14.895-22.354-17.518
			c-23.693-6.749-49.408,11.21-56.898,17.004c-30.661,6.535-49.408,19.178-55.746,37.533c-5.571,16.138,0.089,32.756,6.21,44.183
			h-1.309c-15.127,0-26.373,12.25-26.373,27.4v27.32c0,12.333,7.629,22.796,18.826,26.257l32.638,222.128
			c2.157,14.551,15.104,25.99,29.816,25.99H356.49c14.712,0,27.929-11.438,30.08-25.99l33.434-222.108
			c11.197-3.464,19.887-13.944,19.887-26.277v-27.32C439.89,195.156,426.524,182.906,411.397,182.906z M103.844,144.686
			c5.254-15.212,26.965-22.553,44.252-26.007c1.482-0.295,2.879-0.973,4.049-1.937c6.735-5.58,27.402-19.153,42.088-14.966
			c7.347,2.107,12.753,8.63,16.529,19.959c1.102,3.303,3.995,5.684,7.445,6.157c3.419,0.456,6.879-1.071,8.825-3.964
			c0.228-0.339,23.01-33.709,56.67-38.11c19.069-2.509,38.45,4.776,57.693,21.622c0.353,0.304,0.723,0.58,1.111,0.828
			c28.982,18.446,59.321,45.987,57.804,58.333c-0.446,3.616-5.727,6.144-10.079,7.599c-3.83,1.27-6.21,4.136-6.21,8.706H114.26
			C109.318,176.05,98.925,158.936,103.844,144.686z M368.483,483.37c-0.817,5.508-6.419,10.347-11.994,10.347H146.369
			c-5.673,0-11.163-4.74-11.994-10.347L102.05,265.179h298.759L368.483,483.37z M421.607,237.626c0,5.16-5.077,9.271-10.211,9.271
			H91.462c-5.133,0-8.09-4.111-8.09-9.271v-27.32c0-5.16,2.957-9.117,8.09-9.117h319.935c5.133,0,10.211,3.957,10.211,9.117V237.626
			z"/>
	</g>
</g>
<g>
	<g>
		<path d="M256,0C129.983,0,27.462,102.521,27.462,228.535c0,5.053,4.093,9.141,9.141,9.141s9.141-4.089,9.141-9.141
			c0-115.938,94.321-210.252,210.255-210.252s210.255,94.314,210.255,210.252c0,5.053,4.093,9.141,9.141,9.141
			s9.141-4.089,9.141-9.141C484.538,102.521,382.017,0,256,0z"/>
	</g>
</g>
<g>
	<g>
		<path d="M321.051,109.696c-5.048,0-9.141,4.091-9.141,9.141v9.142c0,5.053,4.093,9.141,9.141,9.141
			c5.048,0,9.142-4.089,9.142-9.141v-9.142C330.192,113.787,326.099,109.696,321.051,109.696z"/>
	</g>
</g>
<g>
	<g>
		<path d="M348.475,137.12c-5.048,0-9.142,4.091-9.142,9.142v9.141c0,5.053,4.093,9.141,9.142,9.141s9.141-4.089,9.141-9.141v-9.141
			C357.617,141.211,353.524,137.12,348.475,137.12z"/>
	</g>
</g>
<g>
	<g>
		<path d="M311.909,146.262c-5.048,0-9.141,4.091-9.141,9.141v9.141c0,5.053,4.093,9.142,9.141,9.142s9.141-4.089,9.141-9.142
			v-9.141C321.051,150.353,316.958,146.262,311.909,146.262z"/>
	</g>
</g>
<g>
	<g>
		<path d="M284.485,118.837c-5.048,0-9.141,4.091-9.141,9.142v9.141c0,5.053,4.093,9.142,9.141,9.142s9.141-4.089,9.141-9.142
			v-9.141C293.626,122.928,289.533,118.837,284.485,118.837z"/>
	</g>
</g>
<g>
</g>
<g>
</g>
<g>
</g>
<g>
</g>
<g>
</g>
<g>
</g>
<g>
</g>
<g>
</g>
<g>
</g>
<g>
</g>
<g>
</g>
<g>
</g>
<g>
</g>
<g>
</g>
<g>
</g>
</svg>
