<?xml version="1.0" encoding="iso-8859-1"?>
<!-- Generator: Adobe Illustrator 19.0.0, SVG Export Plug-In . SVG Version: 6.00 Build 0)  -->
<svg version="1.1" id="Layer_1" xmlns="http://www.w3.org/2000/svg" xmlns:xlink="http://www.w3.org/1999/xlink" x="0px" y="0px"
	 viewBox="0 0 512 512" style="enable-background:new 0 0 512 512;" xml:space="preserve">
<g>
	<g>
		<path d="M502.691,297.887h-36.157V167.48c0-5.143-5.243-9.229-10.389-9.229h-82.702v-55.934c0-5.143-5.243-9.229-10.389-9.229
			H307.2c-5.145,0-8.229,4.086-8.229,9.229v55.934h-75.552c-5.145,0-8.229,4.086-8.229,9.229v83.861h-66.243
			c-5.145,0-8.229,4.086-8.229,9.232v37.314H9.309c-5.145,0-9.309,4.125-9.309,9.27C0,405.13,160.418,484.01,293.236,484.01
			C443.546,484.01,512,392.357,512,307.167C512,302.021,507.836,297.887,502.691,297.887z M317.589,111.705h37.236v46.545h-37.236
			V111.705z M159.334,269.96h64.084c5.146,0,10.389-4.243,10.389-9.386v-83.705H307.2h55.855h84.861v121.018H159.334V269.96z
			 M293.236,465.451c-130.645,0-263.654-74.473-273.973-148.945h129.682h307.2h36.927
			C488.173,390.978,425.173,465.451,293.236,465.451z"/>
	</g>
</g>
<g>
	<g>
		<rect x="252.416" y="195.487" width="18.618" height="83.782"/>
	</g>
</g>
<g>
	<g>
		<rect x="289.652" y="195.487" width="18.618" height="83.782"/>
	</g>
</g>
<g>
	<g>
		<rect x="326.889" y="195.487" width="18.618" height="83.782"/>
	</g>
</g>
<g>
	<g>
		<rect x="364.125" y="195.487" width="18.618" height="83.782"/>
	</g>
</g>
<g>
	<g>
		<rect x="401.361" y="195.487" width="18.618" height="83.782"/>
	</g>
</g>
<g>
	<g>
		<path d="M423.236,29.062c-4.436-2.373-10.036-0.661-12.536,3.711c-0.327,0.564-8.182,13.689-38.336,13.689
			c-46.018,0-46.545,26.793-46.545,27.927c0,5.146,4.155,9.566,9.3,9.566c5.137,0,9.3-3.9,9.3-9.045
			c0.454-3.4,6.882-9.83,27.945-9.83c41.782,0,53.655-21.327,54.873-23.761C429.491,36.81,427.682,31.446,423.236,29.062z"/>
	</g>
</g>
<g>
</g>
<g>
</g>
<g>
</g>
<g>
</g>
<g>
</g>
<g>
</g>
<g>
</g>
<g>
</g>
<g>
</g>
<g>
</g>
<g>
</g>
<g>
</g>
<g>
</g>
<g>
</g>
<g>
</g>
</svg>
