<?xml version="1.0" encoding="iso-8859-1"?>
<!-- Generator: Adobe Illustrator 19.0.0, SVG Export Plug-In . SVG Version: 6.00 Build 0)  -->
<svg version="1.1" id="Layer_1" xmlns="http://www.w3.org/2000/svg" xmlns:xlink="http://www.w3.org/1999/xlink" x="0px" y="0px"
	 viewBox="0 0 512 512" style="enable-background:new 0 0 512 512;" xml:space="preserve">
<g>
	<g>
		<path d="M427.379,425.134H89.569c-5.335,0-8.532,4.236-8.532,9.566v67.562c0,5.33,3.198,9.738,8.532,9.738h337.811
			c5.335,0,10.771-4.408,10.771-9.738V434.7C438.151,429.37,432.714,425.134,427.379,425.134z M418.847,492.697H100.34v-48.259
			h318.507V492.697z"/>
	</g>
</g>
<g>
	<g>
		<path d="M253.648,164.452c-95.792,0-173.731,106.079-173.731,236.467c0,5.33,4.317,9.652,9.652,9.652
			c5.335,0,9.652-4.322,9.652-9.652c0-119.747,69.278-217.164,154.428-217.164c85.15,0,154.428,97.417,154.428,217.164
			c0,5.33,4.317,9.652,9.652,9.652c5.335,0,9.652-4.322,9.652-9.652C427.379,270.531,349.44,164.452,253.648,164.452z"/>
	</g>
</g>
<g>
	<g>
		<path d="M213.109,235.874c-3.195-4.27-9.256-5.146-13.507-1.928c-40.878,30.657-51.407,71.229-51.831,72.94
			c-1.301,5.175,1.848,10.415,7.022,11.706c0.782,0.198,1.574,0.288,2.347,0.288c4.326,0,8.257-2.927,9.35-7.309
			c0.094-0.354,9.237-35.591,44.687-62.185C215.447,246.19,216.314,240.138,213.109,235.874z"/>
	</g>
</g>
<g>
	<g>
		<path d="M163.955,147.976L72.141,56.157c-3.77-3.77-9.878-3.77-13.648,0s-3.77,9.878,0,13.648l91.814,91.819
			c1.885,1.885,4.355,2.828,6.824,2.828c2.47,0,4.939-0.943,6.824-2.828C167.725,157.854,167.725,151.746,163.955,147.976z"/>
	</g>
</g>
<g>
	<g>
		<path d="M254.768,0c-5.335,0-9.652,4.322-9.652,9.652v125.845c0,5.33,4.317,9.652,9.652,9.652c5.335,0,9.652-4.322,9.652-9.652
			V9.652C264.419,4.322,260.102,0,254.768,0z"/>
	</g>
</g>
<g>
	<g>
		<path d="M453.507,51.458c-3.77-3.77-9.878-3.77-13.648,0l-96.517,96.517c-3.77,3.77-3.77,9.878,0,13.648
			c1.885,1.885,4.355,2.828,6.824,2.828c2.47,0,4.939-0.943,6.824-2.828l96.517-96.517
			C457.277,61.337,457.277,55.229,453.507,51.458z"/>
	</g>
</g>
<g>
</g>
<g>
</g>
<g>
</g>
<g>
</g>
<g>
</g>
<g>
</g>
<g>
</g>
<g>
</g>
<g>
</g>
<g>
</g>
<g>
</g>
<g>
</g>
<g>
</g>
<g>
</g>
<g>
</g>
</svg>
