<?xml version="1.0" encoding="iso-8859-1"?>
<!-- Generator: Adobe Illustrator 19.0.0, SVG Export Plug-In . SVG Version: 6.00 Build 0)  -->
<svg version="1.1" id="Layer_1" xmlns="http://www.w3.org/2000/svg" xmlns:xlink="http://www.w3.org/1999/xlink" x="0px" y="0px"
	 viewBox="0 0 512 512" style="enable-background:new 0 0 512 512;" xml:space="preserve">
<g>
	<g>
		<path d="M369.692,136.864H69.64C30.675,136.864,0,168.446,0,207.351v35.345c0,43.819,34.64,79.547,78.485,79.547h26.422
			c4.879,0,8.828-3.985,8.828-8.864c0-28.707,48.509-52.966,105.931-52.966c57.423,0,105.931,24.259,105.931,52.966
			c0,4.879,3.948,8.864,8.828,8.864h26.422c43.845,0,80.532-35.729,80.532-79.547v-35.345
			C441.379,168.446,408.657,136.864,369.692,136.864z M423.724,242.696c0,34.086-28.774,61.892-62.877,61.892h-18.509
			c-7.379-35.31-58.612-61.793-122.673-61.793c-64.06,0-115.293,26.483-122.672,61.793H78.485c-34.103,0-60.83-27.806-60.83-61.892
			v-35.345c0-29.175,22.752-52.832,51.985-52.832h300.052c29.233,0,54.032,23.657,54.032,52.832V242.696z"/>
	</g>
</g>
<g>
	<g>
		<path d="M349.95,166.358c-3.164-3.714-8.741-4.138-12.44-0.955l-61.793,52.966c-3.707,3.172-4.138,8.742-0.957,12.44
			c1.741,2.043,4.215,3.084,6.698,3.084c2.035,0,4.078-0.696,5.741-2.127l61.793-52.966
			C352.7,175.627,353.131,170.056,349.95,166.358z"/>
	</g>
</g>
<g>
	<g>
		<path d="M358.321,201.17c-3.448-3.448-9.035-3.448-12.483,0l-26.483,26.483c-3.448,3.448-3.448,9.032,0,12.48
			c1.724,1.727,3.983,2.586,6.241,2.586c2.259,0,4.517-0.86,6.242-2.586l26.483-26.483
			C361.769,210.202,361.769,204.619,358.321,201.17z"/>
	</g>
</g>
<g>
	<g>
		<path d="M485.517,30.86c-14.603,0-26.483,11.877-26.483,26.483v291.722c0,43.795-36.696,79.11-80.541,79.11h-35.828
			c-43.845,0-80.045-35.315-80.045-79.116V330.72c0-14.603-11.879-26.483-26.483-26.483c-14.604,0-26.483,11.879-26.483,26.483
			v18.338c0,73,59.959,132.082,133.011,132.082h35.828C451.545,481.14,512,422.065,512,349.065V57.343
			C512,42.737,500.121,30.86,485.517,30.86z M494.345,349.065c0,63.27-52.532,114.42-115.851,114.42h-35.828
			c-63.319,0-115.356-51.159-115.356-114.427V330.72c0-4.868,3.957-8.828,8.828-8.828c4.871,0,8.828,3.959,8.828,8.828v18.338
			c0,53.532,44.123,96.772,97.7,96.772h35.828c53.577,0,98.196-43.239,98.196-96.765V57.343c0-4.871,3.957-8.828,8.828-8.828
			c4.871,0,8.828,3.957,8.828,8.828V349.065z"/>
	</g>
</g>
<g>
</g>
<g>
</g>
<g>
</g>
<g>
</g>
<g>
</g>
<g>
</g>
<g>
</g>
<g>
</g>
<g>
</g>
<g>
</g>
<g>
</g>
<g>
</g>
<g>
</g>
<g>
</g>
<g>
</g>
</svg>
