<?xml version="1.0" encoding="iso-8859-1"?>
<!-- Generator: Adobe Illustrator 19.0.0, SVG Export Plug-In . SVG Version: 6.00 Build 0)  -->
<svg version="1.1" id="Layer_1" xmlns="http://www.w3.org/2000/svg" xmlns:xlink="http://www.w3.org/1999/xlink" x="0px" y="0px"
	 viewBox="0 0 512 512" style="enable-background:new 0 0 512 512;" xml:space="preserve">
<g>
	<g>
		<path d="M483.82,139.125c-2.394-4.662-8.111-6.486-12.764-4.097c-4.657,2.394-6.495,8.106-4.097,12.764
			c17.306,33.667,26.079,70.074,26.079,108.208c0,130.704-106.333,237.037-237.037,237.037
			C125.296,493.037,18.963,386.704,18.963,256C18.963,125.296,125.296,18.963,256,18.963c51.111,0,99.782,16.009,140.759,46.301
			c4.222,3.12,10.148,2.227,13.259-1.991c3.111-4.208,2.222-10.148-1.991-13.259C363.769,17.296,311.195,0,256,0
			C114.843,0,0,114.843,0,256c0,141.157,114.843,256,256,256c141.157,0,256-114.843,256-256
			C512,214.819,502.518,175.495,483.82,139.125z"/>
	</g>
</g>
<g>
	<g>
		<path d="M461.815,78.629c-9.176-9.171-21.134-2.875-98.398,51.657c-23.949,16.898-53.639,37.852-60.87,40.384
			c-30.977,0.463-56.028,25.801-56.028,56.884c0,31.37,25.519,56.889,56.889,56.889c31.005,0,56.296-24.931,56.88-55.801
			c3.245-7.518,27.713-37.065,45.69-58.773C464.509,99.19,471.292,88.106,461.815,78.629z M391.37,157.773
			c-39.977,48.278-50.037,61.528-50.037,69.782c0,20.912-17.014,37.926-37.926,37.926c-20.912,0-37.926-17.014-37.926-37.926
			c0-20.912,17.014-37.926,37.926-37.926c7.769,0,21.296-8.815,70.944-43.852c18.121-12.787,42.204-29.783,59.449-40.699
			C422.148,120.616,404.621,141.778,391.37,157.773z"/>
	</g>
</g>
<g>
</g>
<g>
</g>
<g>
</g>
<g>
</g>
<g>
</g>
<g>
</g>
<g>
</g>
<g>
</g>
<g>
</g>
<g>
</g>
<g>
</g>
<g>
</g>
<g>
</g>
<g>
</g>
<g>
</g>
</svg>
