<?xml version="1.0" encoding="iso-8859-1"?>
<!-- Generator: Adobe Illustrator 19.0.0, SVG Export Plug-In . SVG Version: 6.00 Build 0)  -->
<svg version="1.1" id="Layer_1" xmlns="http://www.w3.org/2000/svg" xmlns:xlink="http://www.w3.org/1999/xlink" x="0px" y="0px"
	 viewBox="0 0 512 512" style="enable-background:new 0 0 512 512;" xml:space="preserve">
<g>
	<g>
		<path d="M425.567,28.444c-5.236,0-8.382,4.161-8.382,9.397v85.418h-67.002c-5.236,0-8.85,4.633-8.85,9.869v75.464h-76.951
			c-5.236,0-8.382,4.105-8.382,9.341v75.992h-76.428c-5.236,0-8.905,4.165-8.905,9.402v75.932H93.715
			c-5.236,0-8.382,4.633-8.382,9.869v75.464H0v18.963h93.715c5.236,0,10.581-3.858,10.581-9.094v-76.24h75.275
			c5.236,0,10.058-3.858,10.058-9.094v-76.24h74.752c5.236,0,10.581-4.325,10.581-9.561v-75.772h75.22
			c5.236,0,10.113-4.385,10.113-9.622v-75.712h65.271c5.236,0,10.581-3.858,10.581-9.094V47.407H512V28.444H425.567z"/>
	</g>
</g>
<g>
	<g>
		<path d="M423.064,296.64c-3.704-3.704-9.428-3.725-13.132-0.021l-59.117,59.667v-34c0-5.236-4.245-9.482-9.482-9.482
			s-9.481,4.245-9.481,9.482v56.889c0,0.623-0.485,1.243-0.362,1.857c0.055,0.282-0.115,0.543-0.034,0.815
			c0.094,0.321,0.03,0.644,0.159,0.954c0.135,0.326,0.251,0.624,0.421,0.93c0.128,0.233,0.196,0.476,0.345,0.7
			c0.696,1.041,1.573,1.936,2.615,2.631c0.223,0.149,0.458,0.251,0.691,0.38c0.307,0.17,0.599,0.355,0.926,0.491
			c0.31,0.127,0.632,0.201,0.951,0.295c0.273,0.081,0.532,0.228,0.815,0.285c0.612,0.122,1.233,0.229,1.855,0.229h56.889
			c5.236,0,9.482-4.245,9.482-9.481s-4.245-9.482-9.482-9.482h-34l59.667-59.708C426.493,306.366,426.767,300.344,423.064,296.64z"
			/>
	</g>
</g>
<g>
</g>
<g>
</g>
<g>
</g>
<g>
</g>
<g>
</g>
<g>
</g>
<g>
</g>
<g>
</g>
<g>
</g>
<g>
</g>
<g>
</g>
<g>
</g>
<g>
</g>
<g>
</g>
<g>
</g>
</svg>
