<?xml version="1.0" encoding="iso-8859-1"?>
<!-- Generator: Adobe Illustrator 19.0.0, SVG Export Plug-In . SVG Version: 6.00 Build 0)  -->
<svg version="1.1" id="Layer_1" xmlns="http://www.w3.org/2000/svg" xmlns:xlink="http://www.w3.org/1999/xlink" x="0px" y="0px"
	 viewBox="0 0 512 512" style="enable-background:new 0 0 512 512;" xml:space="preserve">
<g>
	<g>
		<path d="M511.528,197.717c-1.284-3.943-4.948-6.623-9.099-6.632l-180.891-0.565L265.118,18.672
			c-1.293-3.943-4.976-6.606-9.118-6.606c-4.142,0-7.824,2.664-9.117,6.606L190.462,190.52L9.571,191.085
			c-4.151,0.009-7.815,2.689-9.099,6.632c-1.284,3.938,0.112,8.256,3.467,10.713l146.004,106.769L94.581,487.401
			c-1.265,3.947,0.141,8.258,3.495,10.694c3.374,2.453,7.9,2.446,11.254,0.019L256,392.254l146.67,105.86
			c1.677,1.209,3.645,1.818,5.613,1.818c1.977,0,3.954-0.609,5.641-1.837c3.355-2.437,4.76-6.747,3.495-10.694l-55.362-172.202
			L508.061,208.43C511.416,205.972,512.812,201.655,511.528,197.717z M345.143,303.795c-3.345,2.446-4.742,6.747-3.477,10.682
			l48.54,150.98l-128.593-92.816c-1.677-1.209-3.645-1.818-5.613-1.818c-1.968,0-3.936,0.609-5.613,1.818l-128.594,92.816
			l48.54-150.98c1.265-3.936-0.131-8.237-3.477-10.682L38.854,210.18l158.589-0.487c4.132-0.007,7.796-2.67,9.089-6.604L256,52.425
			l49.468,150.664c1.293,3.933,4.957,6.597,9.09,6.604l158.589,0.487L345.143,303.795z"/>
	</g>
</g>
<g>
	<g>
		<path d="M256,232.765c-26.453,0-47.978,21.525-47.978,47.978s21.524,47.978,47.978,47.978c26.453,0,47.978-21.524,47.978-47.978
			S282.453,232.765,256,232.765z M256,309.53c-15.874,0-28.787-12.913-28.787-28.787c0-15.876,12.913-28.787,28.787-28.787
			c15.874,0,28.787,12.91,28.787,28.787C284.787,296.617,271.874,309.53,256,309.53z"/>
	</g>
</g>
<g>
	<g>
		<path d="M262.813,197.176c-0.478-0.384-0.965-0.862-1.443-1.153c-0.572-0.386-1.153-0.665-1.724-0.865
			c-0.581-0.281-1.153-0.475-1.724-0.571c-1.921-0.382-3.842-0.195-5.566,0.571c-1.246,0.478-2.211,1.155-3.167,2.017
			c-0.862,0.86-1.537,1.921-2.015,3.167c-0.581,1.152-0.768,2.399-0.768,3.645c0,1.244,0.188,2.502,0.665,3.643
			c0.487,1.155,1.256,2.211,2.118,3.076c0.956,0.963,2.015,1.631,3.167,2.108c1.153,0.487,2.399,0.768,3.645,0.768
			c2.586,0,4.985-1.05,6.813-2.877c1.818-1.818,2.783-4.217,2.783-6.719C265.595,201.495,264.537,199.003,262.813,197.176z"/>
	</g>
</g>
<g>
	<g>
		<path d="M264.827,161.961c-0.478-1.246-1.152-2.307-2.015-3.167c-0.478-0.478-0.965-0.862-1.443-1.153
			c-0.572-0.386-1.153-0.665-1.724-0.956c-0.581-0.19-1.153-0.384-1.724-0.48c-1.921-0.382-3.842-0.195-5.566,0.48
			c-1.246,0.478-2.212,1.246-3.167,2.108c-0.862,0.86-1.537,1.921-2.015,3.167c-0.581,1.152-0.768,2.399-0.768,3.645
			c0,1.244,0.188,2.502,0.665,3.643c0.487,1.155,1.256,2.211,2.118,3.076c0.956,0.963,2.015,1.631,3.167,2.108
			c1.153,0.487,2.399,0.768,3.645,0.768c2.586,0,4.985-1.049,6.813-2.877c1.818-1.818,2.783-4.217,2.783-6.719
			C265.595,164.36,265.305,163.113,264.827,161.961z"/>
	</g>
</g>
<g>
	<g>
		<path d="M262.813,120.411c-0.478-0.384-0.965-0.862-1.443-1.153c-0.572-0.386-1.153-0.665-1.724-0.865
			c-0.581-0.281-1.153-0.475-1.724-0.571c-1.921-0.382-3.842-0.197-5.566,0.571c-1.246,0.387-2.212,1.155-3.167,2.017
			c-1.734,1.827-2.783,4.226-2.783,6.812c0,1.244,0.188,2.502,0.665,3.643c0.487,1.155,1.256,2.211,2.118,3.169
			c0.956,0.869,2.015,1.537,3.167,2.015c1.153,0.487,2.399,0.768,3.645,0.768c2.586,0,4.985-1.049,6.813-2.783
			c0.862-0.958,1.537-2.015,2.015-3.169c0.478-1.141,0.768-2.399,0.768-3.643C265.595,124.731,264.537,122.239,262.813,120.411z"/>
	</g>
</g>
<g>
	<g>
		<path d="M224.43,331.513c-2.689-2.68-7.009-3.552-10.458-2.017c-1.246,0.478-2.212,1.155-3.167,2.017
			c-1.734,1.827-2.783,4.226-2.783,6.812c0,1.244,0.291,2.502,0.768,3.643c0.478,1.155,1.153,2.211,2.015,3.169
			c0.956,0.869,2.015,1.537,3.167,2.015c1.153,0.487,2.399,0.768,3.645,0.768c2.586,0,4.985-1.049,6.813-2.783
			c0.862-0.958,1.537-2.015,2.015-3.169c0.478-1.141,0.768-2.399,0.768-3.643C227.213,335.833,226.154,333.341,224.43,331.513z"/>
	</g>
</g>
<g>
	<g>
		<path d="M205.239,360.3c-3.552-3.552-10.073-3.552-13.625,0c-1.734,1.827-2.783,4.32-2.783,6.812c0,1.244,0.188,2.502,0.768,3.643
			c0.478,1.155,1.153,2.211,2.015,3.076c0.956,0.963,2.015,1.63,3.167,2.108c1.153,0.487,2.399,0.768,3.645,0.768
			c1.246,0,2.493-0.281,3.645-0.768c1.152-0.478,2.202-1.145,3.167-2.108c0.862-0.865,1.537-1.921,2.015-3.076
			c0.478-1.141,0.768-2.399,0.768-3.643C208.022,364.62,206.963,362.127,205.239,360.3z"/>
	</g>
</g>
<g>
	<g>
		<path d="M176.453,398.682c-2.211-2.202-5.566-3.261-8.733-2.589c-0.572,0.096-1.153,0.29-1.724,0.571
			c-0.581,0.199-1.153,0.478-1.734,0.865c-0.478,0.291-0.956,0.766-1.434,1.153c-0.862,0.86-1.537,1.921-2.015,3.167
			c-0.581,1.152-0.768,2.399-0.768,3.643c0,1.247,0.188,2.504,0.768,3.645c0.478,1.152,1.153,2.211,2.015,3.076
			c0.956,0.963,1.921,1.63,3.167,2.108c1.153,0.487,2.399,0.766,3.645,0.766c1.246,0,2.493-0.279,3.645-0.766
			c1.152-0.478,2.202-1.145,3.167-2.108c0.862-0.865,1.537-1.923,2.015-3.076c0.572-1.141,0.768-2.399,0.768-3.645
			C179.236,403.002,178.177,400.509,176.453,398.682z"/>
	</g>
</g>
<g>
	<g>
		<path d="M310.79,331.513c-0.478-0.384-0.965-0.862-1.443-1.153c-0.572-0.386-1.153-0.665-1.724-0.865
			c-0.581-0.281-1.153-0.475-1.828-0.571c-3.064-0.672-6.428,0.386-8.63,2.589c-1.734,1.827-2.783,4.226-2.783,6.812
			c0,2.593,0.956,4.992,2.783,6.719c1.818,1.827,4.217,2.877,6.812,2.877c1.246,0,2.493-0.281,3.645-0.768
			c1.246-0.478,2.202-1.145,3.167-2.108c0.862-0.865,1.537-1.921,2.015-3.076c0.572-1.141,0.768-2.399,0.768-3.643
			C313.573,335.833,312.514,333.341,310.79,331.513z"/>
	</g>
</g>
<g>
	<g>
		<path d="M331.996,363.467c-0.478-1.247-1.152-2.307-2.015-3.167c-0.478-0.384-0.965-0.862-1.443-1.153
			c-0.572-0.386-1.153-0.665-1.724-0.865c-0.581-0.281-1.153-0.475-1.827-0.571c-3.064-0.672-6.428,0.386-8.63,2.589
			c-0.862,0.86-1.537,1.921-2.015,3.167c-0.478,1.152-0.768,2.399-0.768,3.645c0,2.502,0.956,4.901,2.783,6.812
			c1.818,1.734,4.217,2.783,6.812,2.783c2.586,0,4.985-1.05,6.813-2.783c1.818-1.82,2.783-4.219,2.783-6.812
			C332.764,365.866,332.474,364.62,331.996,363.467z"/>
	</g>
</g>
<g>
	<g>
		<path d="M360.783,401.849c-0.478-1.246-1.152-2.307-2.015-3.167c-0.965-0.862-2.015-1.631-3.167-2.108
			c-2.305-0.956-4.995-0.956-7.29,0c-1.246,0.478-2.212,1.246-3.167,2.108c-0.862,0.86-1.537,1.921-2.015,3.167
			c-0.581,1.152-0.768,2.399-0.768,3.643c0,2.504,0.956,4.903,2.783,6.815c1.818,1.731,4.217,2.781,6.812,2.781
			c2.586,0,4.985-1.049,6.813-2.781c1.818-1.911,2.783-4.31,2.783-6.815C361.551,404.248,361.26,403.002,360.783,401.849z"/>
	</g>
</g>
<g>
	<g>
		<path d="M339.577,264.345c-2.212-2.202-5.566-3.261-8.733-2.589c-0.572,0.096-1.153,0.29-1.724,0.48
			c-0.581,0.29-1.153,0.569-1.734,0.956c-0.478,0.291-0.956,0.768-1.434,1.153c-1.734,1.733-2.783,4.226-2.783,6.812
			c0,1.244,0.29,2.502,0.768,3.643c0.478,1.155,1.153,2.211,2.015,3.076c1.818,1.827,4.217,2.877,6.812,2.877
			c1.246,0,2.493-0.281,3.645-0.768c1.152-0.478,2.202-1.145,3.167-2.108c0.862-0.865,1.537-1.921,2.015-3.076
			c0.478-1.141,0.768-2.399,0.768-3.643C342.36,268.571,341.301,266.172,339.577,264.345z"/>
	</g>
</g>
<g>
	<g>
		<path d="M377.959,245.153c-0.965-0.862-1.921-1.539-3.167-2.017c-2.305-1.047-4.995-1.047-7.29,0
			c-1.246,0.478-2.212,1.155-3.167,2.017c-1.734,1.827-2.783,4.32-2.783,6.812c0,2.502,0.956,4.901,2.783,6.812
			c1.818,1.734,4.217,2.783,6.812,2.783c1.247,0,2.493-0.281,3.645-0.768c1.152-0.478,2.202-1.145,3.167-2.015
			c0.862-0.958,1.537-2.015,2.015-3.169c0.572-1.141,0.768-2.399,0.768-3.643C380.742,249.473,379.683,246.981,377.959,245.153z"/>
	</g>
</g>
<g>
	<g>
		<path d="M416.341,225.962c-2.689-2.68-7.009-3.552-10.458-2.108c-1.246,0.478-2.305,1.246-3.167,2.108
			c-0.862,0.86-1.537,1.921-2.015,3.167c-0.478,1.152-0.768,2.399-0.768,3.645c0,2.593,0.956,4.992,2.783,6.719
			c1.818,1.827,4.217,2.877,6.812,2.877c2.586,0,4.985-1.049,6.813-2.877c0.862-0.865,1.537-1.921,2.015-3.076
			c0.478-1.141,0.768-2.399,0.768-3.643C419.124,230.282,418.065,227.79,416.341,225.962z"/>
	</g>
</g>
<g>
	<g>
		<path d="M188.063,267.512c-0.478-1.246-1.152-2.307-2.015-3.167c-0.478-0.384-0.965-0.862-1.443-1.153
			c-0.572-0.386-1.153-0.665-1.724-0.956c-0.581-0.19-1.153-0.384-1.828-0.48c-3.064-0.672-6.428,0.386-8.63,2.589
			c-0.862,0.86-1.537,1.921-2.015,3.167c-0.581,1.152-0.768,2.399-0.768,3.645c0,1.244,0.188,2.502,0.768,3.643
			c0.478,1.155,1.153,2.211,2.015,3.169c0.956,0.869,2.015,1.537,3.167,2.015c1.153,0.487,2.399,0.768,3.645,0.768
			c1.246,0,2.493-0.281,3.645-0.768c1.152-0.478,2.202-1.146,3.167-2.015c0.862-0.958,1.537-2.015,2.015-3.169
			c0.478-1.141,0.768-2.399,0.768-3.643C188.831,269.911,188.541,268.664,188.063,267.512z"/>
	</g>
</g>
<g>
	<g>
		<path d="M147.666,245.153c-0.478-0.478-0.965-0.862-1.443-1.153c-0.572-0.386-1.153-0.665-1.724-0.956
			c-0.581-0.19-1.153-0.384-1.724-0.48c-1.256-0.288-2.596-0.288-3.748,0c-0.665,0.096-1.246,0.29-1.818,0.48
			c-0.581,0.29-1.153,0.569-1.734,0.956c-0.478,0.29-0.956,0.675-1.434,1.153c-0.862,0.86-1.537,1.921-2.015,3.167
			c-0.478,1.152-0.768,2.399-0.768,3.645c0,1.244,0.291,2.502,0.768,3.643c0.478,1.155,1.153,2.211,2.015,3.169
			c1.818,1.734,4.217,2.783,6.812,2.783c1.246,0,2.493-0.281,3.645-0.768c1.152-0.478,2.202-1.145,3.167-2.015
			c1.818-1.911,2.783-4.31,2.783-6.812C150.449,249.473,149.39,246.981,147.666,245.153z"/>
	</g>
</g>
<g>
	<g>
		<path d="M109.284,225.962c-0.478-0.384-0.965-0.862-1.443-1.153c-0.572-0.386-1.153-0.665-1.724-0.865
			c-0.581-0.281-1.153-0.475-1.724-0.571c-1.921-0.382-3.842-0.195-5.566,0.571c-1.246,0.478-2.212,1.155-3.167,2.017
			c-1.734,1.827-2.783,4.32-2.783,6.812c0,1.244,0.188,2.502,0.665,3.643c0.581,1.155,1.256,2.211,2.118,3.169
			c1.818,1.734,4.217,2.783,6.812,2.783c1.246,0,2.493-0.281,3.645-0.768c1.152-0.478,2.202-1.145,3.167-2.015
			c1.818-1.911,2.783-4.31,2.783-6.812C112.067,230.282,111.008,227.79,109.284,225.962z"/>
	</g>
</g>
<g>
</g>
<g>
</g>
<g>
</g>
<g>
</g>
<g>
</g>
<g>
</g>
<g>
</g>
<g>
</g>
<g>
</g>
<g>
</g>
<g>
</g>
<g>
</g>
<g>
</g>
<g>
</g>
<g>
</g>
</svg>
