<?xml version="1.0" encoding="iso-8859-1"?>
<!-- Generator: Adobe Illustrator 19.0.0, SVG Export Plug-In . SVG Version: 6.00 Build 0)  -->
<svg version="1.1" id="Layer_1" xmlns="http://www.w3.org/2000/svg" xmlns:xlink="http://www.w3.org/1999/xlink" x="0px" y="0px"
	 viewBox="0 0 512 512" style="enable-background:new 0 0 512 512;" xml:space="preserve">
<g>
	<g>
		<path d="M125.388,193.253c-28.806,0-52.245,23.439-52.245,52.245c0,28.806,23.439,52.245,52.245,52.245
			c28.806,0,52.245-23.439,52.245-52.245C177.633,216.692,154.194,193.253,125.388,193.253z M125.388,276.845
			c-17.286,0-31.347-14.061-31.347-31.347c0-17.286,14.061-31.347,31.347-31.347s31.347,14.061,31.347,31.347
			C156.735,262.784,142.674,276.845,125.388,276.845z"/>
	</g>
</g>
<g>
	<g>
		<path d="M292.571,161.906c-46.092,0-83.592,37.5-83.592,83.592c0,46.092,37.5,83.592,83.592,83.592
			c46.092,0,83.592-37.5,83.592-83.592C376.163,199.406,338.663,161.906,292.571,161.906z M292.571,308.192
			c-34.571,0-62.694-28.123-62.694-62.694c0-34.572,28.123-62.694,62.694-62.694c34.571,0,62.694,28.122,62.694,62.694
			C355.265,280.07,327.143,308.192,292.571,308.192z"/>
	</g>
</g>
<g>
	<g>
		<path d="M480.673,224.693h-34.858C427.466,141.101,337.656,78.362,229.878,78.362C108.235,78.362,0,177.669,0,255.97
			c0,78.301,108.235,177.668,229.878,177.668c107.778,0,197.588-62.659,215.938-146.251h34.858
			c17.276,0,31.327-14.061,31.327-31.347C512,238.755,497.949,224.693,480.673,224.693z M229.878,412.682
			c-107.638,0-208.98-88.296-208.98-156.735c0-68.439,101.342-156.735,208.98-156.735c109.469,0,198.531,70.311,198.531,156.735
			C428.408,342.37,339.347,412.682,229.878,412.682z M480.673,266.489h-30.155v-20.898h30.155c5.847,0,10.429,4.592,10.429,10.449
			C491.102,261.801,486.424,266.489,480.673,266.489z"/>
	</g>
</g>
<g>
	<g>
		<rect x="471.406" y="88.863" width="20.898" height="114.939"/>
	</g>
</g>
<g>
	<g>
		<rect x="471.406" y="308.291" width="20.898" height="114.939"/>
	</g>
</g>
<g>
</g>
<g>
</g>
<g>
</g>
<g>
</g>
<g>
</g>
<g>
</g>
<g>
</g>
<g>
</g>
<g>
</g>
<g>
</g>
<g>
</g>
<g>
</g>
<g>
</g>
<g>
</g>
<g>
</g>
</svg>
