<?xml version="1.0" encoding="iso-8859-1"?>
<!-- Generator: Adobe Illustrator 19.0.0, SVG Export Plug-In . SVG Version: 6.00 Build 0)  -->
<svg version="1.1" id="Layer_1" xmlns="http://www.w3.org/2000/svg" xmlns:xlink="http://www.w3.org/1999/xlink" x="0px" y="0px"
	 viewBox="0 0 512 512" style="enable-background:new 0 0 512 512;" xml:space="preserve">
<g>
	<g>
		<path d="M468.265,128h-75.731V68.154c0-23.5-20.148-42.554-43.698-42.554H152.652c-23.55,0-41.719,19.054-41.719,42.554V128
			H41.756C18.185,128,0,147.071,0,170.596v273.067C0,467.187,18.185,486.4,41.756,486.4h426.508
			c23.571,0,43.735-19.213,43.735-42.737V170.596C512,147.071,491.836,128,468.265,128z M128,68.154
			c0-14.094,10.515-25.488,24.652-25.488h196.183c14.138,0,26.631,11.394,26.631,25.488V128H358.4v-25.587
			c0-23.575-20.152-42.679-43.711-42.679H186.798c-23.558,0-41.731,19.071-41.731,42.594V128H128V68.154z M341.333,102.413V128
			h-179.2v-25.673c0-14.117,10.519-25.527,24.664-25.527H314.69C328.835,76.8,341.333,88.254,341.333,102.413z M494.933,443.663
			c0,14.117-12.51,25.671-26.669,25.671H41.756c-14.158,0-24.69-11.554-24.69-25.671v-25.529h477.867V443.663z M494.933,401.067
			H17.067v-76.8h477.867V401.067z M494.933,307.2H17.067v-76.8h477.867V307.2z M494.933,213.333H17.067v-42.737
			c0-14.119,10.531-25.529,24.69-25.529h76.721H383.01h85.254c14.158,0,26.669,11.41,26.669,25.529V213.333z"/>
	</g>
</g>
<g>
</g>
<g>
</g>
<g>
</g>
<g>
</g>
<g>
</g>
<g>
</g>
<g>
</g>
<g>
</g>
<g>
</g>
<g>
</g>
<g>
</g>
<g>
</g>
<g>
</g>
<g>
</g>
<g>
</g>
</svg>
