<?xml version="1.0" encoding="iso-8859-1"?>
<!-- Generator: Adobe Illustrator 19.0.0, SVG Export Plug-In . SVG Version: 6.00 Build 0)  -->
<svg version="1.1" id="Layer_1" xmlns="http://www.w3.org/2000/svg" xmlns:xlink="http://www.w3.org/1999/xlink" x="0px" y="0px"
	 viewBox="0 0 512 512" style="enable-background:new 0 0 512 512;" xml:space="preserve">
<g>
	<g>
		<path d="M425.38,3.353C423.505,1.2,420.794,0,417.938,0H93.015c-2.855,0-5.567,1.2-7.442,3.353
			c-1.865,2.154-2.142,4.998-1.738,7.825l59.553,412.846v78.048c0,5.442,3.262,9.928,8.704,9.928h206.769
			c5.442,0,10.988-4.486,10.988-9.928v-78.048l58.409-412.846C428.661,8.351,427.246,5.507,425.38,3.353z M350.157,492.308H163.08
			v-59.077h187.077V492.308z M350.322,413.538H160.63L104.37,19.692h302.212L350.322,413.538z"/>
	</g>
</g>
<g>
	<g>
		<path d="M289.938,452.923h-68.923c-5.442,0-9.846,4.404-9.846,9.846c0,5.442,4.404,9.846,9.846,9.846h68.923
			c5.442,0,9.846-4.404,9.846-9.846C299.784,457.327,295.38,452.923,289.938,452.923z"/>
	</g>
</g>
<g>
	<g>
		<path d="M250.553,206.685c-27.144,0-49.231,22.089-49.231,49.231c0,27.147,22.087,49.231,49.231,49.231
			c27.144,0,49.231-22.084,49.231-49.231C299.784,228.774,277.698,206.685,250.553,206.685z M250.553,285.454
			c-16.289,0-29.538-13.247-29.538-29.538c0-16.289,13.25-29.538,29.538-29.538c16.288,0,29.538,13.25,29.538,29.538
			C280.092,272.207,266.842,285.454,250.553,285.454z"/>
	</g>
</g>
<g>
	<g>
		<path d="M327.14,179.332c-3.846-3.849-10.077-3.849-13.923,0l-20.894,20.885c-3.846,3.846-3.846,10.077,0,13.923
			c1.923,1.923,4.442,2.882,6.961,2.882c2.519,0,5.039-0.959,6.961-2.882l20.894-20.884
			C330.986,189.409,330.986,183.175,327.14,179.332z"/>
	</g>
</g>
<g>
	<g>
		<path d="M251.695,314.993c-5.442,0-9.846,4.406-9.846,9.846v29.538c0,5.443,4.404,9.846,9.846,9.846s9.846-4.404,9.846-9.846
			v-29.538C261.541,319.399,257.137,314.993,251.695,314.993z"/>
	</g>
</g>
<g>
	<g>
		<path d="M349.015,246.154h-29.538c-5.442,0-9.846,4.404-9.846,9.846s4.404,9.846,9.846,9.846h29.538
			c5.442,0,9.846-4.404,9.846-9.846S354.457,246.154,349.015,246.154z"/>
	</g>
</g>
<g>
	<g>
		<path d="M208.774,297.687c-3.846-3.846-10.077-3.846-13.923,0l-20.884,20.882c-3.846,3.846-3.846,10.079,0,13.926
			c1.923,1.92,4.442,2.884,6.961,2.884c2.519,0,5.039-0.964,6.961-2.884l20.885-20.887
			C212.621,307.762,212.621,301.534,208.774,297.687z"/>
	</g>
</g>
<g>
	<g>
		<path d="M327.14,318.57l-20.894-20.882c-3.846-3.846-10.077-3.846-13.923,0c-3.846,3.846-3.846,10.075,0,13.921l20.894,20.887
			c1.923,1.92,4.442,2.884,6.961,2.884c2.519,0,5.039-0.964,6.961-2.884C330.986,328.649,330.986,322.416,327.14,318.57z"/>
	</g>
</g>
<g>
	<g>
		<path d="M181.63,246.154h-29.538c-5.442,0-9.846,4.404-9.846,9.846s4.404,9.846,9.846,9.846h29.538
			c5.442,0,9.846-4.404,9.846-9.846S187.072,246.154,181.63,246.154z"/>
	</g>
</g>
<g>
	<g>
		<path d="M208.774,200.216l-20.885-20.885c-3.846-3.849-10.077-3.849-13.923,0c-3.846,3.844-3.846,10.077,0,13.923l20.884,20.884
			c1.923,1.923,4.442,2.882,6.962,2.882c2.519,0,5.038-0.959,6.961-2.882C212.621,210.293,212.621,204.063,208.774,200.216z"/>
	</g>
</g>
<g>
	<g>
		<path d="M251.695,147.608c-5.442,0-9.846,4.406-9.846,9.846v29.538c0,5.443,4.404,9.846,9.846,9.846s9.846-4.404,9.846-9.846
			v-29.538C261.541,152.015,257.137,147.608,251.695,147.608z"/>
	</g>
</g>
<g>
	<g>
		<path d="M314.899,56.788c-5.565-10.276-14.584-15.413-27.058-15.413c-13.865,0-23.447,7.313-28.74,21.942
			c-2.827,7.851-4.24,17.252-4.24,28.202c0,14.135,2.356,25.397,7.067,33.789c5.654,10.05,14.269,15.077,25.846,15.077
			c12.834,0,22.077-6.147,27.731-18.442c3.904-8.572,5.856-19.406,5.856-32.51C321.361,75.613,319.207,64.731,314.899,56.788z
			 M302.717,121c-3.724,5.565-8.728,8.346-15.009,8.346c-7.808,0-13.327-4.555-16.558-13.664
			c-2.108-5.969-3.163-13.865-3.163-23.692c0-13.058,1.649-22.94,4.947-29.649c3.298-6.709,8.514-10.063,15.649-10.063
			c7.762,0,12.99,3.534,15.682,10.601c2.692,7.067,4.039,16.075,4.039,27.024C308.303,105.07,306.44,115.435,302.717,121z"/>
	</g>
</g>
<g>
	<g>
		<path d="M235.476,83.981c-6.146-5.697-13.642-8.548-22.481-8.548c-4.711,0-8.863,0.74-12.452,2.221
			c-2.019,0.853-4.151,1.856-6.394,3.562l4.106-27.062h41.132V41.846h-50.219l-7.336,52.466l10.5,0.892
			c2.108-2.873,4.654-4.974,7.639-6.589c2.983-1.615,6.562-2.351,10.736-2.351c5.743,0,10.668,1.875,14.774,5.555
			c4.106,3.68,6.159,8.904,6.159,15.632c0,5.565-1.728,10.644-5.183,15.221c-3.457,4.577-8.772,6.875-15.952,6.875
			c-3.769,0-7.089-0.654-9.962-2c-5.611-2.647-8.817-6.933-9.625-14.317h-12.587c0.719,9.846,4.094,15.921,10.13,20.341
			c6.036,4.421,12.978,6.62,20.832,6.62c12.339,0,21.325-3.483,26.957-10.437c5.632-6.954,8.447-14.991,8.447-24.098
			C244.697,96.906,241.623,89.68,235.476,83.981z"/>
	</g>
</g>
<g>
</g>
<g>
</g>
<g>
</g>
<g>
</g>
<g>
</g>
<g>
</g>
<g>
</g>
<g>
</g>
<g>
</g>
<g>
</g>
<g>
</g>
<g>
</g>
<g>
</g>
<g>
</g>
<g>
</g>
</svg>
