<?xml version="1.0" encoding="iso-8859-1"?>
<!-- Generator: Adobe Illustrator 19.0.0, SVG Export Plug-In . SVG Version: 6.00 Build 0)  -->
<svg version="1.1" id="Layer_1" xmlns="http://www.w3.org/2000/svg" xmlns:xlink="http://www.w3.org/1999/xlink" x="0px" y="0px"
	 viewBox="0 0 512 512" style="enable-background:new 0 0 512 512;" xml:space="preserve">
<g>
	<g>
		<path d="M347.939,102.4h-26.775v-9.389c0-3.266-1.675-6.902-2.714-9.229h20.252c5.141,0,10.389-4.243,10.389-9.386V9.232
			c0-5.145-5.248-9.232-10.389-9.232H171.139c-5.141,0-8.229,4.086-8.229,9.232v65.164c0,5.143,3.089,9.386,8.229,9.386h20.251
			c-1.037,2.327-0.553,5.964-0.553,9.229v9.389h-28.934c-20.573,0-36.23,16.641-36.23,37.186V474.65
			c0,20.554,15.657,37.35,36.23,37.35h186.036c20.573,0,38.389-16.795,38.389-37.35V139.586
			C386.327,119.041,368.511,102.4,347.939,102.4z M311.855,18.618h18.618v46.545h-18.618V18.618z M265.309,18.618h27.927v46.545
			h-1.157h-26.77V18.618z M218.764,18.618h27.927v46.545h-27.927V18.618z M209.455,93.011c0-5.134,3.13-9.229,8.307-9.229h74.318
			c5.177,0,10.466,4.096,10.466,9.229v9.389h-93.091V93.011z M181.527,65.164V18.618h18.618v46.545H181.527z M367.709,474.65
			c0,10.282-9.466,18.732-19.77,18.732H161.902c-10.305,0-17.611-8.45-17.611-18.732V139.586c0-10.282,7.307-18.568,17.611-18.568
			h37.164h111.709h37.164c10.305,0,19.77,8.286,19.77,18.568V474.65z"/>
	</g>
</g>
<g>
	<g>
		<path d="M254.92,223.339c-25.664,0-46.545,20.884-46.545,46.545c0,25.666,20.882,46.545,46.545,46.545
			c25.664,0,46.545-20.88,46.545-46.545C301.466,244.223,280.584,223.339,254.92,223.339z M254.92,297.811
			c-15.4,0-27.927-12.525-27.927-27.927c0-15.4,12.527-27.927,27.927-27.927s27.927,12.527,27.927,27.927
			C282.848,285.286,270.32,297.811,254.92,297.811z"/>
	</g>
</g>
<g>
	<g>
		<path d="M327.33,329.12l-19.75-19.743c-3.636-3.636-9.527-3.636-13.164,0c-3.636,3.636-3.636,9.525,0,13.161l19.75,19.748
			c1.818,1.816,4.2,2.727,6.582,2.727s4.764-0.911,6.582-2.727C330.966,338.65,330.966,332.757,327.33,329.12z"/>
	</g>
</g>
<g>
	<g>
		<path d="M215.425,309.377c-3.636-3.636-9.527-3.636-13.164,0l-19.75,19.743c-3.636,3.636-3.636,9.53,0,13.166
			c1.818,1.816,4.2,2.727,6.582,2.727c2.382,0,4.764-0.911,6.582-2.727l19.75-19.748
			C219.061,318.902,219.061,313.014,215.425,309.377z"/>
	</g>
</g>
<g>
	<g>
		<path d="M256,167.484c-5.141,0-9.309,4.166-9.309,9.309v27.927c0,5.146,4.168,9.309,9.309,9.309s9.309-4.163,9.309-9.309v-27.927
			C265.309,171.65,261.141,167.484,256,167.484z"/>
	</g>
</g>
<g>
	<g>
		<path d="M189.757,260.655h-27.927c-5.141,0-9.309,4.164-9.309,9.309c0,5.145,4.168,9.309,9.309,9.309h27.927
			c5.141,0,9.309-4.164,9.309-9.309C199.066,264.818,194.898,260.655,189.757,260.655z"/>
	</g>
</g>
<g>
	<g>
		<path d="M256,325.739c-5.141,0-9.309,4.166-9.309,9.309v27.927c0,5.146,4.168,9.309,9.309,9.309s9.309-4.164,9.309-9.309v-27.927
			C265.309,329.905,261.141,325.739,256,325.739z"/>
	</g>
</g>
<g>
	<g>
		<path d="M327.33,197.477c-3.636-3.639-9.527-3.639-13.164,0l-19.75,19.746c-3.636,3.636-3.636,9.527,0,13.164
			c1.818,1.818,4.2,2.725,6.582,2.725c2.382,0,4.763-0.907,6.582-2.725l19.75-19.745
			C330.966,207.005,330.966,201.111,327.33,197.477z"/>
	</g>
</g>
<g>
	<g>
		<path d="M215.425,217.223l-19.75-19.746c-3.636-3.639-9.527-3.639-13.164,0c-3.636,3.634-3.636,9.527,0,13.164l19.75,19.745
			c1.818,1.818,4.2,2.725,6.582,2.725c2.382,0,4.764-0.907,6.582-2.725C219.061,226.75,219.061,220.859,215.425,217.223z"/>
	</g>
</g>
<g>
	<g>
		<path d="M348.011,260.655h-27.927c-5.141,0-9.309,4.164-9.309,9.309c0,5.145,4.168,9.309,9.309,9.309h27.927
			c5.141,0,9.309-4.164,9.309-9.309C357.32,264.818,353.152,260.655,348.011,260.655z"/>
	</g>
</g>
<g>
	<g>
		<path d="M348.011,400.291H226.993c-5.141,0-9.309,4.164-9.309,9.309s4.168,9.309,9.309,9.309h121.018
			c5.141,0,9.309-4.164,9.309-9.309S353.152,400.291,348.011,400.291z"/>
	</g>
</g>
<g>
	<g>
		<path d="M348.011,437.527H180.448c-5.141,0-9.309,4.164-9.309,9.309s4.168,9.309,9.309,9.309h167.564
			c5.141,0,9.309-4.164,9.309-9.309S353.152,437.527,348.011,437.527z"/>
	</g>
</g>
<g>
</g>
<g>
</g>
<g>
</g>
<g>
</g>
<g>
</g>
<g>
</g>
<g>
</g>
<g>
</g>
<g>
</g>
<g>
</g>
<g>
</g>
<g>
</g>
<g>
</g>
<g>
</g>
<g>
</g>
</svg>
