<?xml version="1.0" encoding="iso-8859-1"?>
<!-- Generator: Adobe Illustrator 19.0.0, SVG Export Plug-In . SVG Version: 6.00 Build 0)  -->
<svg version="1.1" id="Layer_1" xmlns="http://www.w3.org/2000/svg" xmlns:xlink="http://www.w3.org/1999/xlink" x="0px" y="0px"
	 viewBox="0 0 512 512" style="enable-background:new 0 0 512 512;" xml:space="preserve">
<g>
	<g>
		<path d="M343.183,123.586h-25.39V97.004c0-14.563-13.241-26.414-26.483-26.455V8.754c0-4.879-4.976-8.754-9.851-8.754h-52.966
			c-4.875,0-7.804,3.875-7.804,8.754V70.55c-15.448,0.041-26.483,11.892-26.483,26.455v26.582h-27.438
			c-19.509,0-34.356,15.78-34.356,35.263v317.733c0,19.491,14.847,35.418,34.356,35.418h176.414
			c19.509,0,36.403-15.927,36.403-35.418V158.849C379.586,139.366,362.692,123.586,343.183,123.586z M238.345,17.655h35.31V35.31
			h-35.31V17.655z M238.345,52.966h35.31v17.655h-35.31V52.966z M211.862,97.004c0-4.853,2.968-8.728,7.877-8.728h8.754h52.966
			h8.754c4.909,0,9.925,3.875,9.925,8.728v26.582h-88.276V97.004z M361.931,476.582c0,9.75-8.976,17.763-18.748,17.763H166.769
			c-9.772,0-16.7-8.013-16.7-17.763V158.849c0-9.75,6.929-17.608,16.7-17.608h35.241h105.931h35.242
			c9.771,0,18.748,7.858,18.748,17.608V476.582z"/>
	</g>
</g>
<g>
	<g>
		<path d="M254.976,255.924c-24.336,0-44.138,19.804-44.138,44.138c0,24.338,19.802,44.138,44.138,44.138
			c24.336,0,44.138-19.8,44.138-44.138C299.114,275.729,279.313,255.924,254.976,255.924z M254.976,326.545
			c-14.603,0-26.483-11.877-26.483-26.483c0-14.603,11.879-26.483,26.483-26.483c14.604,0,26.483,11.879,26.483,26.483
			C281.459,314.668,269.58,326.545,254.976,326.545z"/>
	</g>
</g>
<g>
	<g>
		<path d="M256,353.028c-4.875,0-8.828,3.951-8.828,8.828v26.483c0,4.879,3.953,8.828,8.828,8.828c4.875,0,8.828-3.948,8.828-8.828
			v-26.483C264.828,356.979,260.875,353.028,256,353.028z"/>
	</g>
</g>
<g>
	<g>
		<path d="M343.252,291.31h-26.483c-4.875,0-8.828,3.948-8.828,8.828c0,4.879,3.953,8.828,8.828,8.828h26.483
			c4.875,0,8.828-3.948,8.828-8.828C352.08,295.259,348.127,291.31,343.252,291.31z"/>
	</g>
</g>
<g>
	<g>
		<path d="M323.64,356.235l-18.728-18.722c-3.448-3.448-9.035-3.448-12.483,0c-3.448,3.448-3.448,9.032,0,12.481l18.729,18.726
			c1.724,1.722,3.983,2.586,6.241,2.586c2.258,0,4.517-0.864,6.241-2.586C327.088,365.272,327.088,359.683,323.64,356.235z"/>
	</g>
</g>
<g>
	<g>
		<path d="M217.524,337.513c-3.448-3.448-9.034-3.448-12.483,0l-18.728,18.722c-3.448,3.448-3.448,9.037,0,12.485
			c1.724,1.722,3.983,2.586,6.241,2.586c2.259,0,4.517-0.864,6.241-2.586l18.728-18.726
			C220.972,346.545,220.972,340.961,217.524,337.513z"/>
	</g>
</g>
<g>
	<g>
		<path d="M193.183,291.31H166.7c-4.875,0-8.828,3.948-8.828,8.828c0,4.879,3.953,8.828,8.828,8.828h26.483
			c4.875,0,8.828-3.948,8.828-8.828C202.011,295.259,198.058,291.31,193.183,291.31z"/>
	</g>
</g>
<g>
	<g>
		<path d="M256,202.959c-4.875,0-8.828,3.951-8.828,8.828v26.483c0,4.879,3.953,8.828,8.828,8.828c4.875,0,8.828-3.948,8.828-8.828
			v-26.483C264.828,206.91,260.875,202.959,256,202.959z"/>
	</g>
</g>
<g>
	<g>
		<path d="M323.64,231.401c-3.448-3.451-9.034-3.451-12.483,0l-18.729,18.724c-3.448,3.448-3.448,9.034,0,12.483
			c1.724,1.724,3.983,2.584,6.242,2.584c2.259,0,4.517-0.86,6.241-2.584l18.728-18.724
			C327.088,240.435,327.088,234.847,323.64,231.401z"/>
	</g>
</g>
<g>
	<g>
		<path d="M217.524,250.125l-18.728-18.724c-3.448-3.45-9.034-3.45-12.483,0c-3.448,3.446-3.448,9.035,0,12.483l18.728,18.724
			c1.724,1.724,3.983,2.584,6.241,2.584s4.517-0.86,6.241-2.584C220.972,259.159,220.972,253.573,217.524,250.125z"/>
	</g>
</g>
<g>
</g>
<g>
</g>
<g>
</g>
<g>
</g>
<g>
</g>
<g>
</g>
<g>
</g>
<g>
</g>
<g>
</g>
<g>
</g>
<g>
</g>
<g>
</g>
<g>
</g>
<g>
</g>
<g>
</g>
</svg>
