<?xml version="1.0" encoding="iso-8859-1"?>
<!-- Generator: Adobe Illustrator 19.0.0, SVG Export Plug-In . SVG Version: 6.00 Build 0)  -->
<svg version="1.1" id="Layer_1" xmlns="http://www.w3.org/2000/svg" xmlns:xlink="http://www.w3.org/1999/xlink" x="0px" y="0px"
	 viewBox="0 0 512 512" style="enable-background:new 0 0 512 512;" xml:space="preserve">
<g>
	<g>
		<path d="M256,0C152.003,0,67.397,84.65,67.397,188.643c0,4.964,4.021,9.018,8.981,9.018h171.683v296.377h-81.872
			c-4.96,0-8.981,4.017-8.981,8.981c0,4.964,4.021,8.981,8.981,8.981h80.83h17.962h80.83c4.96,0,8.981-4.017,8.981-8.981
			c0-4.964-4.021-8.981-8.981-8.981h-79.788V197.661h169.599c4.96,0,8.981-4.054,8.981-9.018C444.603,84.65,359.998,0,256,0z
			 M85.591,179.699C89.595,103.36,144.537,39.523,217.15,22.543c-24.162,30.272-40.565,87.553-41.885,157.156H85.591z
			 M193.224,179.699c1.9-96.547,33.932-161.66,62.776-161.66c28.842,0,60.876,65.113,62.776,161.66H193.224z M336.736,179.699
			c-1.32-69.604-17.724-126.884-41.886-157.156c72.614,16.98,127.555,80.817,131.559,157.156H336.736z"/>
	</g>
</g>
<g>
</g>
<g>
</g>
<g>
</g>
<g>
</g>
<g>
</g>
<g>
</g>
<g>
</g>
<g>
</g>
<g>
</g>
<g>
</g>
<g>
</g>
<g>
</g>
<g>
</g>
<g>
</g>
<g>
</g>
</svg>
