<?xml version="1.0" encoding="iso-8859-1"?>
<!-- Generator: Adobe Illustrator 19.0.0, SVG Export Plug-In . SVG Version: 6.00 Build 0)  -->
<svg version="1.1" id="Layer_1" xmlns="http://www.w3.org/2000/svg" xmlns:xlink="http://www.w3.org/1999/xlink" x="0px" y="0px"
	 viewBox="0 0 512 512" style="enable-background:new 0 0 512 512;" xml:space="preserve">
<g>
	<g>
		<path d="M273.708,25.813V8.532c0-4.714-3.816-8.532-8.532-8.532c-4.716,0-8.532,3.818-8.532,8.532v17.281
			c-95.986,4.472-171.138,83.061-171.138,178.995c0,4.716,3.322,8.568,8.038,8.568h163.1v220.396L82.164,300.382
			c-3.741-2.856-9.336-2.148-12.211,1.585c-2.866,3.739-2.283,9.097,1.458,11.965l133.304,102.281l-23.667,78.722h-53.376
			c-4.716,0-8.532,3.816-8.532,8.532c0,4.716,3.816,8.532,8.532,8.532h127.982h17.064h119.45c4.716,0,8.532-3.816,8.532-8.532
			c0-4.716-3.816-8.532-8.532-8.532H335.34l-39.536-30.346l125.426-55.763c4.308-1.917,6.241-6.966,4.333-11.273
			c-1.917-4.308-6.949-6.245-11.265-4.337L280.88,452.733l-7.172-5.88V213.376h161.121c4.716,0,9.026-3.852,9.026-8.568
			C443.854,108.874,367.561,30.285,273.708,25.813z M256.643,494.936h-29.035l29.035-12.536V494.936z M256.643,463.721
			l-54.998,24.336l17.989-60.775l37.009,27.996V463.721z M102.301,196.312c3.797-72.523,55.996-133.168,124.976-149.299
			c-22.953,28.758-38.536,83.176-39.79,149.299H102.301z M278.542,472.483l28.744,22.453h-33.579v-20.12L278.542,472.483z
			 M204.549,196.312c1.804-91.72,32.239-153.578,59.637-153.578c27.396,0,57.831,61.858,59.637,153.578H204.549z M340.885,196.312
			c-1.254-66.124-16.839-120.541-39.792-149.299c68.982,16.131,121.181,76.776,124.978,149.299H340.885z"/>
	</g>
</g>
<g>
</g>
<g>
</g>
<g>
</g>
<g>
</g>
<g>
</g>
<g>
</g>
<g>
</g>
<g>
</g>
<g>
</g>
<g>
</g>
<g>
</g>
<g>
</g>
<g>
</g>
<g>
</g>
<g>
</g>
</svg>
