<?xml version="1.0" encoding="iso-8859-1"?>
<!-- Generator: Adobe Illustrator 19.0.0, SVG Export Plug-In . SVG Version: 6.00 Build 0)  -->
<svg version="1.1" id="Layer_1" xmlns="http://www.w3.org/2000/svg" xmlns:xlink="http://www.w3.org/1999/xlink" x="0px" y="0px"
	 viewBox="0 0 512 512" style="enable-background:new 0 0 512 512;" xml:space="preserve">
<g>
	<g>
		<path d="M256,102.4c-84.691,0-153.599,68.91-153.599,153.601C102.401,340.69,171.309,409.6,256,409.6
			c84.691,0,153.599-68.91,153.599-153.599C409.599,171.31,340.691,102.4,256,102.4z M256,392.534
			c-75.283,0-136.533-61.25-136.533-136.533c0-75.285,61.25-136.535,136.533-136.535c75.283,0,136.533,61.25,136.533,136.535
			C392.533,331.284,331.283,392.534,256,392.534z"/>
	</g>
</g>
<g>
	<g>
		<path d="M256,145.068c-61.166,0-110.933,49.764-110.933,110.933c0,61.167,49.767,110.933,110.933,110.933
			c61.166,0,110.933-49.766,110.933-110.933C366.933,194.832,317.166,145.068,256,145.068z M256,349.867
			c-51.758,0-93.866-42.108-93.866-93.866c0-51.758,42.108-93.866,93.866-93.866c51.758,0,93.866,42.108,93.866,93.866
			C349.866,307.759,307.758,349.867,256,349.867z"/>
	</g>
</g>
<g>
	<g>
		<path d="M437.016,74.975c-3.333-3.333-8.733-3.333-12.067,0l-48.266,48.275c-3.333,3.333-3.333,8.735,0,12.069
			c1.667,1.665,3.85,2.5,6.033,2.5c2.183,0,4.367-0.835,6.033-2.5l48.266-48.275C440.349,83.71,440.349,78.308,437.016,74.975z"/>
	</g>
</g>
<g>
	<g>
		<path d="M135.317,376.673c-3.333-3.333-8.733-3.333-12.067,0l-48.266,48.275c-3.333,3.333-3.333,8.736,0,12.069
			c1.667,1.664,3.85,2.498,6.033,2.498s4.367-0.833,6.033-2.498l48.266-48.275C138.651,385.409,138.651,380.007,135.317,376.673z"/>
	</g>
</g>
<g>
	<g>
		<path d="M76.801,247.539H8.534c-4.717,0-8.533,3.817-8.533,8.533s3.817,8.533,8.533,8.533h68.266c4.717,0,8.533-3.817,8.533-8.533
			S81.518,247.539,76.801,247.539z"/>
	</g>
</g>
<g>
	<g>
		<path d="M256.99,426.667c-4.717,0-8.533,3.817-8.533,8.533v68.266c0,4.715,3.817,8.533,8.533,8.533s8.533-3.819,8.533-8.533V435.2
			C265.523,430.484,261.706,426.667,256.99,426.667z"/>
	</g>
</g>
<g>
	<g>
		<path d="M135.317,123.25L87.051,74.975c-3.333-3.333-8.733-3.333-12.067,0s-3.333,8.735,0,12.069l48.266,48.275
			c1.667,1.665,3.85,2.5,6.033,2.5s4.367-0.835,6.033-2.5C138.651,131.985,138.651,126.583,135.317,123.25z"/>
	</g>
</g>
<g>
	<g>
		<path d="M437.016,424.948l-48.266-48.275c-3.333-3.333-8.733-3.333-12.067,0s-3.333,8.736,0,12.069l48.266,48.275
			c1.667,1.664,3.85,2.498,6.033,2.498c2.183,0,4.366-0.833,6.033-2.498C440.349,433.684,440.349,428.282,437.016,424.948z"/>
	</g>
</g>
<g>
	<g>
		<path d="M503.466,247.539h-68.266c-4.717,0-8.533,3.817-8.533,8.533s3.817,8.533,8.533,8.533h68.266
			c4.717,0,8.533-3.817,8.533-8.533S508.182,247.539,503.466,247.539z"/>
	</g>
</g>
<g>
	<g>
		<path d="M256.99,0c-4.717,0-8.533,3.819-8.533,8.533V76.8c0,4.717,3.817,8.533,8.533,8.533s8.533-3.816,8.533-8.533V8.533
			C265.523,3.819,261.706,0,256.99,0z"/>
	</g>
</g>
<g>
</g>
<g>
</g>
<g>
</g>
<g>
</g>
<g>
</g>
<g>
</g>
<g>
</g>
<g>
</g>
<g>
</g>
<g>
</g>
<g>
</g>
<g>
</g>
<g>
</g>
<g>
</g>
<g>
</g>
</svg>
