<?xml version="1.0" encoding="iso-8859-1"?>
<!-- Generator: Adobe Illustrator 19.0.0, SVG Export Plug-In . SVG Version: 6.00 Build 0)  -->
<svg version="1.1" id="Layer_1" xmlns="http://www.w3.org/2000/svg" xmlns:xlink="http://www.w3.org/1999/xlink" x="0px" y="0px"
	 viewBox="0 0 512 512" style="enable-background:new 0 0 512 512;" xml:space="preserve">
<g>
	<g>
		<path d="M511.698,268.242c-9.556-36.64-43.742-156.416-82.401-159.571c-12.209-0.907-22.339,7.537-30.256,25.36
			c-2.13,4.787,0.028,10.389,4.81,12.521c4.792,2.121,10.385-0.039,12.514-4.817c4.769-10.739,8.931-14.23,11.385-14.167
			c14.524,1.187,39.225,56.817,57.336,116.326c-3.773-1.06-7.805-1.63-12.065-1.63H302.449c-13.153,0-24.441,5.278-30.969,14.491
			c-1.003,1.412-1.837,2.102-2.589,4.472h-27.623c-0.676-2.37-1.427-2.704-2.303-3.972c-6.574-9.528-18.033-14.991-31.436-14.991
			H36.957c-3.441,0-6.743,0.34-9.877,1.039c18.094-59.287,42.681-114.532,57.156-115.716c2.533,0.12,6.611,3.417,11.385,14.158
			c2.121,4.787,7.704,6.922,12.514,4.81c4.783-2.13,6.94-7.734,4.81-12.521c-7.922-17.827-18.14-26.272-30.256-25.365
			C44.031,111.828,9.845,231.602,0.289,268.242c-0.378,1.451-0.363,2.901-0.08,4.278c-0.554,5.614,0.153,11.593,2.191,17.584
			c2.19,8.417,31.321,113.271,119.843,113.271c88.142,0,117.403-103.916,119.815-113.12c1.236-3.382,1.981-7.692,2.337-10.063
			h21.343c0.323,2.37,1.011,6.595,2.154,9.952c2.19,8.417,31.321,113.252,119.843,113.252c88.143,0,117.403-103.967,119.815-113.171
			c1.721-4.704,2.549-9.429,2.572-13.991C511.756,274.011,512.447,271.117,511.698,268.242z M224.131,284.009
			c-0.139,0.373-0.259,0.761-0.357,1.148c-0.236,0.993-24.788,99.254-101.532,99.254c-76.739,0-101.296-98.261-101.532-99.254
			c-0.074-0.306-0.167-0.618-0.273-0.914c-2.292-6.547-1.93-12.406,1.019-16.563c2.968-4.185,8.472-6.452,15.501-6.452h170.572
			c7.079,0,12.848,2.442,15.83,6.757C226.215,272.124,226.492,277.786,224.131,284.009z M489.623,284.009
			c-0.139,0.373-0.259,0.761-0.357,1.148c-0.236,0.993-24.788,99.254-101.532,99.254c-76.739,0-101.296-98.261-101.532-99.254
			c-0.074-0.306-0.167-0.618-0.273-0.914c-2.292-6.547-1.93-12.406,1.019-16.563c2.968-4.185,8.473-6.452,15.501-6.452h170.572
			c7.079,0,12.848,2.442,15.829,6.757C491.707,272.124,491.985,277.786,489.623,284.009z"/>
	</g>
</g>
<g>
</g>
<g>
</g>
<g>
</g>
<g>
</g>
<g>
</g>
<g>
</g>
<g>
</g>
<g>
</g>
<g>
</g>
<g>
</g>
<g>
</g>
<g>
</g>
<g>
</g>
<g>
</g>
<g>
</g>
</svg>
