<?xml version="1.0" encoding="iso-8859-1"?>
<!-- Generator: Adobe Illustrator 19.0.0, SVG Export Plug-In . SVG Version: 6.00 Build 0)  -->
<svg version="1.1" id="Layer_1" xmlns="http://www.w3.org/2000/svg" xmlns:xlink="http://www.w3.org/1999/xlink" x="0px" y="0px"
	 viewBox="0 0 512 512" style="enable-background:new 0 0 512 512;" xml:space="preserve">
<g>
	<g>
		<path d="M256,0c-57.417,0-102.4,112.448-102.4,255.998C153.6,399.55,198.583,512,256,512c57.417,0,102.4-112.45,102.4-256.002
			C358.4,112.448,313.417,0,256,0z M231.39,482.965c-23.467-21.281-43.4-69.881-53.385-136.987l53.385-20.388V482.965z
			 M231.39,307.321l-56.177,21.261c-0.506-4.373-1.465-8.813-1.881-13.321c0.204-0.069,0.904-0.102,1.104-0.188l56.954-23.514
			V307.321z M231.39,273.079l-58.944,24.339c-0.835-13.308-1.037-27.125-1.037-41.421c0-113.277,27.981-197.069,59.981-226.964
			V273.079z M265.523,493.569c-4.267,0.894-5.698,1.365-8.533,1.365c-2.835,0-6.4-0.471-8.533-1.365V319.071l8.525-3.254l8.542,3.26
			V493.569z M265.523,300.81l-8.542-3.26l-8.525,3.254V284.45l5.129-2.342c1.875-0.683,4.173-0.692,5.698-0.142l6.24,2.494V300.81z
			 M265.523,266.004c-6.4-1.929-12.8-1.933-17.067,0.025v-247.6c2.133-0.892,5.698-1.363,8.533-1.363
			c2.835,0,4.267,0.471,8.533,1.363V266.004z M282.59,482.965V325.594l53.383,20.385
			C325.988,413.085,303.923,461.683,282.59,482.965z M337.9,328.585l-55.31-21.26v-15.756l55.946,23.504
			c0.208,0.087,0.171,0.123,0.379,0.192C338.498,319.773,338.406,324.213,337.9,328.585z M282.59,273.089V29.033
			c32,29.896,59.238,113.688,59.238,226.964c0,14.298-0.2,28.119-1.037,41.427L282.59,273.089z"/>
	</g>
</g>
<g>
</g>
<g>
</g>
<g>
</g>
<g>
</g>
<g>
</g>
<g>
</g>
<g>
</g>
<g>
</g>
<g>
</g>
<g>
</g>
<g>
</g>
<g>
</g>
<g>
</g>
<g>
</g>
<g>
</g>
</svg>
