<?xml version="1.0" encoding="iso-8859-1"?>
<!-- Generator: Adobe Illustrator 19.0.0, SVG Export Plug-In . SVG Version: 6.00 Build 0)  -->
<svg version="1.1" id="Layer_1" xmlns="http://www.w3.org/2000/svg" xmlns:xlink="http://www.w3.org/1999/xlink" x="0px" y="0px"
	 viewBox="0 0 512 512" style="enable-background:new 0 0 512 512;" xml:space="preserve">
<g>
	<g>
		<path d="M499.584,28.909c-36.272-36.274-154.439,4.755-301.931,152.245c-49.942,49.944-92.107,102.15-122.059,151.09
			c-40.937,0.601-72.443,41.714-73.829,43.572c-2.321,3.09-2.356,7.339-0.086,10.466c2.269,3.124,6.327,4.393,9.979,3.178
			c13.615-4.628,25.365-4.99,35.425-2.728c-19.03,45.185-19.654,78.38-1.672,96.35c8.17,8.166,20.475,12.421,36.345,12.421
			c54.619-0.009,151.299-50.373,265.585-164.661C494.838,183.342,535.865,65.19,499.584,28.909z M34.936,367.948
			c-0.198,0-0.396,0-0.59,0c11.973-11.026,28.662-19.564,46.497-17.738c21.116,2.196,40.385,20.111,57.35,53.437l-9.833,4.884
			c-0.327,0.164-0.642,0.327-0.948,0.534l-17.533,11.68c-7.995-16.652-22.557-35.973-43.829-46.081
			c-0.782-0.879-1.746-1.622-2.883-2.147c-1.346-0.627-2.766-0.7-4.156-0.625C51.687,369.309,43.668,367.948,34.936,367.948z
			 M57.883,470.646c-12.213-12.208-10.094-40.135,5.585-77.306c23.406,14.006,33.413,41.783,34.042,43.581
			c0.896,2.576,2.937,4.595,5.526,5.465c0.917,0.31,1.869,0.454,2.817,0.454c1.718,0,3.42-0.502,4.884-1.475l26.005-17.339
			l17.15-8.571c4.272-2.136,6.068-7.287,4.048-11.62c-17.795-38.135-38.542-61.177-62.802-68.795
			c15.525-24.622,33.781-50.05,55.832-75.557v59.818c0,24.349,18.789,44.235,43.144,44.235h92.182
			C193.397,442.921,89.033,501.806,57.883,470.646z M334.869,318.445c-9.297,9.296-18.909,18.631-28.723,27.452H194.113
			c-14.626,0-25.503-11.969-25.503-26.595v-79.326c0-0.336-0.574-0.655-0.611-0.98c13.416-15.216,27.917-30.393,42.893-45.368
			c6.271-6.271,12.845-12.486,19.461-18.623v73.8c0,19.45,14.839,35.348,34.34,35.348h102.679
			C356.798,295.179,345.917,307.396,334.869,318.445z M382.346,267.056c-0.96-0.357-1.987-0.543-3.07-0.543H264.693
			c-9.772,0-16.7-7.98-16.7-17.708v-88.213c0-0.549-0.577-1.083-0.673-1.606C343.023,73.472,454.898,8.923,487.366,41.399
			C518.199,72.236,461.321,174.864,382.346,267.056z"/>
	</g>
</g>
<g>
</g>
<g>
</g>
<g>
</g>
<g>
</g>
<g>
</g>
<g>
</g>
<g>
</g>
<g>
</g>
<g>
</g>
<g>
</g>
<g>
</g>
<g>
</g>
<g>
</g>
<g>
</g>
<g>
</g>
</svg>
