<?xml version="1.0" encoding="iso-8859-1"?>
<!-- Generator: Adobe Illustrator 19.0.0, SVG Export Plug-In . SVG Version: 6.00 Build 0)  -->
<svg version="1.1" id="Layer_1" xmlns="http://www.w3.org/2000/svg" xmlns:xlink="http://www.w3.org/1999/xlink" x="0px" y="0px"
	 viewBox="0 0 512 512" style="enable-background:new 0 0 512 512;" xml:space="preserve">
<g>
	<g>
		<path d="M511.463,362.14l-5.924-55.806c-4-33.965-31.675-62.717-61.856-71.953v-57.996c0-42.361-35.74-76.725-78.096-76.725
			H146.093c-42.355,0-75.55,34.364-75.55,76.725v57.996c-32.924,9.236-60.361,37.988-63.105,71.953c0,0.005,0,0.005,0,0.005
			l-6.891,55.795c-2.433,20.621,3.287,40.138,16.395,54.88c13.075,14.71,31.515,22.86,52.221,22.86h373.354
			c20.706,0,39.312-8.151,52.398-22.871C508.012,402.273,513.896,382.755,511.463,362.14z M92.492,176.385
			c0-30.256,23.345-54.776,53.601-54.776h219.494c30.256,0,56.146,24.52,56.146,54.776v54.971H92.492V176.385z M478.517,402.423
			c-8.863,9.967-21.649,15.503-36,15.503H69.163c-14.351,0-27.126-5.536-35.989-15.497c-8.874-9.989-12.84-23.395-11.157-37.703
			l6.559-55.758c3.622-30.711,31.692-55.663,62.59-55.663h329.348c30.898,0,58.968,24.939,62.59,55.644l6.559,55.807
			C491.346,379.059,487.391,392.434,478.517,402.423z"/>
	</g>
</g>
<g>
	<g>
		<path d="M102.194,308.081c-24.211,0-43.899,19.693-43.899,43.899c0,24.205,19.688,43.899,43.899,43.899
			c24.211,0,43.899-19.694,43.899-43.899C146.093,327.774,126.405,308.081,102.194,308.081z M102.194,373.929
			c-12.1,0-21.949-9.844-21.949-21.949c0-12.106,9.85-21.949,21.949-21.949c12.1,0,21.949,9.844,21.949,21.949
			C124.144,364.085,114.294,373.929,102.194,373.929z"/>
	</g>
</g>
<g>
	<g>
		<path d="M135.118,450.752c-6.066,0-10.975,4.914-10.975,10.975c0,15.128-12.303,27.437-27.437,27.437
			c-15.133,0-27.437-12.309-27.437-27.437c0-6.061-4.908-10.975-10.975-10.975c-6.066,0-10.975,4.914-10.975,10.975
			c0,27.233,22.153,49.386,49.386,49.386c27.233,0,49.386-22.153,49.386-49.386C146.093,455.666,141.185,450.752,135.118,450.752z"
			/>
	</g>
</g>
<g>
	<g>
		<path d="M464.359,450.752c-6.066,0-10.975,4.914-10.975,10.975c0,15.128-12.303,27.437-27.437,27.437
			c-15.133,0-27.437-12.309-27.437-27.437c0-6.061-4.908-10.975-10.975-10.975c-6.066,0-10.975,4.914-10.975,10.975
			c0,27.233,22.153,49.386,49.386,49.386c27.233,0,49.386-22.153,49.386-49.386C475.334,455.666,470.426,450.752,464.359,450.752z"
			/>
	</g>
</g>
<g>
	<g>
		<path d="M409.486,308.081c-24.211,0-43.899,19.693-43.899,43.899c0,24.205,19.688,43.899,43.899,43.899
			c24.211,0,43.899-19.694,43.899-43.899C453.385,327.774,433.697,308.081,409.486,308.081z M409.486,373.929
			c-12.1,0-21.949-9.844-21.949-21.949c0-12.106,9.85-21.949,21.949-21.949c12.1,0,21.949,9.844,21.949,21.949
			C431.435,364.085,421.586,373.929,409.486,373.929z"/>
	</g>
</g>
<g>
	<g>
		<path d="M321.688,0.887H189.992c-6.066,0-9.702,4.816-9.702,10.877v54.874c0,6.06,3.636,11.072,9.702,11.072h131.696
			c6.066,0,12.247-5.012,12.247-11.072V11.764C333.936,5.703,327.754,0.887,321.688,0.887z M311.986,55.761H202.239V22.836h109.747
			V55.761z"/>
	</g>
</g>
<g>
</g>
<g>
</g>
<g>
</g>
<g>
</g>
<g>
</g>
<g>
</g>
<g>
</g>
<g>
</g>
<g>
</g>
<g>
</g>
<g>
</g>
<g>
</g>
<g>
</g>
<g>
</g>
<g>
</g>
</svg>
