<?xml version="1.0" encoding="iso-8859-1"?>
<!-- Generator: Adobe Illustrator 19.0.0, SVG Export Plug-In . SVG Version: 6.00 Build 0)  -->
<svg version="1.1" id="Layer_1" xmlns="http://www.w3.org/2000/svg" xmlns:xlink="http://www.w3.org/1999/xlink" x="0px" y="0px"
	 viewBox="0 0 512 512" style="enable-background:new 0 0 512 512;" xml:space="preserve">
<g>
	<g>
		<path d="M295.391,0h-78.783c-5.443,0-8.706,4.322-8.706,9.76v39.391c0,5.438,3.263,9.935,8.706,9.935h78.783
			c5.443,0,10.99-4.497,10.99-9.935V9.76C306.381,4.322,300.835,0,295.391,0z M286.686,39.391h-59.087V19.696h59.087V39.391z"/>
	</g>
</g>
<g>
	<g>
		<path d="M256,78.695c-119.463,0-216.652,97.19-216.652,216.652C39.348,414.81,136.537,512,256,512
			c119.463,0,216.652-97.19,216.652-216.652C472.652,175.885,375.463,78.695,256,78.695z M256,492.304
			c-108.605,0-196.957-88.357-196.957-196.957c0-108.601,88.352-196.957,196.957-196.957c108.605,0,196.957,88.356,196.957,196.957
			C452.957,403.948,364.605,492.304,256,492.304z"/>
	</g>
</g>
<g>
	<g>
		<path d="M256,137.782c-86.88,0-157.565,70.685-157.565,157.565c0,86.88,70.685,157.565,157.565,157.565
			c86.88,0,157.565-70.685,157.565-157.565C413.565,208.467,342.88,137.782,256,137.782z M256,433.217
			c-76.023,0-137.87-61.847-137.87-137.87c0-76.023,61.847-137.87,137.87-137.87s137.87,61.847,137.87,137.87
			C393.87,371.37,332.023,433.217,256,433.217z"/>
	</g>
</g>
<g>
	<g>
		<path d="M317.472,243.223l-13.926-13.926l-30.561,30.564c-5.15-2.477-10.898-3.906-16.986-3.906
			c-21.725,0-39.391,17.671-39.391,39.391c0,6.087,1.428,11.834,3.902,16.985l-30.561,30.566l13.926,13.926l29.373-29.377
			c6.431,4.573,14.272,7.291,22.751,7.291c21.725,0,39.391-17.671,39.391-39.391c0-8.476-2.717-16.315-7.29-22.75L317.472,243.223z
			 M256,315.043c-10.857,0-19.696-8.833-19.696-19.696c0-10.863,8.838-19.696,19.696-19.696c10.858,0,19.696,8.833,19.696,19.696
			C275.696,306.21,266.858,315.043,256,315.043z"/>
	</g>
</g>
<g>
</g>
<g>
</g>
<g>
</g>
<g>
</g>
<g>
</g>
<g>
</g>
<g>
</g>
<g>
</g>
<g>
</g>
<g>
</g>
<g>
</g>
<g>
</g>
<g>
</g>
<g>
</g>
<g>
</g>
</svg>
