<?xml version="1.0" encoding="iso-8859-1"?>
<!-- Generator: Adobe Illustrator 19.0.0, SVG Export Plug-In . SVG Version: 6.00 Build 0)  -->
<svg version="1.1" id="Layer_1" xmlns="http://www.w3.org/2000/svg" xmlns:xlink="http://www.w3.org/1999/xlink" x="0px" y="0px"
	 viewBox="0 0 512 512" style="enable-background:new 0 0 512 512;" xml:space="preserve">
<g>
	<g>
		<path d="M361.143,374.794V73.048C361.143,32.722,327.301,0,287.007,0h-64.134c-40.295,0-72.016,32.722-72.016,73.048v301.746
			c0,34.029,22.857,62.703,54.857,70.825v48.096h-28.489c-5.049,0-9.143,4.094-9.143,9.143s4.094,9.143,9.143,9.143h36.571h82.286
			h36.571c5.049,0,9.143-4.094,9.143-9.143s-4.094-9.143-9.143-9.143h-26.368v-48.096C336,437.497,361.143,408.823,361.143,374.794z
			 M288,493.714h-64V448h64V493.714z M287.007,429.714h-64.134c-30.21,0-53.73-24.684-53.73-54.921V73.048
			c0-30.241,23.52-54.762,53.73-54.762h64.134c30.21,0,55.851,24.521,55.851,54.762v301.746
			C342.857,405.03,317.216,429.714,287.007,429.714z"/>
	</g>
</g>
<g>
	<g>
		<path d="M254.94,292.49c-32.768,0-59.429,26.661-59.429,59.429c0,32.768,26.661,59.429,59.429,59.429
			c32.768,0,59.429-26.661,59.429-59.429C314.368,319.151,287.708,292.49,254.94,292.49z M254.94,393.062
			c-22.687,0-41.143-18.456-41.143-41.143c0-22.688,18.456-41.143,41.143-41.143c22.688,0,41.143,18.455,41.143,41.143
			C296.083,374.606,277.627,393.062,254.94,393.062z"/>
	</g>
</g>
<g>
	<g>
		<path d="M254.94,164.49c-32.768,0-59.429,26.661-59.429,59.429c0,32.768,26.661,59.429,59.429,59.429
			c32.768,0,59.429-26.661,59.429-59.429C314.368,191.151,287.708,164.49,254.94,164.49z M254.94,265.062
			c-22.687,0-41.143-18.456-41.143-41.143c0-22.688,18.456-41.143,41.143-41.143c22.688,0,41.143,18.455,41.143,41.143
			C296.083,246.606,277.627,265.062,254.94,265.062z"/>
	</g>
</g>
<g>
	<g>
		<path d="M254.94,319.919c-17.643,0-32,14.357-32,32c0,5.049,4.094,9.143,9.143,9.143s9.143-4.094,9.143-9.143
			c0-7.563,6.152-13.714,13.714-13.714c5.049,0,9.143-4.094,9.143-9.143C264.083,324.012,259.989,319.919,254.94,319.919z"/>
	</g>
</g>
<g>
	<g>
		<path d="M254.94,191.919c-17.643,0-32,14.357-32,32c0,5.049,4.094,9.143,9.143,9.143s9.143-4.094,9.143-9.143
			c0-7.563,6.152-13.714,13.714-13.714c5.049,0,9.143-4.094,9.143-9.143C264.083,196.012,259.989,191.919,254.94,191.919z"/>
	</g>
</g>
<g>
	<g>
		<path d="M254.94,36.49c-32.768,0-59.429,26.661-59.429,59.429c0,32.768,26.661,59.429,59.429,59.429
			c32.768,0,59.429-26.661,59.429-59.429C314.368,63.151,287.708,36.49,254.94,36.49z M254.94,137.062
			c-22.687,0-41.143-18.456-41.143-41.143c0-22.688,18.456-41.143,41.143-41.143c22.688,0,41.143,18.455,41.143,41.143
			C296.083,118.606,277.627,137.062,254.94,137.062z"/>
	</g>
</g>
<g>
	<g>
		<path d="M254.94,63.919c-17.643,0-32,14.357-32,32c0,5.049,4.094,9.143,9.143,9.143s9.143-4.094,9.143-9.143
			c0-7.563,6.152-13.714,13.714-13.714c5.049,0,9.143-4.094,9.143-9.143C264.083,68.012,259.989,63.919,254.94,63.919z"/>
	</g>
</g>
<g>
</g>
<g>
</g>
<g>
</g>
<g>
</g>
<g>
</g>
<g>
</g>
<g>
</g>
<g>
</g>
<g>
</g>
<g>
</g>
<g>
</g>
<g>
</g>
<g>
</g>
<g>
</g>
<g>
</g>
</svg>
