<?xml version="1.0" encoding="iso-8859-1"?>
<!-- Generator: Adobe Illustrator 19.0.0, SVG Export Plug-In . SVG Version: 6.00 Build 0)  -->
<svg version="1.1" id="Layer_1" xmlns="http://www.w3.org/2000/svg" xmlns:xlink="http://www.w3.org/1999/xlink" x="0px" y="0px"
	 viewBox="0 0 512 512" style="enable-background:new 0 0 512 512;" xml:space="preserve">
<g>
	<g>
		<path d="M240.916,357.613c-21.358,0-38.726,17.373-38.726,38.726c0,21.353,17.368,38.726,38.726,38.726
			c21.358,0,38.726-17.373,38.726-38.726C279.643,374.986,262.274,357.613,240.916,357.613z M240.916,415.703
			c-10.674,0-19.363-8.684-19.363-19.363c0-10.679,8.689-19.363,19.363-19.363c10.674,0,19.363,8.684,19.363,19.363
			C260.279,407.019,251.591,415.703,240.916,415.703z"/>
	</g>
</g>
<g>
	<g>
		<path d="M173.174,144.705h-58.146c-32.013,0-58.061,26.057-58.061,58.089s26.048,58.089,58.061,58.089h58.146
			c32.013,0,58.061-26.057,58.061-58.089S205.187,144.705,173.174,144.705z M173.174,241.521h-58.146
			c-21.339,0-38.698-17.373-38.698-38.726s17.359-38.726,38.698-38.726h58.146c21.339,0,38.698,17.373,38.698,38.726
			C211.872,224.148,194.513,241.521,173.174,241.521z"/>
	</g>
</g>
<g>
	<g>
		<path d="M366.805,144.705h-58.146c-32.013,0-58.061,26.057-58.061,58.089s26.048,58.089,58.061,58.089h58.146
			c32.013,0,58.061-26.057,58.061-58.089S398.818,144.705,366.805,144.705z M366.805,241.521h-58.146
			c-21.339,0-38.698-17.373-38.698-38.726s17.359-38.726,38.698-38.726h58.146c21.339,0,38.698,17.373,38.698,38.726
			S388.144,241.521,366.805,241.521z"/>
	</g>
</g>
<g>
	<g>
		<path d="M502.318,396.426h-71.406c31.337-21.784,53.166-56.529,53.166-96.902V193.027c0-64.06-53.227-116.093-117.273-116.093
			H115.028C50.982,76.934,0,128.967,0,193.027v106.497c0,64.06,50.982,116.265,115.028,116.265h48.436
			c5.352,0,9.682-4.378,9.682-9.724c0-37.369,30.406-67.793,67.771-67.793c37.365,0,67.771,30.435,67.771,67.804
			c0,5.347,4.33,9.714,9.682,9.714h38.726h9.71h135.513c5.352,0,9.682-4.335,9.682-9.682S507.67,396.426,502.318,396.426z
			 M357.095,396.426h-29.583c-4.831-43.567-41.818-77.453-86.595-77.453c-44.777,0-81.764,33.885-86.595,77.453h-39.294
			c-53.372,0-95.664-43.516-95.664-96.902V193.027c0-53.386,42.293-96.729,95.664-96.729h251.778
			c53.371,0,97.91,43.344,97.91,96.729v106.497c0,53.386-44.539,96.902-97.91,96.902H357.095z"/>
	</g>
</g>
<g>
</g>
<g>
</g>
<g>
</g>
<g>
</g>
<g>
</g>
<g>
</g>
<g>
</g>
<g>
</g>
<g>
</g>
<g>
</g>
<g>
</g>
<g>
</g>
<g>
</g>
<g>
</g>
<g>
</g>
</svg>
