<?xml version="1.0" encoding="iso-8859-1"?>
<!-- Generator: Adobe Illustrator 19.0.0, SVG Export Plug-In . SVG Version: 6.00 Build 0)  -->
<svg version="1.1" id="Layer_1" xmlns="http://www.w3.org/2000/svg" xmlns:xlink="http://www.w3.org/1999/xlink" x="0px" y="0px"
	 viewBox="0 0 512 512" style="enable-background:new 0 0 512 512;" xml:space="preserve">
<g>
	<g>
		<path d="M417.859,260.491c0-114.854-51.127-199.603-125.232-219.887V19.873c22.456,2.925,31.305,8.477,34.048,11.324
			c1.447,1.496,1.303,2.456,1.496,2.105c-1.43,4.645,0.982,9.605,5.614,11.149c0.947,0.316,1.84,0.465,2.779,0.465
			c3.761,0,7.23-2.381,8.485-6.145c0.474-1.404,2.491-8.829-3.474-17.096C331.065,7.092,302.951,0,255.662,0
			c-47.287,0-75.397,7.092-85.906,21.675c-5.965,8.267-3.932,15.693-3.458,17.096c1.57,4.702,6.603,7.268,11.358,5.68
			c4.702-1.57,7.245-6.658,5.675-11.364c-0.14-0.421,1.248-0.544,1.511-0.908c1.776-2.462,8.978-9.038,35.925-12.31v20.735
			C144.416,60.888,94.491,145.637,94.491,260.491l-0.303,17.838c-0.263,66.812-0.614,124.509,35.14,160.404
			c25.377,25.474,65.487,37.338,126.392,37.338c60.901,0,101.046-11.864,126.423-37.338c35.754-35.895,35.502-93.592,35.239-160.404
			L417.859,260.491z M238.732,18.38c4.491-0.263,11.388-0.415,17.965-0.415c6.568,0,11.228,0.148,17.965,0.412v18.686
			c-6.737-0.747-11.855-1.134-17.965-1.134c-6.11,0-13.474,0.387-17.965,1.134V18.38z M255.655,53.895
			c44.708,0,82.281,23.728,107.787,64.036c-0.044,136.842-8.219,241.367-107.787,241.367c-99.568,0-107.743-104.525-107.789-241.367
			C173.374,77.623,210.947,53.895,255.655,53.895z M111.936,260.491c0-40.274,6.511-76.49,18.25-106.969
			c1.526,87.5,10.342,161.747,51.509,198.685c-59.18-14.27-67.057-48.487-69.25-87.848c-0.046-0.845-0.248-1.641-0.513-2.408
			L111.936,260.491z M369.383,426.052c-21.482,21.57-58.684,32.053-113.728,32.053c-55.044,0-92.246-10.483-113.728-32.053
			c-21.954-22.036-27.996-54.987-29.563-96.121c20.281,30.148,61.581,47.331,143.292,47.331c83.579,0,123.814-18.92,143.285-47.165
			C397.363,371.154,391.308,404.046,369.383,426.052z M399.251,254.574c-1.283,46.925-8.197,83.359-69.914,97.878
			c41.404-36.855,50.256-111.236,51.787-198.931c11.134,28.913,17.528,63.012,18.156,100.82
			C399.276,254.421,399.254,254.494,399.251,254.574z"/>
	</g>
</g>
<g>
	<g>
		<path d="M280.927,138.5c-2.886-4.039-8.5-4.969-12.526-2.092l-62.877,44.912c-4.035,2.886-4.974,8.496-2.088,12.531
			c1.755,2.456,4.509,3.763,7.316,3.763c1.807,0,3.632-0.544,5.211-1.671l62.877-44.912
			C282.874,148.145,283.813,142.535,280.927,138.5z"/>
	</g>
</g>
<g>
	<g>
		<path d="M334.76,147.39c-2.947-4-8.553-4.873-12.562-1.934l-134.737,98.807c-4,2.934-4.859,8.557-1.93,12.557
			c1.763,2.399,4.491,3.671,7.254,3.671c1.842,0,3.702-0.566,5.307-1.737l134.737-98.807
			C336.83,157.013,337.69,151.39,334.76,147.39z"/>
	</g>
</g>
<g>
	<g>
		<path d="M332.006,386.246c-12.386,0-22.456,10.075-22.456,22.456c0,12.381,10.07,22.456,22.456,22.456
			c12.386,0,22.456-10.075,22.456-22.456C354.462,396.32,344.392,386.246,332.006,386.246z M332.006,413.193
			c-2.474,0-4.491-2.013-4.491-4.491c0-2.478,2.018-4.491,4.491-4.491c2.474,0,4.491,2.013,4.491,4.491
			C336.497,411.18,334.48,413.193,332.006,413.193z"/>
	</g>
</g>
<g>
	<g>
		<path d="M179.304,386.246c-12.386,0-22.456,10.075-22.456,22.456c0,12.381,10.07,22.456,22.456,22.456
			c12.386,0,22.456-10.075,22.456-22.456C201.76,396.32,191.69,386.246,179.304,386.246z M179.304,413.193
			c-2.474,0-4.491-2.013-4.491-4.491c0-2.478,2.018-4.491,4.491-4.491c2.474,0,4.491,2.013,4.491,4.491
			C183.795,411.18,181.778,413.193,179.304,413.193z"/>
	</g>
</g>
<g>
	<g>
		<path d="M161.83,468.596c-4.14-2.763-9.711-1.636-12.456,2.491l-17.965,26.947c-2.755,4.127-1.64,9.706,2.491,12.456
			c1.535,1.022,3.263,1.509,4.974,1.509c2.904,0,5.754-1.404,7.483-4l17.965-26.947C167.076,476.925,165.962,471.346,161.83,468.596
			z"/>
	</g>
</g>
<g>
	<g>
		<path d="M379.901,498.035l-17.965-26.947c-2.746-4.127-8.316-5.254-12.456-2.491c-4.132,2.75-5.246,8.329-2.491,12.456
			L364.953,508c1.728,2.597,4.579,4,7.482,4c1.711,0,3.439-0.487,4.974-1.509C381.541,507.741,382.655,502.162,379.901,498.035z"/>
	</g>
</g>
<g>
</g>
<g>
</g>
<g>
</g>
<g>
</g>
<g>
</g>
<g>
</g>
<g>
</g>
<g>
</g>
<g>
</g>
<g>
</g>
<g>
</g>
<g>
</g>
<g>
</g>
<g>
</g>
<g>
</g>
</svg>
