<?xml version="1.0" encoding="iso-8859-1"?>
<!-- Generator: Adobe Illustrator 19.0.0, SVG Export Plug-In . SVG Version: 6.00 Build 0)  -->
<svg version="1.1" id="Layer_1" xmlns="http://www.w3.org/2000/svg" xmlns:xlink="http://www.w3.org/1999/xlink" x="0px" y="0px"
	 viewBox="0 0 512 512" style="enable-background:new 0 0 512 512;" xml:space="preserve">
<g>
	<g>
		<path d="M256,0C143.07,0,51.2,114.84,51.2,256c0,141.16,91.87,256,204.8,256c112.93,0,204.8-114.84,204.8-256
			C460.8,114.84,368.93,0,256,0z M256,491.52C154.37,491.52,71.68,385.865,71.68,256c0-129.865,82.69-235.52,184.32-235.52
			c101.63,0,184.32,105.655,184.32,235.52C440.32,385.865,357.63,491.52,256,491.52z"/>
	</g>
</g>
<g>
	<g>
		<path d="M256,61.44c-84.7,0-153.6,84.98-153.6,189.44c0,33.39,7.21,56.5,22.05,70.665c21.93,20.92,55.75,19.34,94.89,17.5
			c23.66-1.1,49.66-1.1,73.32,0c10.81,0.51,21.21,0.995,31.07,0.995c25.84,0,47.94-3.35,63.82-18.495
			c14.84-14.165,22.05-37.275,22.05-70.665C409.6,146.42,340.7,61.44,256,61.44z M373.41,306.725
			c-15.58,14.87-45.35,13.485-79.79,11.865c-12.06-0.565-24.54-1.15-37.62-1.15c-13.08,0-25.56,0.585-37.62,1.15
			c-34.43,1.605-64.21,3.01-79.79-11.865c-10.57-10.09-15.71-28.355-15.71-55.845c0-93.165,59.72-168.96,133.12-168.96
			c73.4,0,133.12,75.795,133.12,168.96C389.12,278.37,383.98,296.635,373.41,306.725z"/>
	</g>
</g>
<g>
	<g>
		<path d="M256,378.88c-28.23,0-51.2,22.97-51.2,51.2c0,28.23,22.97,51.2,51.2,51.2c28.23,0,51.2-22.97,51.2-51.2
			C307.2,401.85,284.23,378.88,256,378.88z M256,460.8c-16.94,0-30.72-13.78-30.72-30.72c0-16.94,13.78-30.72,30.72-30.72
			c16.94,0,30.72,13.78,30.72,30.72C286.72,447.02,272.94,460.8,256,460.8z"/>
	</g>
</g>
<g>
	<g>
		<path d="M153.6,348.16c-16.94,0-30.72,13.78-30.72,30.72c0,16.94,13.78,30.72,30.72,30.72c16.94,0,30.72-13.78,30.72-30.72
			C184.32,361.94,170.54,348.16,153.6,348.16z M153.6,389.12c-5.65,0-10.24-4.595-10.24-10.24c0-5.645,4.59-10.24,10.24-10.24
			c5.65,0,10.24,4.595,10.24,10.24C163.84,384.525,159.25,389.12,153.6,389.12z"/>
	</g>
</g>
<g>
	<g>
		<path d="M358.4,348.16c-16.94,0-30.72,13.78-30.72,30.72c0,16.94,13.78,30.72,30.72,30.72c16.94,0,30.72-13.78,30.72-30.72
			C389.12,361.94,375.34,348.16,358.4,348.16z M358.4,389.12c-5.65,0-10.24-4.595-10.24-10.24c0-5.645,4.59-10.24,10.24-10.24
			c5.65,0,10.24,4.595,10.24,10.24C368.64,384.525,364.05,389.12,358.4,389.12z"/>
	</g>
</g>
<g>
</g>
<g>
</g>
<g>
</g>
<g>
</g>
<g>
</g>
<g>
</g>
<g>
</g>
<g>
</g>
<g>
</g>
<g>
</g>
<g>
</g>
<g>
</g>
<g>
</g>
<g>
</g>
<g>
</g>
</svg>
