<?xml version="1.0" encoding="iso-8859-1"?>
<!-- Generator: Adobe Illustrator 19.0.0, SVG Export Plug-In . SVG Version: 6.00 Build 0)  -->
<svg version="1.1" id="Layer_1" xmlns="http://www.w3.org/2000/svg" xmlns:xlink="http://www.w3.org/1999/xlink" x="0px" y="0px"
	 viewBox="0 0 512 512" style="enable-background:new 0 0 512 512;" xml:space="preserve">
<g>
	<g>
		<path d="M490.067,84.375L408.4,2.707c-3.609-3.609-10.001-3.609-13.61,0L353.721,43.78L314.617,4.676
			c-3.76-3.76-9.85-3.76-13.61,0L21.933,283.75c-3.76,3.76-3.76,9.85,0,13.61l139.955,139.957
			c-5.064,7.618-8.031,16.746-8.031,26.56c0,26.533,21.59,48.123,48.123,48.123c26.533,0,48.123-21.59,48.123-48.123
			c0-11.403-4.006-21.88-10.661-30.136l245.316-245.316c3.76-3.76,3.76-9.85,0-13.61l-35.759-35.758l41.069-41.074
			C493.827,94.225,493.827,88.134,490.067,84.375z M201.979,492.751c-15.922,0-28.874-12.952-28.874-28.874
			c0-15.922,12.952-28.874,28.874-28.874c15.922,0,28.874,12.952,28.874,28.874C230.853,479.799,217.901,492.751,201.979,492.751z
			 M224.556,421.407c-6.739-3.597-14.42-5.652-22.576-5.652c-9.773,0-18.861,2.947-26.46,7.971L42.347,290.555l82.596-82.596
			l156.528,156.533L224.556,421.407z M295.081,350.883L138.553,194.35l82.636-82.636l156.528,156.533L295.081,350.883z
			 M464.343,181.621l-73.016,73.016L234.798,98.104l73.014-73.014L464.343,181.621z M435.389,125.448L367.331,57.39l34.264-34.269
			l68.058,68.058L435.389,125.448z"/>
	</g>
</g>
<g>
</g>
<g>
</g>
<g>
</g>
<g>
</g>
<g>
</g>
<g>
</g>
<g>
</g>
<g>
</g>
<g>
</g>
<g>
</g>
<g>
</g>
<g>
</g>
<g>
</g>
<g>
</g>
<g>
</g>
</svg>
