<?xml version="1.0" encoding="iso-8859-1"?>
<!-- Generator: Adobe Illustrator 19.0.0, SVG Export Plug-In . SVG Version: 6.00 Build 0)  -->
<svg version="1.1" id="Layer_1" xmlns="http://www.w3.org/2000/svg" xmlns:xlink="http://www.w3.org/1999/xlink" x="0px" y="0px"
	 viewBox="0 0 512 512" style="enable-background:new 0 0 512 512;" xml:space="preserve">
<g>
	<g>
		<path d="M193.807,370.273L177.022,202.44c-0.446-4.492-4.231-7.912-8.744-7.912H45.256c-2.094,0-4.128,0.712-5.715,2.077
			c-65.046,55.747-30.592,179.604-29.099,184.852c1.081,3.771,4.531,6.391,8.452,6.391h27.381v-17.574H25.742
			C19.942,346.108,2.71,253.842,48.612,212.103h111.711l16.785,167.833c0.446,4.492,4.23,7.912,8.744,7.912h44.955v-17.574H193.807z
			"/>
	</g>
</g>
<g>
	<g>
		<path d="M102.373,308.684c-26.645,0-48.33,21.681-48.33,48.33c0,26.649,21.685,48.33,48.33,48.33
			c26.645,0,48.33-21.681,48.33-48.33C150.703,330.365,129.018,308.684,102.373,308.684z M102.373,387.77
			c-16.957,0-30.755-13.799-30.755-30.755c0-16.957,13.799-30.755,30.755-30.755c16.957,0,30.755,13.799,30.755,30.755
			C133.129,373.971,119.33,387.77,102.373,387.77z"/>
	</g>
</g>
<g>
	<g>
		<path d="M304.48,308.684c-26.645,0-48.33,21.681-48.33,48.33c0,26.649,21.685,48.33,48.33,48.33s48.33-21.681,48.33-48.33
			C352.81,330.365,331.125,308.684,304.48,308.684z M304.48,387.77c-16.957,0-30.755-13.799-30.755-30.755
			c0-16.957,13.799-30.755,30.755-30.755c16.957,0,30.755,13.799,30.755,30.755C335.236,373.971,321.437,387.77,304.48,387.77z"/>
	</g>
</g>
<g>
	<g>
		<path d="M418.715,308.684c-26.645,0-48.33,21.681-48.33,48.33c0,26.649,21.685,48.33,48.33,48.33s48.33-21.681,48.33-48.33
			C467.045,330.365,445.36,308.684,418.715,308.684z M418.715,387.77c-16.957,0-30.755-13.799-30.755-30.755
			c0-16.957,13.799-30.755,30.755-30.755c16.957,0,30.755,13.799,30.755,30.755C449.47,373.971,435.671,387.77,418.715,387.77z"/>
	</g>
</g>
<g>
	<g>
		<path d="M81.424,220.89v35.149H46.275v17.574h42.917c4.857,0,9.806-4.013,9.806-8.865V220.89H81.424z"/>
	</g>
</g>
<g>
	<g>
		<path d="M484.602,106.656H229.806c-14.545,0-25.36,11.712-25.36,26.202v140.759c0,14.49,10.815,26.358,25.36,26.358h254.796
			c14.545,0,27.398-11.869,27.398-26.358V132.858C512,118.368,499.147,106.656,484.602,106.656z M494.425,273.617
			c0,4.801-4.966,8.784-9.823,8.784H229.806c-4.857,0-7.785-3.983-7.785-8.784V132.858c0-4.801,2.928-8.627,7.785-8.627h254.796
			c4.857,0,9.823,3.826,9.823,8.627V273.617z"/>
	</g>
</g>
<g>
</g>
<g>
</g>
<g>
</g>
<g>
</g>
<g>
</g>
<g>
</g>
<g>
</g>
<g>
</g>
<g>
</g>
<g>
</g>
<g>
</g>
<g>
</g>
<g>
</g>
<g>
</g>
<g>
</g>
</svg>
