<?xml version="1.0" encoding="iso-8859-1"?>
<!-- Generator: Adobe Illustrator 19.0.0, SVG Export Plug-In . SVG Version: 6.00 Build 0)  -->
<svg version="1.1" id="Layer_1" xmlns="http://www.w3.org/2000/svg" xmlns:xlink="http://www.w3.org/1999/xlink" x="0px" y="0px"
	 viewBox="0 0 512 512" style="enable-background:new 0 0 512 512;" xml:space="preserve">
<g>
	<g>
		<path d="M455.498,295.916c0.034-0.313,0.095-0.62,0.095-0.943V8.601c0-4.792-4.888-8.601-9.684-8.601H64.078
			c-4.797,0-7.672,3.808-7.672,8.601v286.373c0,0.323,0.061,0.629,0.095,0.943c-5.58,9.983-8.773,21.47-8.773,33.693v104.199
			c0,19.148,14.561,34.802,33.705,34.802h1.528c-0.97,2.169-0.521,5.582-0.521,8.643v8.593c0,14.377,10.663,26.154,25.011,26.154
			h34.746c14.347,0,27.023-11.776,27.023-26.154v-8.593c0-3.061-1.564-6.474-2.534-8.643h176.614
			c-0.97,2.169-0.521,5.582-0.521,8.643v8.593c0,14.377,10.663,26.154,25.011,26.154h34.746c14.347,0,27.023-11.776,27.023-26.154
			v-8.593c0-3.061-1.564-6.474-2.534-8.643h1.528c19.144,0,35.718-15.653,35.718-34.802V329.609
			C464.271,317.387,461.078,305.899,455.498,295.916z M73.763,17.356h364.475v258.173c-10.847-7.987-22.657-13.29-35.994-14.806
			L385.373,94.554c-0.441-4.436-4.43-7.774-8.888-7.774h-25.027V43.313c0-4.792-3.881-8.678-8.678-8.678
			c-4.797,0-8.678,3.886-8.678,8.678V86.78H177.898V43.313c0-4.792-3.881-8.678-8.678-8.678s-8.678,3.886-8.678,8.678V86.78h-27.04
			c-4.458,0-8.195,3.338-8.635,7.774l-16.119,166.187c-13.335,1.516-26.307,6.8-34.985,14.787V17.356z M384.248,260.339H125.739
			l15.619-156.203h227.271L384.248,260.339z M151.864,485.846c0,4.89-4.812,8.798-9.667,8.798h-34.746
			c-4.78,0-7.655-3.988-7.655-8.798v-8.593c0-4.809,2.875-8.643,7.655-8.643h34.746c4.78,0,9.667,3.834,9.667,8.643V485.846z
			 M412.203,485.846c0,4.89-4.811,8.798-9.667,8.798H367.79c-4.78,0-7.655-3.988-7.655-8.798v-8.593
			c0-4.809,2.875-8.643,7.655-8.643h34.746c4.78,0,9.667,3.834,9.667,8.643V485.846z M446.915,433.808
			c0,9.576-8.794,17.446-18.362,17.446h-26.017H367.79H142.197h-34.746H81.434c-9.568,0-16.349-7.87-16.349-17.446V329.609
			c0-28.669,22.35-51.914,51.053-51.914h0.008h277.695h0.008c28.703,0,53.066,23.245,53.066,51.914V433.808z"/>
	</g>
</g>
<g>
	<g>
		<path d="M200.384,132.634c-3.39-3.39-8.881-3.39-12.271,0L153.4,167.346c-1.695,1.695-2.542,3.915-2.542,6.136
			c0,2.22,0.848,4.44,2.542,6.135c1.695,1.695,3.915,2.542,6.136,2.542c2.22,0,4.441-0.848,6.136-2.542l34.712-34.712
			c1.695-1.695,2.542-3.915,2.542-6.135C202.926,136.55,202.078,134.33,200.384,132.634z"/>
	</g>
</g>
<g>
	<g>
		<path d="M243.773,141.312c-3.39-3.39-8.881-3.39-12.271,0l-52.068,52.068c-3.39,3.39-3.39,8.881,0,12.271
			c1.695,1.695,3.915,2.542,6.135,2.542c2.221,0,4.441-0.848,6.136-2.542l52.068-52.068
			C247.163,150.194,247.163,144.702,243.773,141.312z"/>
	</g>
</g>
<g>
	<g>
		<path d="M398.18,329.685c-21.534,0-39.051,17.517-39.051,39.051c0,21.534,17.517,39.051,39.051,39.051
			c21.534,0,39.051-17.517,39.051-39.051C437.231,347.202,419.714,329.685,398.18,329.685z M398.18,390.431
			c-11.966,0-21.695-9.733-21.695-21.695c0-11.962,9.729-21.695,21.695-21.695c11.966,0,21.695,9.733,21.695,21.695
			C419.875,380.698,410.146,390.431,398.18,390.431z"/>
	</g>
</g>
<g>
	<g>
		<path d="M111.807,329.685c-21.534,0-39.051,17.517-39.051,39.051c0,21.534,17.517,39.051,39.051,39.051
			c21.534,0,39.051-17.517,39.051-39.051C150.858,347.202,133.341,329.685,111.807,329.685z M111.807,390.431
			c-11.966,0-21.695-9.733-21.695-21.695c0-11.962,9.729-21.695,21.695-21.695c11.966,0,21.695,9.733,21.695,21.695
			C133.502,380.698,123.773,390.431,111.807,390.431z"/>
	</g>
</g>
<g>
	<g>
		<path d="M324.494,295.051h-139c-14.314,0-24.951,11.635-24.951,26.033v69.276c0,14.394,10.638,26.183,24.951,26.183h139
			c14.313,0,26.964-11.789,26.964-26.183v-69.276C351.458,306.685,338.807,295.051,324.494,295.051z M195.254,399.186h-9.761
			c-4.746,0-7.595-4.001-7.595-8.827v-69.276c0-4.826,2.85-8.677,7.595-8.677h9.761V399.186z M229.966,399.186H212.61v-86.78h17.356
			V399.186z M264.678,399.186h-17.356v-86.78h17.356V399.186z M299.39,399.186h-17.356v-86.78h17.356V399.186z M334.102,390.359
			c0,4.826-4.862,8.827-9.608,8.827h-7.748v-86.78h7.748c4.746,0,9.608,3.851,9.608,8.677V390.359z"/>
	</g>
</g>
<g>
</g>
<g>
</g>
<g>
</g>
<g>
</g>
<g>
</g>
<g>
</g>
<g>
</g>
<g>
</g>
<g>
</g>
<g>
</g>
<g>
</g>
<g>
</g>
<g>
</g>
<g>
</g>
<g>
</g>
</svg>
