<?xml version="1.0" encoding="iso-8859-1"?>
<!-- Generator: Adobe Illustrator 19.0.0, SVG Export Plug-In . SVG Version: 6.00 Build 0)  -->
<svg version="1.1" id="Layer_1" xmlns="http://www.w3.org/2000/svg" xmlns:xlink="http://www.w3.org/1999/xlink" x="0px" y="0px"
	 viewBox="0 0 512 512" style="enable-background:new 0 0 512 512;" xml:space="preserve">
<g>
	<g>
		<path d="M256,0C133.502,0,33.849,99.658,33.849,222.151v212.493c0,5.334,3.2,9.745,8.539,9.745H158.16l-9.395,56.321
			c-0.472,2.8,0.321,5.685,2.16,7.855c1.83,2.165,4.528,3.436,7.367,3.436h193.175c2.934,0,5.697-1.373,7.536-3.661
			c1.83-2.281,2.528-5.255,1.896-8.113l-12.413-55.837h118.885c5.339,0,10.779-4.411,10.779-9.745V222.151
			C478.151,99.658,378.498,0,256,0z M169.696,492.682l8.046-48.294h150.951l10.729,48.294H169.696z M180.961,425.071l14.486-86.929
			h109.642l19.313,86.929H180.961z M458.834,425.071H344.193l-21.928-98.682c-0.991-4.419-4.905-7.565-9.432-7.565H187.269
			c-4.726,0-8.753,3.415-9.527,8.069l-16.363,98.177H53.166v-202.92C53.166,110.307,144.16,19.318,256,19.318
			s202.834,90.989,202.834,202.834V425.071z"/>
	</g>
</g>
<g>
	<g>
		<path d="M256,115.905c-37.277,0-67.611,30.301-67.611,67.55v106.308c0,5.334,3.2,9.745,8.539,9.745h115.905
			c5.339,0,10.779-4.411,10.779-9.745V183.549C323.611,146.249,293.277,115.905,256,115.905z M304.294,280.19h-96.588v-96.735
			c0-26.595,21.666-48.232,48.294-48.232s48.294,21.68,48.294,48.327V280.19z"/>
	</g>
</g>
<g>
</g>
<g>
</g>
<g>
</g>
<g>
</g>
<g>
</g>
<g>
</g>
<g>
</g>
<g>
</g>
<g>
</g>
<g>
</g>
<g>
</g>
<g>
</g>
<g>
</g>
<g>
</g>
<g>
</g>
</svg>
