<?xml version="1.0" encoding="iso-8859-1"?>
<!-- Generator: Adobe Illustrator 19.0.0, SVG Export Plug-In . SVG Version: 6.00 Build 0)  -->
<svg version="1.1" id="Layer_1" xmlns="http://www.w3.org/2000/svg" xmlns:xlink="http://www.w3.org/1999/xlink" x="0px" y="0px"
	 viewBox="0 0 512 512" style="enable-background:new 0 0 512 512;" xml:space="preserve">
<g>
	<g>
		<path d="M157.008,106.658c-3.389-3.389-8.88-3.389-12.27,0l-26.03,26.03c-3.389,3.389-3.389,8.88,0,12.27
			c1.695,1.695,3.915,2.542,6.135,2.542c2.22,0,4.44-0.847,6.135-2.542l26.03-26.03
			C160.397,115.538,160.397,110.047,157.008,106.658z"/>
	</g>
</g>
<g>
	<g>
		<path d="M200.391,106.658c-3.389-3.389-8.88-3.389-12.27,0l-60.737,60.737c-3.389,3.389-3.389,8.88,0,12.27
			c1.695,1.695,3.915,2.542,6.135,2.542c2.22,0,4.44-0.847,6.135-2.542l60.737-60.737
			C203.781,115.538,203.781,110.047,200.391,106.658z"/>
	</g>
</g>
<g>
	<g>
		<path d="M330.543,106.658c-3.389-3.389-8.88-3.389-12.27,0l-26.03,26.03c-3.389,3.389-3.389,8.88,0,12.27
			c1.695,1.695,3.915,2.542,6.135,2.542c2.22,0,4.44-0.847,6.135-2.542l26.03-26.03
			C333.932,115.538,333.932,110.047,330.543,106.658z"/>
	</g>
</g>
<g>
	<g>
		<path d="M373.926,106.658c-3.389-3.389-8.88-3.389-12.27,0l-60.737,60.737c-3.389,3.389-3.389,8.88,0,12.27
			c1.695,1.695,3.915,2.542,6.135,2.542c2.22,0,4.44-0.847,6.135-2.542l60.737-60.737
			C377.316,115.538,377.316,110.047,373.926,106.658z"/>
	</g>
</g>
<g>
	<g>
		<path d="M480.547,164.93h-8.592c-3.586,0-7.008,0.688-10.119,2.001l1.807-18.993c4.872-51.09-30.292-106.677-78.506-124.276
			C379.027,20.383,337.745,0,254.994,0c-82.361,0-123.652,20.185-130.058,23.608C76.57,40.131,41.371,95.703,46.345,147.92
			l1.807,19.012c-3.114-1.313-6.533-2.002-10.119-2.002h-8.592c-14.379,0-25.066,11.591-25.066,25.936v34.741
			c0,14.345,10.687,26.091,25.066,26.091h8.592c6.757,0,12.903-2.637,17.538-6.858l16.86,171.744
			c-4.387,0.435-7.319,4.072-7.319,8.572v21.692c0,15.262,10.846,27.896,26.03,30.02v17.621c0,9.613,6.815,17.511,16.432,17.511
			h17.184c9.617,0,18.444-7.898,18.444-17.511v-17.196h225.595v17.196c0,9.613,6.815,17.511,16.432,17.511h17.184
			c9.617,0,18.444-7.898,18.444-17.511v-17.621c13.015-2.124,26.03-14.758,26.03-30.02v-21.692c0-4.5-3.938-8.156-8.325-8.591
			l16.104-171.725c4.637,4.221,10.53,6.858,17.288,6.858h8.592c14.379,0,27.079-11.745,27.079-26.091v-34.741
			C507.626,176.521,494.926,164.93,480.547,164.93z M47.758,225.607c0,4.775-4.921,8.737-9.725,8.737h-8.592
			c-4.889,0-7.713-3.882-7.713-8.737v-34.741c0-4.775,2.908-8.582,7.713-8.582h8.592c4.889,0,9.725,3.727,9.725,8.582V225.607z
			 M131.172,39.859c0.534-0.179,1.076-0.444,1.568-0.723c0.381-0.216,39.393-21.778,122.254-21.778
			c82.861,0,121.873,21.548,122.229,21.751c0.449,0.258,0.924,0.515,1.415,0.689c15.979,5.703,30.292,16.673,41.638,29.689h-26.454
			H116.166H89.422C100.84,56.471,115.247,45.148,131.172,39.859z M417.022,190.96H264.677V86.839H387.28L417.022,190.96z
			 M247.323,86.839V190.96H92.966l29.742-104.121H247.323z M63.614,146.352c-1.919-20.141,3.497-42.159,13.812-59.513h27.233
			L74.911,190.96h-7.05L63.614,146.352z M108.495,494.489v-17.196h16.322l0.443,17.315L108.495,494.489z M386.151,494.489v-17.196
			h16.322l0.443,17.315L386.151,494.489z M429.535,446.847c0,7.177-6.853,13.092-14.038,13.092h-4.321h-34.707H133.519H98.812
			h-4.321c-7.185,0-12.026-5.916-12.026-13.092v-12.938h347.07V446.847z M420.64,416.556H89.348L69.514,208.314h11.945h347.07
			h11.943L420.64,416.556z M446.374,146.313l-4.247,44.647h-7.05L405.329,86.839h23.2c1.246,0,2.426-0.292,3.495-0.765
			C442.747,104.51,448.327,125.821,446.374,146.313z M490.272,225.607c0,4.775-4.921,8.737-9.725,8.737h-8.592
			c-4.889,0-7.713-3.882-7.713-8.737v-34.741c0-4.775,2.908-8.582,7.713-8.582h8.592c4.889,0,9.725,3.727,9.725,8.582V225.607z"/>
	</g>
</g>
<g>
	<g>
		<path d="M150.873,329.711c-19.141,0-34.707,15.57-34.707,34.707c0,19.137,15.566,34.707,34.707,34.707
			c19.142,0,34.707-15.57,34.707-34.707C185.58,345.281,170.014,329.711,150.873,329.711z M150.873,381.772
			c-9.566,0-17.354-7.783-17.354-17.354c0-9.571,7.787-17.353,17.354-17.353c9.567,0,17.353,7.783,17.353,17.353
			C168.226,373.989,160.439,381.772,150.873,381.772z"/>
	</g>
</g>
<g>
	<g>
		<path d="M359.115,329.711c-19.141,0-34.707,15.57-34.707,34.707c0,19.137,15.566,34.707,34.707,34.707
			c19.142,0,34.707-15.57,34.707-34.707C393.822,345.281,378.256,329.711,359.115,329.711z M359.115,381.772
			c-9.566,0-17.354-7.783-17.354-17.354c0-9.571,7.787-17.353,17.354-17.353c9.567,0,17.353,7.783,17.353,17.353
			C376.468,373.989,368.681,381.772,359.115,381.772z"/>
	</g>
</g>
<g>
	<g>
		<path d="M393.796,250.965c-0.364-4.771-4.381-8.334-9.321-7.952c-99.927,7.685-123.279,86.776-128.228,112.806h-2.635
			c-21.607-110.629-127.677-112.836-128.77-112.836c-4.796,0-8.677,3.865-8.677,8.657c0,4.792,3.881,8.658,8.677,8.658
			c3.949,0,96.859,1.237,112.899,105.478c0.653,4.233,4.296,7.397,8.575,7.397h17.354c4.5,0,8.253-3.496,8.643-7.978
			c0.348-3.953,9.66-96.918,113.501-104.904C390.585,259.922,394.161,255.744,393.796,250.965z"/>
	</g>
</g>
<g>
</g>
<g>
</g>
<g>
</g>
<g>
</g>
<g>
</g>
<g>
</g>
<g>
</g>
<g>
</g>
<g>
</g>
<g>
</g>
<g>
</g>
<g>
</g>
<g>
</g>
<g>
</g>
<g>
</g>
</svg>
