<?xml version="1.0" encoding="iso-8859-1"?>
<!-- Generator: Adobe Illustrator 19.0.0, SVG Export Plug-In . SVG Version: 6.00 Build 0)  -->
<svg version="1.1" id="Layer_1" xmlns="http://www.w3.org/2000/svg" xmlns:xlink="http://www.w3.org/1999/xlink" x="0px" y="0px"
	 viewBox="0 0 512 512" style="enable-background:new 0 0 512 512;" xml:space="preserve">
<g>
	<g>
		<path d="M428.307,20.592c-3.263-0.618-80.307-14.526-91.211,29.105c-4.302,17.212-13.202,27.003-21.228,32.342
			c1.939-6.045,2.996-12.481,2.996-19.162C318.863,28.206,290.658,0,255.986,0c-34.671,0-62.877,28.206-62.877,62.877
			c0,6.681,1.057,13.117,2.996,19.162c-8.027-5.339-16.928-15.131-21.228-32.342C163.969,6.066,86.938,19.974,83.666,20.592
			c-4.877,0.917-8.088,5.61-7.175,10.482c0.917,4.882,5.64,8.114,10.483,7.176c16.487-3.088,64.816-6.825,70.474,15.807
			c10.23,40.927,41.104,51.104,52.599,51.688c2.896,3.101,6.622,5.906,10.086,8.372c-41.588,14.944-70.892,54.74-70.892,101.375
			v125.82c0,23.649,11.08,45.785,30.514,59.206c1.526,1.057,3.05,1.592,4.845,1.592c1.372,0,2.618-0.316,3.89-0.952
			c2.93-1.465,4.764-4.412,4.891-7.688c2.605-68.373,30.687-123.996,62.639-123.996c31.947,0,60.045,55.618,62.655,123.978
			c0.126,3.276,2.017,6.224,4.952,7.693c2.921,1.465,6.933,1.211,9.645-0.649c19.429-13.434,31.547-35.562,31.547-59.184v-125.82
			c0-46.635-30.348-86.431-71.935-101.375c3.465-2.466,6.409-5.271,9.305-8.372c11.494-0.583,42.238-10.761,52.468-51.688
			c5.645-22.552,53.927-18.877,70.413-15.807c4.895,0.925,9.534-2.307,10.442-7.18C436.422,26.197,433.184,21.504,428.307,20.592z
			 M346.853,215.491v125.82c0,11.706-4.319,22.925-11.1,32.097c-7.425-70.711-40.128-121.899-79.506-121.899
			c-39.382,0-71.433,51.202-78.859,121.921c-6.776-9.171-10.184-20.395-10.184-32.118v-125.82c0-49.483,40.294-89.737,89.825-89.737
			C306.559,125.754,346.853,166.009,346.853,215.491z M255.986,107.789c-24.763,0-44.912-20.149-44.912-44.912
			c0-24.763,20.149-44.912,44.912-44.912c24.763,0,44.912,20.149,44.912,44.912C300.899,87.64,280.75,107.789,255.986,107.789z"/>
	</g>
</g>
<g>
	<g>
		<path d="M255.986,287.439c-30.724,0-53.895,50.242-53.895,116.812c0,4.961,4.022,9.022,8.982,9.022h89.825
			c4.961,0,8.982-4.061,8.982-9.022C309.881,337.681,286.71,287.439,255.986,287.439z M220.219,395.308
			c1.868-51.649,19.719-89.825,35.767-89.825s33.899,38.175,35.768,89.825H220.219z"/>
	</g>
</g>
<g>
	<g>
		<path d="M282.934,422.255h-53.895c-4.961,0-7.941,3.942-7.941,8.903v44.899c0,19.82,16.118,35.943,35.93,35.943
			c19.812,0,35.93-16.123,35.93-35.943v-44.899C292.958,426.197,287.894,422.255,282.934,422.255z M274.993,476.057
			c0,9.912-8.057,17.978-17.965,17.978c-9.908,0-17.965-8.066-17.965-17.978V440.22h35.93V476.057z"/>
	</g>
</g>
<g>
</g>
<g>
</g>
<g>
</g>
<g>
</g>
<g>
</g>
<g>
</g>
<g>
</g>
<g>
</g>
<g>
</g>
<g>
</g>
<g>
</g>
<g>
</g>
<g>
</g>
<g>
</g>
<g>
</g>
</svg>
