<?xml version="1.0" encoding="iso-8859-1"?>
<!-- Generator: Adobe Illustrator 19.0.0, SVG Export Plug-In . SVG Version: 6.00 Build 0)  -->
<svg version="1.1" id="Layer_1" xmlns="http://www.w3.org/2000/svg" xmlns:xlink="http://www.w3.org/1999/xlink" x="0px" y="0px"
	 viewBox="0 0 511.991 511.991" style="enable-background:new 0 0 511.991 511.991;" xml:space="preserve">
<g>
	<g>
		<rect x="493.412" y="158.489" width="18.579" height="65.027"/>
	</g>
</g>
<g>
	<g>
		<path d="M340.39,327.376c-2.431-1.751-5.817-2.227-8.639-1.279c-0.54,0.182-54.742,18.103-80.801,18.103
			c-26.031,0-80.193-17.921-80.738-18.103c-2.83-0.948-5.433-0.472-7.863,1.279c-2.422,1.746-3.351,4.55-3.351,7.534v111.474
			c0,5.13,3.082,9.372,8.212,9.372h167.211c5.13,0,10.367-4.242,10.367-9.372V334.91
			C344.789,331.925,342.817,329.122,340.39,327.376z M326.21,437.177H177.578v-89.599c16.257,5.579,53.242,15.2,74.316,15.2
			s55.737-9.621,74.316-15.2V437.177z"/>
	</g>
</g>
<g>
	<g>
		<path d="M250.817,372.068c-15.368,0-27.869,12.501-27.869,27.869c0,15.367,12.501,27.869,27.869,27.869
			s27.869-12.501,27.869-27.869C278.685,384.569,266.184,372.068,250.817,372.068z M250.817,409.226
			c-5.121,0-9.289-4.169-9.289-9.289c0-5.121,4.169-9.289,9.289-9.289c5.121,0,9.289,4.168,9.289,9.289
			C260.106,405.057,255.938,409.226,250.817,409.226z"/>
	</g>
</g>
<g>
	<g>
		<path d="M472.995,228.914c6.541-13.148,10.059-27.427,10.059-42.636c0-15.209-3.519-29.487-10.059-42.636l36.703-64.229
			c1.642-2.876,1.633-6.367-0.032-9.229c-1.66-2.862-4.722-4.586-8.033-4.586h-46.448c-2.463,0-4.826,0.939-6.568,2.681
			l-24.659,24.638c-37.72-23.156-91.344-36.681-154.563-36.681C158.117,56.235,0,123.493,0,186.283s158.117,130.05,269.396,130.05
			c63.219,0,116.842-13.515,154.563-36.67l24.659,24.699c1.742,1.742,4.105,2.762,6.568,2.762h46.448
			c3.311,0,6.373-1.805,8.033-4.667c1.665-2.862,1.674-6.417,0.032-9.293L472.995,228.914z M459.032,84.176h26.594l-23.868,41.728
			c-6.205-7.973-13.681-15.365-22.318-22.158L459.032,84.176z M269.396,297.752c-132.148,0-250.817-75.718-250.817-111.474
			c0-35.756,118.668-111.474,250.817-111.474c114.858,0,195.08,45.84,195.08,111.474
			C464.475,251.912,384.254,297.752,269.396,297.752z M459.032,288.545l-19.592-19.632c8.636-6.792,16.113-14.185,22.318-22.158
			l23.868,41.79H459.032z"/>
	</g>
</g>
<g>
</g>
<g>
</g>
<g>
</g>
<g>
</g>
<g>
</g>
<g>
</g>
<g>
</g>
<g>
</g>
<g>
</g>
<g>
</g>
<g>
</g>
<g>
</g>
<g>
</g>
<g>
</g>
<g>
</g>
</svg>
